SplineFontDB: 3.2
FontName: TAM4R
FullName: TAM4
FamilyName: TAM4
Weight: Book
Copyright: OFL Copyleft license, TAM font designed by Panacea Dreamweavers Software Private Limited, 2005. Modified as OpenType font by New Destiny Technologies (NewDestiny.in), May 30, 2020.
Version: 2.0, Unicode
ItalicAngle: -12
UnderlinePosition: -243
UnderlineWidth: 58
Ascent: 800
Descent: 200
InvalidEm: 0
sfntRevision: 0x00010000
LayerCount: 2
Layer: 0 1 "Back" 1
Layer: 1 1 "Fore" 0
XUID: [1021 275 286973370 24446]
StyleMap: 0x0040
FSType: 4
OS2Version: 4
OS2_WeightWidthSlopeOnly: 0
OS2_UseTypoMetrics: 0
CreationTime: 1358174488
ModificationTime: 1592555147
PfmFamily: 81
TTFWeight: 400
TTFWidth: 5
LineGap: 0
VLineGap: 0
Panose: 0 0 5 0 0 0 0 0 0 0
OS2TypoAscent: 781
OS2TypoAOffset: 0
OS2TypoDescent: -415
OS2TypoDOffset: 0
OS2TypoLinegap: 0
OS2WinAscent: 781
OS2WinAOffset: 0
OS2WinDescent: 415
OS2WinDOffset: 0
HheadAscent: 781
HheadAOffset: 0
HheadDescent: -415
HheadDOffset: 0
OS2SubXSize: 488
OS2SubYSize: 366
OS2SubXOff: 0
OS2SubYOff: 143
OS2SupXSize: 488
OS2SupYSize: 366
OS2SupXOff: 0
OS2SupYOff: 391
OS2StrikeYSize: 49
OS2StrikeYPos: 244
OS2Vendor: 'MODI'
OS2CodePages: 00000000.00000000
OS2UnicodeRanges: 80100007.00002002.00000000.00000000
Lookup: 4 0 0 "'akhn' Akhand in Tamil lookup 0" { "'akhn' Akhand in Tamil lookup 0 subtable"  } ['akhn' ('taml' <'dflt' > ) ]
Lookup: 4 0 0 "'abvs' Above Base Substitutions in Tamil lookup 1" { "'abvs' Above Base Substitutions in Tamil lookup 1 subtable"  } ['abvs' ('taml' <'dflt' > ) ]
Lookup: 4 0 0 "'psts' Post Base Substitutions in Tamil lookup 2" { "'psts' Post Base Substitutions in Tamil lookup 2 subtable"  } ['psts' ('taml' <'dflt' > ) ]
Lookup: 4 0 0 "'abvs' Above Base Substitutions in Tamil lookup 3" { "'abvs' Above Base Substitutions in Tamil lookup 3 subtable"  } ['abvs' ('taml' <'dflt' > ) ]
Lookup: 4 0 0 "'haln' Halant Forms in Tamil lookup 4" { "'haln' Halant Forms in Tamil lookup 4 subtable"  } ['haln' ('taml' <'dflt' > ) ]

StartChar: .notdef
Encoding: 65536 -1 0
Width: 800
Flags: W
LayerCount: 2
Fore
SplineSet
45 0 m 1,0,-1
 45 800 l 1,1,-1
 45 805 l 1,2,-1
 50 805 l 1,3,-1
 750 805 l 1,4,-1
 755 805 l 1,5,-1
 755 800 l 1,6,-1
 755 0 l 1,7,-1
 755 -5 l 1,8,-1
 750 -5 l 1,9,-1
 50 -5 l 1,10,-1
 45 -5 l 1,11,-1
 45 0 l 1,0,-1
695 55 m 1,12,-1
 695 745 l 1,13,-1
 105 745 l 1,14,-1
 105 55 l 1,15,-1
 695 55 l 1,12,-1
EndSplineSet
EndChar

StartChar: exclam
Encoding: 33 33 4
Width: 315
GlyphClass: 2
Flags: W
LayerCount: 2
Fore
SplineSet
292 480 m 1,0,-1
 181 105 l 1,1,-1
 180 101 l 1,2,-1
 176 101 l 1,3,-1
 139 101 l 1,4,-1
 133 101 l 1,5,-1
 134 107 l 1,6,-1
 189 482 l 1,7,-1
 190 486 l 1,8,-1
 194 486 l 1,9,-1
 287 486 l 1,10,-1
 294 486 l 1,11,-1
 292 480 l 1,0,-1
90 -51 m 0,12,13
 71 -34 71 -34 71 -9 c 256,14,15
 71 16 71 16 90 34 c 0,16,17
 108 51 108 51 132 51 c 0,18,19
 137 51 137 51 142 50 c 0,20,21
 146 50 146 50 151 48 c 0,22,23
 155 47 155 47 159 45 c 256,24,25
 163 43 163 43 167 40 c 256,26,27
 171 37 171 37 175 34 c 0,28,29
 183 25 183 25 188 14 c 0,30,31
 192 3 192 3 192 -9 c 0,32,33
 192 -34 192 -34 175 -52 c 0,34,35
 157 -69 157 -69 133 -69 c 0,36,37
 108 -69 108 -69 90 -51 c 0,12,13
EndSplineSet
EndChar

StartChar: quotedbl
Encoding: 34 34 5
Width: 355
GlyphClass: 2
Flags: W
LayerCount: 2
Fore
SplineSet
65 461 m 1,0,-1
 41 598 l 1,1,-1
 41 599 l 1,2,-1
 41 716 l 1,3,-1
 41 721 l 1,4,-1
 46 721 l 1,5,-1
 146 721 l 1,6,-1
 151 721 l 1,7,-1
 151 716 l 1,8,-1
 151 599 l 1,9,-1
 151 598 l 1,10,-1
 129 461 l 1,11,-1
 128 457 l 1,12,-1
 124 457 l 1,13,-1
 70 457 l 1,14,-1
 66 457 l 1,15,-1
 65 461 l 1,0,-1
227 461 m 1,16,-1
 203 598 l 1,17,-1
 203 599 l 1,18,-1
 203 716 l 1,19,-1
 203 721 l 1,20,-1
 208 721 l 1,21,-1
 308 721 l 1,22,-1
 313 721 l 1,23,-1
 313 716 l 1,24,-1
 313 599 l 1,25,-1
 313 598 l 1,26,-1
 290 461 l 1,27,-1
 289 457 l 1,28,-1
 285 457 l 1,29,-1
 232 457 l 1,30,-1
 228 457 l 1,31,-1
 227 461 l 1,16,-1
EndSplineSet
EndChar

StartChar: numbersign
Encoding: 35 35 6
Width: 556
GlyphClass: 2
Flags: W
LayerCount: 2
Fore
SplineSet
45 -11 m 1,0,-1
 87 191 l 1,1,-1
 10 191 l 1,2,-1
 5 191 l 1,3,-1
 5 196 l 1,4,-1
 5 269 l 1,5,-1
 5 274 l 1,6,-1
 10 274 l 1,7,-1
 103 274 l 1,8,-1
 138 441 l 1,9,-1
 10 441 l 1,10,-1
 5 441 l 1,11,-1
 5 446 l 1,12,-1
 5 519 l 1,13,-1
 5 524 l 1,14,-1
 10 524 l 1,15,-1
 154 524 l 1,16,-1
 196 729 l 1,17,-1
 197 733 l 1,18,-1
 201 733 l 1,19,-1
 274 733 l 1,20,-1
 280 733 l 1,21,-1
 279 727 l 1,22,-1
 237 524 l 1,23,-1
 381 524 l 1,24,-1
 423 729 l 1,25,-1
 424 733 l 1,26,-1
 428 733 l 1,27,-1
 501 733 l 1,28,-1
 507 733 l 1,29,-1
 506 727 l 1,30,-1
 465 524 l 1,31,-1
 543 524 l 1,32,-1
 548 524 l 1,33,-1
 548 519 l 1,34,-1
 548 446 l 1,35,-1
 548 441 l 1,36,-1
 543 441 l 1,37,-1
 448 441 l 1,38,-1
 414 274 l 1,39,-1
 543 274 l 1,40,-1
 548 274 l 1,41,-1
 548 269 l 1,42,-1
 548 196 l 1,43,-1
 548 191 l 1,44,-1
 543 191 l 1,45,-1
 397 191 l 1,46,-1
 356 -13 l 1,47,-1
 355 -17 l 1,48,-1
 351 -17 l 1,49,-1
 277 -17 l 1,50,-1
 271 -17 l 1,51,-1
 272 -11 l 1,52,-1
 313 191 l 1,53,-1
 170 191 l 1,54,-1
 129 -13 l 1,55,-1
 128 -17 l 1,56,-1
 124 -17 l 1,57,-1
 50 -17 l 1,58,-1
 44 -17 l 1,59,-1
 45 -11 l 1,0,-1
187 274 m 1,60,-1
 330 274 l 1,61,-1
 365 441 l 1,62,-1
 221 441 l 1,63,-1
 187 274 l 1,60,-1
EndSplineSet
EndChar

StartChar: dollar
Encoding: 36 36 7
Width: 576
GlyphClass: 2
Flags: W
LayerCount: 2
Fore
SplineSet
154 144 m 128,-1,1
 161 129 161 129 170 117 c 0,2,3
 204 76 204 76 253 68 c 1,4,-1
 253 335 l 1,5,6
 227 338 227 338 201 348 c 0,7,8
 172 359 172 359 141 376 c 0,9,10
 103 398 103 398 74 442 c 1,11,-1
 74 443 l 1,12,-1
 58 487 l 1,13,-1
 58 487 l 1,14,15
 51 511 51 511 51 538 c 0,16,17
 51 629 51 629 119 692 c 1,18,-1
 119 692 l 1,19,20
 161 727 161 727 253 740 c 1,21,-1
 253 777 l 1,22,-1
 253 782 l 1,23,-1
 258 782 l 1,24,-1
 313 782 l 1,25,-1
 318 782 l 1,26,-1
 318 777 l 1,27,-1
 318 740 l 1,28,29
 353 740 353 740 382 729 c 0,30,31
 398 724 398 724 412 715 c 0,32,33
 427 706 427 706 441 695 c 0,34,35
 497 647 497 647 512 561 c 2,36,-1
 513 556 l 1,37,-1
 508 556 l 1,38,-1
 417 543 l 1,39,-1
 412 542 l 1,40,-1
 411 547 l 2,41,42
 405 595 405 595 379 621 c 2,43,-1
 378 622 l 2,44,45
 358 644 358 644 318 656 c 1,46,-1
 318 415 l 1,47,48
 328 413 328 413 337.5 410.5 c 128,-1,49
 347 408 347 408 355 406 c 128,-1,50
 363 404 363 404 370 402.5 c 128,-1,51
 377 401 377 401 382.5 399 c 128,-1,52
 388 397 388 397 392.5 395.5 c 128,-1,53
 397 394 397 394 400.5 392.5 c 128,-1,54
 404 391 404 391 406 390 c 0,55,56
 427 382 427 382 443 372 c 128,-1,57
 459 362 459 362 473 348 c 0,58,59
 500 321 500 321 514.5 283 c 128,-1,60
 529 245 529 245 529 206 c 0,61,62
 529 113 529 113 470 51 c 0,63,64
 461 41 461 41 450 32 c 128,-1,65
 439 23 439 23 427 14.5 c 128,-1,66
 415 6 415 6 401 0 c 0,67,68
 365 -15 365 -15 326 -15 c 0,69,70
 322 -15 322 -15 318 -15 c 1,71,-1
 318 -98 l 1,72,-1
 318 -103 l 1,73,-1
 313 -103 l 1,74,-1
 258 -103 l 1,75,-1
 253 -103 l 1,76,-1
 253 -98 l 1,77,-1
 253 -15 l 1,78,79
 189 -9 189 -9 148 11 c 0,80,81
 106 33 106 33 71 83 c 0,82,83
 44 127 44 127 36 200 c 1,84,-1
 36 205 l 1,85,-1
 41 205 l 1,86,-1
 129 221 l 1,87,-1
 134 222 l 1,88,-1
 134 217 l 2,89,90
 137 196 137 196 142 177.5 c 128,-1,0
 147 159 147 159 154 144 c 128,-1,1
149 547 m 0,91,92
 149 506 149 506 173 474 c 0,93,94
 195 448 195 448 253 430 c 1,95,-1
 253 661 l 1,96,97
 229 658 229 658 210.5 648 c 128,-1,98
 192 638 192 638 178 622 c 1,99,-1
 178 622 l 1,100,101
 149 592 149 592 149 547 c 0,91,92
318 320 m 1,102,-1
 318 65 l 1,103,104
 365 72 365 72 397 107 c 0,105,106
 429 144 429 144 429 198 c 0,107,108
 429 220 429 220 424 237.5 c 128,-1,109
 419 255 419 255 408 268 c 0,110,111
 398 281 398 281 375 294 c 128,-1,112
 352 307 352 307 318 320 c 1,102,-1
EndSplineSet
EndChar

StartChar: percent
Encoding: 37 37 8
Width: 909
GlyphClass: 2
Flags: W
LayerCount: 2
Fore
SplineSet
61 493.5 m 128,-1,1
 58 515 58 515 58 541 c 0,2,3
 58 618 58 618 97 673 c 0,4,5
 137 728 137 728 214 728 c 0,6,7
 283 728 283 728 330.5 678.5 c 128,-1,8
 378 629 378 629 378 536 c 0,9,10
 378 507 378 507 372.5 481.5 c 128,-1,11
 367 456 367 456 357 434.5 c 128,-1,12
 347 413 347 413 331 396 c 0,13,14
 308 371 308 371 278.5 358 c 128,-1,15
 249 345 249 345 215 345 c 0,16,17
 149 345 149 345 102 394 c 0,18,19
 83 417 83 417 69 455 c 0,20,0
 64 472 64 472 61 493.5 c 128,-1,1
150 477 m 128,-1,22
 155 454 155 454 165 440 c 0,23,24
 175 428 175 428 188 421.5 c 128,-1,25
 201 415 201 415 217 415 c 0,26,27
 248 415 248 415 269 442 c 0,28,29
 290 470 290 470 290 539 c 0,30,31
 290 603 290 603 269 631 c 0,32,33
 249 657 249 657 217 657 c 0,34,35
 201 657 201 657 188.5 651 c 128,-1,36
 176 645 176 645 165 632 c 0,37,38
 156 620 156 620 150.5 595 c 128,-1,39
 145 570 145 570 145 533 c 0,40,21
 145 500 145 500 150 477 c 128,-1,22
208 -26 m 1,41,-1
 212 -19 l 1,42,-1
 611 725 l 1,43,-1
 613 728 l 1,44,-1
 616 728 l 1,45,-1
 688 728 l 1,46,-1
 697 728 l 1,47,-1
 693 721 l 1,48,-1
 296 -23 l 1,49,-1
 294 -26 l 1,50,-1
 291 -26 l 1,51,-1
 217 -26 l 1,52,-1
 208 -26 l 1,41,-1
528 145.5 m 128,-1,54
 527 157 527 157 527 170 c 0,55,56
 527 248 527 248 568 302 c 0,57,58
 608 357 608 357 686 357 c 0,59,60
 721 357 721 357 749.5 344.5 c 128,-1,61
 778 332 778 332 802 308 c 0,62,63
 848 259 848 259 848 166 c 0,64,65
 848 136 848 136 843 110.5 c 128,-1,66
 838 85 838 85 827.5 63.5 c 128,-1,67
 817 42 817 42 801.5 25 c 128,-1,68
 786 8 786 8 768 -3.5 c 128,-1,69
 750 -15 750 -15 730 -20 c 0,70,71
 709 -26 709 -26 686 -26 c 0,72,73
 620 -26 620 -26 572 23 c 0,74,75
 552 46 552 46 539 84 c 0,76,77
 534 101 534 101 530 123 c 0,78,53
 529 134 529 134 528 145.5 c 128,-1,54
739 261 m 1,79,80
 719 287 719 287 688 287 c 0,81,82
 673 287 673 287 660.5 280.5 c 128,-1,83
 648 274 648 274 637 261 c 0,84,85
 616 235 616 235 616 162 c 0,86,87
 616 141 616 141 618.5 123.5 c 128,-1,88
 621 106 621 106 625.5 92.5 c 128,-1,89
 630 79 630 79 637 69 c 1,90,91
 633 67 633 67 650 59 c 0,92,93
 678 45 678 45 688 44 c 0,94,95
 719 44 719 44 740 70 c 256,96,97
 761 96 761 96 761 168 c 0,98,99
 761 235 761 235 739 260 c 1,100,-1
 739 261 l 1,79,80
EndSplineSet
EndChar

StartChar: ampersand
Encoding: 38 38 9
Width: 667
GlyphClass: 2
Flags: W
LayerCount: 2
Fore
SplineSet
475 76 m 1,0,1
 453 53 453 53 431 36 c 0,2,3
 408 19 408 19 383 7 c 0,4,5
 356 -5 356 -5 328 -11 c 256,6,7
 300 -17 300 -17 270 -17 c 0,8,9
 157 -17 157 -17 91 59 c 0,10,11
 38 121 38 121 38 197 c 0,12,13
 38 214 38 214 41 230 c 0,14,15
 43 246 43 246 49 262 c 0,16,17
 54 277 54 277 62 292 c 0,18,19
 70 306 70 306 81 320 c 0,20,21
 122 373 122 373 205 413 c 1,22,23
 184 438 184 438 169 459 c 0,24,25
 154 479 154 479 145 497 c 1,26,-1
 144 497 l 1,27,28
 128 536 128 536 128 568 c 0,29,30
 128 590 128 590 134 611 c 0,31,32
 140 631 140 631 151 650 c 0,33,34
 163 668 163 668 180 684 c 0,35,36
 206 709 206 709 239 721 c 256,37,38
 272 733 272 733 311 733 c 0,39,40
 347 733 347 733 377 721 c 0,41,42
 408 710 408 710 432 687 c 0,43,44
 457 664 457 664 470 635 c 0,45,46
 482 607 482 607 482 575 c 0,47,48
 482 472 482 472 350 399 c 1,49,-1
 469 246 l 1,50,51
 486 283 486 283 499 338 c 2,52,-1
 500 343 l 1,53,-1
 505 342 l 1,54,-1
 597 322 l 1,55,-1
 602 321 l 1,56,-1
 601 316 l 1,57,58
 577 224 577 224 538 163 c 1,59,60
 585 102 585 102 647 57 c 2,61,-1
 651 54 l 1,62,-1
 648 50 l 1,63,-1
 589 -20 l 1,64,-1
 586 -24 l 1,65,-1
 582 -21 l 1,66,67
 532 11 532 11 475 76 c 1,0,1
261 506 m 1,68,-1
 297 464 l 1,69,70
 348 494 348 494 365 518 c 0,71,72
 382 544 382 544 382 573 c 0,73,74
 382 607 382 607 360 629 c 0,75,76
 339 651 339 651 306 651 c 0,77,78
 301 651 301 651 296 650 c 0,79,80
 290 650 290 650 286 649 c 0,81,82
 281 647 281 647 276 646 c 0,83,84
 272 644 272 644 267 641 c 0,85,86
 263 639 263 639 259 636 c 256,87,88
 255 633 255 633 251 629 c 0,89,90
 228 608 228 608 228 577 c 2,91,-1
 229 562 l 1,92,-1
 235 547 l 1,93,-1
 245 527 l 1,94,-1
 261 506 l 1,68,-1
414 154 m 1,95,-1
 258 347 l 1,96,97
 190 306 190 306 167 271 c 0,98,99
 156 255 156 255 150 237 c 0,100,101
 146 228 146 228 145 219 c 0,102,103
 143 211 143 211 143 203 c 0,104,105
 143 161 143 161 177 115 c 0,106,107
 193 92 193 92 217 81 c 0,108,109
 240 70 240 70 271 70 c 0,110,111
 309 70 309 70 349 93 c 0,112,113
 368 104 368 104 385 120 c 0,114,115
 401 135 401 135 414 154 c 1,95,-1
EndSplineSet
EndChar

StartChar: quotesingle
Encoding: 39 39 10
Width: 191
GlyphClass: 2
Flags: W
LayerCount: 2
Fore
SplineSet
61 461 m 1,0,-1
 39 595 l 1,1,-1
 39 596 l 1,2,-1
 39 716 l 1,3,-1
 39 721 l 1,4,-1
 44 721 l 1,5,-1
 144 721 l 1,6,-1
 149 721 l 1,7,-1
 149 716 l 1,8,-1
 149 596 l 1,9,-1
 149 595 l 1,10,-1
 126 461 l 1,11,-1
 125 457 l 1,12,-1
 121 457 l 1,13,-1
 66 457 l 1,14,-1
 62 457 l 1,15,-1
 61 461 l 1,0,-1
EndSplineSet
EndChar

StartChar: parenleft
Encoding: 40 40 11
Width: 280
GlyphClass: 2
Flags: W
LayerCount: 2
Fore
SplineSet
389 613 m 2,0,1
 342 586 342 586 303 545 c 0,2,3
 265 505 265 505 234 451 c 0,4,5
 172 344 172 344 172 225 c 0,6,7
 172 60 172 60 251 -40 c 2,8,-1
 254 -44 l 1,9,-1
 250 -47 l 1,10,-1
 218 -71 l 1,11,-1
 214 -74 l 1,12,-1
 211 -70 l 1,13,14
 89 66 89 66 89 231 c 0,15,16
 89 394 89 394 200 524 c 0,17,18
 272 609 272 609 368 659 c 1,19,-1
 372 662 l 1,20,-1
 375 657 l 1,21,-1
 391 619 l 1,22,-1
 392 615 l 1,23,-1
 389 613 l 2,0,1
EndSplineSet
EndChar

StartChar: parenright
Encoding: 41 41 12
Width: 371
GlyphClass: 2
Flags: W
LayerCount: 2
Fore
SplineSet
334 354 m 0,0,1
 334 191 334 191 223 61 c 0,2,3
 149 -27 149 -27 55 -73 c 1,4,-1
 51 -76 l 1,5,-1
 48 -71 l 1,6,-1
 31 -34 l 1,7,-1
 30 -30 l 1,8,-1
 33 -28 l 2,9,10
 131 37 131 37 188 131 c 0,11,12
 248 236 248 236 248 360 c 0,13,14
 248 530 248 530 172 625 c 2,15,-1
 169 629 l 1,16,-1
 173 632 l 1,17,-1
 207 657 l 1,18,-1
 211 660 l 1,19,-1
 214 656 l 1,20,21
 334 522 334 522 334 354 c 0,0,1
EndSplineSet
EndChar

StartChar: asterisk
Encoding: 42 42 13
Width: 389
GlyphClass: 2
Flags: W
LayerCount: 2
Fore
SplineSet
229 670 m 1,0,-1
 222 615 l 1,1,-1
 265 635 l 1,2,-1
 265 635 l 1,3,-1
 330 659 l 1,4,-1
 335 661 l 1,5,-1
 337 655 l 1,6,-1
 359 585 l 1,7,-1
 360 581 l 1,8,-1
 355 579 l 2,9,10
 344 576 344 576 333 573 c 256,11,12
 322 570 322 570 310 567 c 0,13,14
 299 564 299 564 288 562 c 0,15,16
 276 560 276 560 265 558 c 0,17,18
 254 555 254 555 243 554 c 1,19,20
 275 525 275 525 320 468 c 2,21,-1
 323 464 l 1,22,-1
 319 461 l 1,23,-1
 261 419 l 1,24,-1
 257 416 l 1,25,-1
 254 420 l 2,26,27
 230 451 230 451 191 518 c 1,28,29
 156 453 156 453 131 420 c 2,30,-1
 128 416 l 1,31,-1
 124 419 l 1,32,-1
 67 461 l 1,33,-1
 63 464 l 1,34,-1
 66 468 l 2,35,36
 96 505 96 505 112 523 c 0,37,38
 125 538 125 538 141 554 c 1,39,40
 121 558 121 558 103 562 c 0,41,42
 84 566 84 566 66 570 c 0,43,44
 47 575 47 575 30 579 c 2,45,-1
 25 581 l 1,46,-1
 26 586 l 1,47,-1
 49 656 l 1,48,-1
 51 660 l 1,49,-1
 56 659 l 1,50,51
 122 636 122 636 161 615 c 1,52,-1
 152 728 l 1,53,-1
 152 733 l 1,54,-1
 157 733 l 1,55,-1
 228 733 l 1,56,-1
 233 733 l 1,57,-1
 233 728 l 1,58,-1
 233 694 l 1,59,-1
 233 693 l 1,60,-1
 229 670 l 1,0,-1
EndSplineSet
EndChar

StartChar: plus
Encoding: 43 43 14
Width: 584
GlyphClass: 2
Flags: W
LayerCount: 2
Fore
SplineSet
245 116 m 1,0,-1
 245 307 l 1,1,-1
 56 307 l 1,2,-1
 51 307 l 1,3,-1
 51 312 l 1,4,-1
 51 394 l 1,5,-1
 51 399 l 1,6,-1
 56 399 l 1,7,-1
 245 399 l 1,8,-1
 245 589 l 1,9,-1
 245 594 l 1,10,-1
 250 594 l 1,11,-1
 333 594 l 1,12,-1
 338 594 l 1,13,-1
 338 589 l 1,14,-1
 338 399 l 1,15,-1
 528 399 l 1,16,-1
 533 399 l 1,17,-1
 533 394 l 1,18,-1
 533 312 l 1,19,-1
 533 307 l 1,20,-1
 528 307 l 1,21,-1
 338 307 l 1,22,-1
 338 116 l 1,23,-1
 338 111 l 1,24,-1
 333 111 l 1,25,-1
 250 111 l 1,26,-1
 245 111 l 1,27,-1
 245 116 l 1,0,-1
EndSplineSet
EndChar

StartChar: comma
Encoding: 44 44 15
Width: 235
GlyphClass: 2
Flags: W
LayerCount: 2
Fore
SplineSet
148 43 m 0,0,1
 148 -42 148 -42 35 -95 c 1,2,-1
 30 -97 l 1,3,-1
 28 -92 l 1,4,-1
 13 -56 l 1,5,-1
 11 -50 l 1,6,-1
 17 -49 l 2,7,8
 50 -44 50 -44 87 -4 c 1,9,10
 32 13 32 13 32 60 c 0,11,12
 32 120 32 120 88 120 c 0,13,14
 148 120 148 120 148 43 c 0,0,1
EndSplineSet
EndChar

StartChar: hyphen
Encoding: 45 45 16
Width: 333
GlyphClass: 2
Flags: W
LayerCount: 2
Fore
SplineSet
27 215 m 1,0,-1
 27 303 l 1,1,-1
 27 308 l 1,2,-1
 32 308 l 1,3,-1
 302 308 l 1,4,-1
 307 308 l 1,5,-1
 307 303 l 1,6,-1
 307 215 l 1,7,-1
 307 210 l 1,8,-1
 302 210 l 1,9,-1
 32 210 l 1,10,-1
 27 210 l 1,11,-1
 27 215 l 1,0,-1
EndSplineSet
EndChar

StartChar: period
Encoding: 46 46 17
Width: 255
GlyphClass: 2
Flags: W
LayerCount: 2
Fore
SplineSet
168 62 m 0,0,1
 168 37 168 37 149 16 c 1,2,-1
 149 15 l 1,3,-1
 148 15 l 1,4,5
 128 -3 128 -3 102 -3 c 0,6,7
 74 -3 74 -3 55 15 c 2,8,-1
 54 16 l 2,9,10
 36 36 36 36 36 62 c 0,11,12
 36 90 36 90 55 109 c 256,13,14
 74 128 74 128 101 128 c 0,15,16
 109 128 109 128 117 126 c 0,17,18
 125 123 125 123 133 119 c 0,19,20
 140 115 140 115 147 108 c 0,21,22
 154 102 154 102 159 94 c 0,23,24
 163 87 163 87 166 79 c 0,25,26
 168 71 168 71 168 62 c 0,0,1
EndSplineSet
EndChar

StartChar: slash
Encoding: 47 47 18
Width: 213
GlyphClass: 2
Flags: W
LayerCount: 2
Fore
SplineSet
318 665 m 1,0,-1
 81 -119 l 1,1,-1
 80 -123 l 1,2,-1
 76 -123 l 1,3,-1
 20 -123 l 1,4,-1
 13 -123 l 1,5,-1
 15 -117 l 1,6,-1
 249 667 l 1,7,-1
 250 671 l 1,8,-1
 254 671 l 1,9,-1
 313 671 l 1,10,-1
 320 671 l 1,11,-1
 318 665 l 1,0,-1
EndSplineSet
EndChar

StartChar: zero
Encoding: 48 48 19
Width: 488
GlyphClass: 2
Flags: W
LayerCount: 2
Fore
SplineSet
452 490 m 0,0,1
 480 442 480 442 480 369 c 0,2,3
 480 237 480 237 428 128 c 0,4,5
 366 0 366 0 251 0 c 0,6,7
 176 0 176 0 130 55 c 0,8,9
 80 115 80 115 80 212 c 0,10,11
 80 337 80 337 133 439 c 0,12,13
 197 566 197 566 314 566 c 0,14,15
 409 566 409 566 452 490 c 0,0,1
367 230 m 0,16,17
 394 341 394 341 394 414 c 0,18,19
 394 452 394 452 376 478 c 0,20,21
 355 506 355 506 314 506 c 0,22,23
 244 506 244 506 201 374 c 0,24,25
 169 270 169 270 169 181 c 0,26,27
 169 60 169 60 244 60 c 0,28,29
 323 60 323 60 367 230 c 0,16,17
EndSplineSet
EndChar

StartChar: one
Encoding: 49 49 20
Width: 417
GlyphClass: 2
Flags: W
LayerCount: 2
Fore
SplineSet
341 548 m 2,0,1
 341 494 341 494 245 83 c 0,2,3
 244 79 244 79 244 75 c 1,4,5
 244 75 244 75 244 75 c 1,6,7
 244 54 244 54 269 54 c 2,8,-1
 340 54 l 1,9,-1
 345 54 l 1,10,-1
 345 49 l 1,11,-1
 345 6 l 1,12,-1
 345 0 l 1,13,-1
 340 0 l 1,14,-1
 46 1 l 1,15,-1
 41 1 l 1,16,-1
 41 6 l 1,17,-1
 41 42 l 1,18,-1
 41 47 l 1,19,-1
 46 47 l 1,20,-1
 90 47 l 2,21,22
 96 47 96 47 101.5 48 c 128,-1,23
 107 49 107 49 112.5 51 c 128,-1,24
 118 53 118 53 124 56 c 0,25,26
 148 66 148 66 153 90 c 2,27,-1
 229 472 l 1,28,-1
 116 472 l 1,29,-1
 111 473 l 1,30,-1
 111 478 l 1,31,-1
 112 514 l 1,32,-1
 112 519 l 1,33,-1
 117 519 l 2,34,35
 130 519 130 519 162 522 c 0,36,37
 193 524 193 524 233 529 c 1,38,-1
 335 553 l 1,39,-1
 341 554 l 1,40,-1
 341 548 l 2,0,1
EndSplineSet
EndChar

StartChar: two
Encoding: 50 50 21
Width: 501
GlyphClass: 2
Flags: W
LayerCount: 2
Fore
SplineSet
417 518 m 0,0,1
 465 482 465 482 465 421 c 0,2,3
 465 358 465 358 419 307 c 0,4,5
 394 281 394 281 318 230 c 0,6,7
 165 129 165 129 150 96 c 1,8,-1
 347 95 l 2,9,10
 378 95 378 95 384 122 c 2,11,-1
 401 198 l 1,12,-1
 402 202 l 1,13,-1
 406 202 l 1,14,-1
 442 202 l 1,15,-1
 448 202 l 1,16,-1
 447 196 l 1,17,-1
 414 4 l 1,18,-1
 413 0 l 1,19,-1
 409 0 l 1,20,-1
 53 0 l 1,21,-1
 48 0 l 1,22,-1
 48 5 l 2,23,24
 48 67 48 67 130 147 c 1,25,-1
 282 281 l 1,26,27
 362 358 362 358 362 415 c 0,28,29
 362 444 362 444 340 465 c 0,30,31
 316 486 316 486 284 486 c 0,32,33
 269 486 269 486 255.5 481.5 c 128,-1,34
 242 477 242 477 230 468 c 128,-1,35
 218 459 218 459 212 449 c 128,-1,36
 206 439 206 439 206 428 c 2,37,-1
 207 421 l 1,38,-1
 220 423 l 1,39,-1
 221 423 l 2,40,41
 233 423 233 423 244 419.5 c 128,-1,42
 255 416 255 416 264 409 c 0,43,44
 284 395 284 395 284 371 c 0,45,46
 284 345 284 345 265 328 c 1,47,-1
 265 328 l 1,48,49
 255 321 255 321 244 317.5 c 128,-1,50
 233 314 233 314 221 314 c 0,51,52
 187 314 187 314 165 340 c 1,53,-1
 165 341 l 1,54,55
 147 366 147 366 147 404 c 0,56,57
 147 464 147 464 202 509 c 0,58,59
 253 548 253 548 314 548 c 0,60,61
 374 548 374 548 417 518 c 0,0,1
EndSplineSet
EndChar

StartChar: three
Encoding: 51 51 22
Width: 473
GlyphClass: 2
Flags: W
LayerCount: 2
Fore
SplineSet
160 97 m 1,0,1
 151 90 151 90 144 84 c 2,2,-1
 141 81 l 1,3,4
 142 80 142 80 143 78.5 c 128,-1,5
 144 77 144 77 145.5 75.5 c 128,-1,6
 147 74 147 74 149.5 72 c 128,-1,7
 152 70 152 70 154.5 68 c 128,-1,8
 157 66 157 66 161 65 c 0,9,10
 167 62 167 62 173 60.5 c 128,-1,11
 179 59 179 59 185.5 57.5 c 128,-1,12
 192 56 192 56 198.5 55.5 c 128,-1,13
 205 55 205 55 212 55 c 0,14,15
 255 55 255 55 295 98 c 256,16,17
 335 141 335 141 335 200 c 0,18,19
 335 276 335 276 268 276 c 2,20,-1
 215 276 l 1,21,-1
 210 276 l 1,22,-1
 210 281 l 1,23,-1
 210 318 l 1,24,-1
 210 323 l 1,25,-1
 215 323 l 1,26,-1
 265 323 l 2,27,28
 289 323 289 323 332 352 c 0,29,30
 383 389 383 389 383 438 c 0,31,32
 383 497 383 497 313 497 c 0,33,34
 300 497 300 497 289.5 493.5 c 128,-1,35
 279 490 279 490 270 483 c 0,36,37
 264 478 264 478 260 472 c 1,38,39
 268 468 268 468 276 459 c 0,40,41
 281 453 281 453 284.5 446 c 128,-1,42
 288 439 288 439 288 432 c 1,43,-1
 288 432 l 1,44,45
 288 421 288 421 284.5 411.5 c 128,-1,46
 281 402 281 402 273 395 c 128,-1,47
 265 388 265 388 255.5 384 c 128,-1,48
 246 380 246 380 234 380 c 0,49,50
 209 380 209 380 189 396 c 0,51,52
 170 412 170 412 170 437 c 0,53,54
 170 447 170 447 172 456 c 128,-1,55
 174 465 174 465 179 474 c 0,56,57
 183 483 183 483 189.5 491.5 c 128,-1,58
 196 500 196 500 205 508 c 0,59,60
 228 528 228 528 258 538.5 c 128,-1,61
 288 549 288 549 331 549 c 0,62,63
 476 549 476 549 476 440 c 0,64,65
 476 415 476 415 466.5 393.5 c 128,-1,66
 457 372 457 372 439 353 c 0,67,68
 428 341 428 341 414 332 c 128,-1,69
 400 323 400 323 384 315.5 c 128,-1,70
 368 308 368 308 349 303 c 1,71,72
 396 283 396 283 419 254 c 128,-1,73
 442 225 442 225 442 185 c 0,74,75
 442 128 442 128 388 70 c 0,76,77
 321 2 321 2 216 2 c 0,78,79
 145 2 145 2 101.5 43 c 128,-1,80
 58 84 58 84 58 131 c 0,81,82
 58 205 58 205 131 205 c 0,83,84
 133 205 133 205 135 205 c 128,-1,85
 137 205 137 205 139 204.5 c 128,-1,86
 141 204 141 204 143 203.5 c 128,-1,87
 145 203 145 203 146.5 202 c 128,-1,88
 148 201 148 201 150 200 c 128,-1,89
 152 199 152 199 154 198 c 128,-1,90
 156 197 156 197 158 195.5 c 128,-1,91
 160 194 160 194 161.5 192.5 c 128,-1,92
 163 191 163 191 165 189 c 0,93,94
 174 181 174 181 179 171 c 0,95,96
 183 161 183 161 183 149 c 0,97,98
 183 117 183 117 160 97 c 1,99,-1
 160 97 l 1,0,1
EndSplineSet
EndChar

StartChar: four
Encoding: 52 52 23
Width: 523
GlyphClass: 2
Flags: W
LayerCount: 2
Fore
SplineSet
376 145 m 1,0,-1
 366 91 l 1,1,-1
 364 75 l 2,2,3
 364 62 364 62 369 57 c 128,-1,4
 374 52 374 52 385 52 c 2,5,-1
 440 52 l 1,6,-1
 446 52 l 1,7,-1
 445 46 l 1,8,-1
 438 5 l 1,9,-1
 437 1 l 1,10,-1
 433 1 l 1,11,-1
 137 1 l 1,12,-1
 131 1 l 1,13,-1
 132 7 l 1,14,-1
 139 50 l 1,15,-1
 140 54 l 1,16,-1
 144 54 l 1,17,-1
 226 54 l 2,18,19
 237 54 237 54 244 57 c 128,-1,20
 251 60 251 60 256 66 c 1,21,-1
 256 66 l 1,22,23
 261 72 261 72 265 98 c 2,24,-1
 274 145 l 1,25,-1
 68 146 l 1,26,-1
 62 146 l 1,27,-1
 63 152 l 1,28,-1
 69 191 l 1,29,-1
 69 192 l 1,30,-1
 70 194 l 1,31,-1
 409 546 l 1,32,-1
 411 548 l 1,33,-1
 413 548 l 1,34,-1
 452 548 l 1,35,-1
 458 548 l 1,36,-1
 457 542 l 1,37,-1
 387 193 l 1,38,-1
 478 192 l 1,39,-1
 484 192 l 1,40,-1
 483 186 l 1,41,-1
 475 150 l 1,42,-1
 474 146 l 1,43,-1
 470 146 l 1,44,-1
 376 145 l 1,0,-1
284 191 m 1,45,-1
 322 386 l 1,46,-1
 133 192 l 1,47,-1
 284 191 l 1,45,-1
EndSplineSet
EndChar

StartChar: five
Encoding: 53 53 24
Width: 487
GlyphClass: 2
Flags: W
LayerCount: 2
Fore
SplineSet
213 554 m 1,0,-1
 275 526 l 2,1,2
 305 514 305 514 340 514 c 0,3,4
 372 514 372 514 410 529 c 2,5,-1
 465 552 l 1,6,-1
 468 553 l 1,7,-1
 471 550 l 1,8,-1
 494 527 l 1,9,-1
 497 524 l 1,10,-1
 494 521 l 1,11,12
 429 441 429 441 315 441 c 0,13,14
 281 441 281 441 231 452 c 1,15,-1
 217 371 l 1,16,-1
 233 378 l 2,17,18
 235 378 235 378 237 379 c 128,-1,19
 239 380 239 380 241.5 381 c 128,-1,20
 244 382 244 382 246 382.5 c 128,-1,21
 248 383 248 383 250.5 383.5 c 128,-1,22
 253 384 253 384 255.5 384.5 c 128,-1,23
 258 385 258 385 260 386 c 0,24,25
 275 389 275 389 293 389 c 0,26,27
 330 389 330 389 361 378 c 0,28,29
 390 366 390 366 414 343 c 0,30,31
 429 328 429 328 439.5 310 c 128,-1,32
 450 292 450 292 455 272 c 128,-1,33
 460 252 460 252 460 230 c 0,34,35
 460 149 460 149 407 82 c 0,36,37
 340 0 340 0 224 0 c 0,38,39
 160 0 160 0 116 39 c 0,40,41
 72 79 72 79 72 124 c 0,42,43
 72 139 72 139 76 152 c 128,-1,44
 80 165 80 165 89 176 c 0,45,46
 106 198 106 198 135 198 c 0,47,48
 155 198 155 198 172 184 c 0,49,50
 190 169 190 169 190 145 c 0,51,52
 190 136 190 136 188 128.5 c 128,-1,53
 186 121 186 121 183 115 c 128,-1,54
 180 109 180 109 174.5 104 c 128,-1,55
 169 99 169 99 162.5 95 c 128,-1,56
 156 91 156 91 148 88 c 1,57,58
 168 67 168 67 173 64 c 1,59,-1
 173 64 l 1,60,61
 191 51 191 51 217 51 c 0,62,63
 276 51 276 51 321 122 c 0,64,65
 359 186 359 186 359 246 c 0,66,67
 359 337 359 337 277 337 c 0,68,69
 271 337 271 337 266 336.5 c 128,-1,70
 261 336 261 336 256.5 335.5 c 128,-1,71
 252 335 252 335 247.5 333.5 c 128,-1,72
 243 332 243 332 238.5 330.5 c 128,-1,73
 234 329 234 329 230.5 327 c 128,-1,74
 227 325 227 325 223.5 322.5 c 128,-1,75
 220 320 220 320 216.5 317 c 128,-1,76
 213 314 213 314 210.5 310.5 c 128,-1,77
 208 307 208 307 205 303 c 0,78,79
 192 284 192 284 189 259 c 2,80,-1
 188 255 l 1,81,-1
 184 255 l 1,82,-1
 147 255 l 1,83,-1
 141 255 l 1,84,-1
 142 261 l 1,85,-1
 206 551 l 1,86,-1
 207 557 l 1,87,-1
 213 554 l 1,0,-1
EndSplineSet
EndChar

StartChar: six
Encoding: 54 54 25
Width: 487
GlyphClass: 2
Flags: W
LayerCount: 2
Fore
SplineSet
435 531 m 0,0,1
 478 507 478 507 478 459 c 0,2,3
 478 404 478 404 431 404 c 0,4,5
 374 404 374 404 374 448 c 0,6,7
 374 472 374 472 387 486 c 1,8,9
 380 495 380 495 346 495 c 0,10,11
 252 495 252 495 210 344 c 1,12,13
 248 367 248 367 287 367 c 0,14,15
 368 367 368 367 410 322 c 0,16,17
 447 280 447 280 447 216 c 0,18,19
 447 123 447 123 391 63 c 0,20,21
 334 2 334 2 251 2 c 0,22,23
 162 2 162 2 117 66 c 0,24,25
 99 92 99 92 89 128 c 128,-1,26
 79 164 79 164 79 206 c 0,27,28
 79 347 79 347 154 449 c 0,29,30
 233 551 233 551 345 551 c 0,31,32
 400 551 400 551 435 531 c 0,0,1
314 111 m 0,33,34
 338 161 338 161 338 222 c 0,35,36
 338 314 338 314 274 314 c 0,37,38
 225 314 225 314 187 261 c 1,39,40
 183 245 183 245 178 219 c 0,41,42
 174 192 174 192 171 171 c 0,43,44
 171 124 171 124 189 90 c 0,45,46
 207 57 207 57 245 57 c 0,47,48
 286 57 286 57 314 111 c 0,33,34
EndSplineSet
EndChar

StartChar: seven
Encoding: 55 55 26
Width: 432
GlyphClass: 2
Flags: W
LayerCount: 2
Fore
SplineSet
478 496 m 1,0,-1
 476 495 l 2,1,2
 448 478 448 478 385 374 c 0,3,4
 350 316 350 316 322.5 262.5 c 128,-1,5
 295 209 295 209 278 161 c 0,6,7
 272 140 272 140 266 93 c 256,8,9
 260 46 260 46 250 29 c 0,10,11
 248 28 248 28 245.5 26 c 128,-1,12
 243 24 243 24 236.5 19 c 128,-1,13
 230 14 230 14 224 11 c 0,14,15
 218 7 218 7 211.5 4 c 128,-1,16
 205 1 205 1 200 1 c 0,17,18
 145 1 145 1 145 61 c 0,19,20
 145 123 145 123 242 274 c 0,21,22
 278 327 278 327 371 446 c 1,23,-1
 206 447 l 2,24,25
 190 447 190 447 180.5 439.5 c 128,-1,26
 171 432 171 432 167 417 c 2,27,-1
 152 355 l 1,28,-1
 151 351 l 1,29,-1
 147 351 l 1,30,-1
 108 351 l 1,31,-1
 102 351 l 1,32,-1
 103 357 l 1,33,-1
 140 534 l 1,34,-1
 141 538 l 1,35,-1
 145 538 l 1,36,-1
 472 538 l 1,37,-1
 478 538 l 1,38,-1
 477 532 l 2,39,40
 477 529 477 529 476.5 526 c 128,-1,41
 476 523 476 523 476 520 c 0,42,43
 476 516 476 516 477 510 c 0,44,45
 478 503 478 503 478 499 c 2,46,-1
 478 496 l 1,0,-1
EndSplineSet
EndChar

StartChar: eight
Encoding: 56 56 27
Width: 483
GlyphClass: 2
Flags: W
LayerCount: 2
Fore
SplineSet
442 538 m 0,0,1
 493 503 493 503 493 445 c 0,2,3
 493 381 493 381 456 342 c 0,4,5
 447 333 447 333 394 298 c 1,6,7
 453 242 453 242 453 177 c 0,8,9
 453 102 453 102 399 52 c 0,10,11
 344 1 344 1 259 1 c 0,12,13
 182 1 182 1 129 45 c 0,14,15
 115 56 115 56 105 68.5 c 128,-1,16
 95 81 95 81 88.5 95 c 128,-1,17
 82 109 82 109 78.5 124.5 c 128,-1,18
 75 140 75 140 75 156 c 0,19,20
 75 220 75 220 130 275 c 0,21,22
 170 313 170 313 211 327 c 1,23,24
 199 340 199 340 190 353 c 0,25,26
 182 365 182 365 176.5 378 c 128,-1,27
 171 391 171 391 168 404 c 128,-1,28
 165 417 165 417 165 429 c 0,29,30
 165 487 165 487 220 530 c 0,31,32
 246 548 246 548 274 557.5 c 128,-1,33
 302 567 302 567 331 567 c 0,34,35
 365 567 365 567 393 560 c 0,36,37
 420 552 420 552 442 538 c 0,0,1
393 372 m 0,38,39
 417 399 417 399 417 438 c 0,40,41
 417 472 417 472 392 493 c 0,42,43
 366 513 366 513 328 513 c 0,44,45
 324 513 324 513 320 512.5 c 128,-1,46
 316 512 316 512 312 511 c 128,-1,47
 308 510 308 510 304 509 c 128,-1,48
 300 508 300 508 296 506 c 128,-1,49
 292 504 292 504 288 502 c 128,-1,50
 284 500 284 500 280.5 497.5 c 128,-1,51
 277 495 277 495 273 492 c 0,52,53
 260 481 260 481 254 469 c 128,-1,54
 248 457 248 457 248 444 c 0,55,56
 248 416 248 416 276 385 c 0,57,58
 285 377 285 377 302 364 c 128,-1,59
 319 351 319 351 342 334 c 1,60,61
 358 344 358 344 365 348 c 0,62,63
 385 362 385 362 393 372 c 0,38,39
357 88 m 0,64,65
 380 110 380 110 380 142 c 0,66,67
 380 153 380 153 377.5 163.5 c 128,-1,68
 375 174 375 174 370 184.5 c 128,-1,69
 365 195 365 195 358 205 c 128,-1,70
 351 215 351 215 341 225 c 2,71,-1
 258 292 l 1,72,73
 218 277 218 277 189 245 c 0,74,75
 156 206 156 206 156 165 c 0,76,77
 156 153 156 153 157.5 143 c 128,-1,78
 159 133 159 133 163 125 c 0,79,80
 169 108 169 108 187 89 c 0,81,82
 202 74 202 74 222 66 c 128,-1,83
 242 58 242 58 265 58 c 0,84,85
 325 58 325 58 357 88 c 0,64,65
EndSplineSet
EndChar

StartChar: nine
Encoding: 57 57 28
Width: 512
GlyphClass: 2
Flags: W
LayerCount: 2
Fore
SplineSet
454 488 m 0,0,1
 497 432 497 432 497 352 c 0,2,3
 497 215 497 215 430 113 c 0,4,5
 352 0 352 0 218 0 c 0,6,7
 195 0 195 0 174.5 6 c 128,-1,8
 154 12 154 12 136 25 c 0,9,10
 99 50 99 50 99 91 c 0,11,12
 99 114 99 114 114 131 c 256,13,14
 129 148 129 148 151 148 c 0,15,16
 161 148 161 148 169.5 144 c 128,-1,17
 178 140 178 140 184 132 c 0,18,19
 197 118 197 118 197 98 c 0,20,21
 197 89 197 89 195.5 80.5 c 128,-1,22
 194 72 194 72 192 66 c 1,23,24
 204 55 204 55 237 55 c 0,25,26
 321 55 321 55 373 214 c 1,27,28
 319 184 319 184 281 184 c 0,29,30
 267 184 267 184 253.5 186 c 128,-1,31
 240 188 240 188 227 192 c 0,32,33
 215 197 215 197 203.5 203 c 128,-1,34
 192 209 192 209 181 218 c 0,35,36
 125 262 125 262 125 341 c 256,37,38
 125 420 125 420 172 480 c 0,39,40
 227 549 227 549 319 549 c 0,41,42
 363 549 363 549 397 534 c 0,43,44
 430 519 430 519 454 488 c 0,0,1
399 337 m 0,45,46
 401 359 401 359 401 380 c 1,47,-1
 401 380 l 1,48,49
 401 492 401 492 324 492 c 0,50,51
 285 492 285 492 257 441 c 0,52,53
 232 392 232 392 232 335 c 0,54,55
 232 239 232 239 298 239 c 0,56,57
 305 239 305 239 312.5 240.5 c 128,-1,58
 320 242 320 242 329 246 c 128,-1,59
 338 250 338 250 348 255 c 0,60,61
 376 271 376 271 393 300 c 0,62,63
 395 307 395 307 396.5 316.5 c 128,-1,64
 398 326 398 326 399 337 c 0,45,46
EndSplineSet
EndChar

StartChar: colon
Encoding: 58 58 29
Width: 365
GlyphClass: 2
Flags: W
LayerCount: 2
Fore
SplineSet
274 327 m 0,0,1
 274 319 274 319 272 311 c 0,2,3
 270 304 270 304 266 297 c 256,4,5
 262 290 262 290 257 284 c 0,6,7
 239 267 239 267 214 267 c 256,8,9
 189 267 189 267 171 286 c 0,10,11
 154 304 154 304 154 327 c 0,12,13
 154 352 154 352 171 370 c 0,14,15
 189 387 189 387 214 387 c 0,16,17
 226 387 226 387 237 383 c 0,18,19
 248 378 248 378 257 370 c 0,20,21
 265 361 265 361 270 350 c 0,22,23
 274 339 274 339 274 327 c 0,0,1
222 42 m 2,24,25
 222 17 222 17 205 -1 c 0,26,27
 196 -9 196 -9 186 -14 c 0,28,29
 176 -18 176 -18 161 -18 c 0,30,31
 155 -18 155 -18 150 -17 c 0,32,33
 144 -16 144 -16 139 -14 c 0,34,35
 134 -11 134 -11 129 -8 c 256,36,37
 124 -5 124 -5 120 -1 c 0,38,39
 111 8 111 8 107 19 c 0,40,41
 102 30 102 30 102 42 c 0,42,43
 102 66 102 66 118 84 c 0,44,45
 135 103 135 103 161 103 c 0,46,47
 186 103 186 103 203 86 c 0,48,49
 219 69 219 69 222 43 c 2,50,-1
 222 42 l 2,24,25
EndSplineSet
EndChar

StartChar: semicolon
Encoding: 59 59 30
Width: 383
GlyphClass: 2
Flags: W
LayerCount: 2
Fore
SplineSet
295 323 m 0,0,1
 295 311 295 311 291 300 c 0,2,3
 286 289 286 289 278 280 c 0,4,5
 269 271 269 271 258 267 c 0,6,7
 247 262 247 262 235 262 c 0,8,9
 209 262 209 262 191 281 c 0,10,11
 174 299 174 299 174 323 c 0,12,13
 174 349 174 349 191 367 c 0,14,15
 209 384 209 384 236 384 c 0,16,17
 240 384 240 384 244 384 c 0,18,19
 248 383 248 383 251 382 c 0,20,21
 255 381 255 381 258 380 c 0,22,23
 262 378 262 378 265 376 c 256,24,25
 268 374 268 374 272 372 c 0,26,27
 275 369 275 369 278 367 c 0,28,29
 286 358 286 358 291 348 c 0,30,31
 295 338 295 338 295 323 c 0,0,1
219 80 m 0,32,33
 238 58 238 58 238 22 c 0,34,35
 238 -36 238 -36 191 -74 c 0,36,37
 188 -76 188 -76 184 -79 c 0,38,39
 180 -81 180 -81 175 -84 c 0,40,41
 169 -87 169 -87 163 -90 c 0,42,43
 157 -94 157 -94 149 -97 c 0,44,45
 142 -101 142 -101 133 -105 c 0,46,47
 125 -108 125 -108 115 -113 c 2,48,-1
 111 -114 l 1,49,-1
 109 -111 l 2,50,51
 107 -108 107 -108 104 -101 c 0,52,53
 102 -95 102 -95 97 -81 c 2,54,-1
 96 -77 l 1,55,-1
 99 -75 l 1,56,-1
 141 -48 l 2,57,58
 163 -33 163 -33 172 -20 c 1,59,60
 160 -18 160 -18 150 -14 c 0,61,62
 139 -10 139 -10 131 -3 c 1,63,-1
 130 -3 l 1,64,65
 110 18 110 18 110 41 c 0,66,67
 110 103 110 103 170 103 c 0,68,69
 187 103 187 103 197 99 c 0,70,71
 203 96 203 96 208 92 c 0,72,73
 214 87 214 87 219 80 c 0,32,33
EndSplineSet
EndChar

StartChar: less
Encoding: 60 60 31
Width: 584
GlyphClass: 2
Flags: W
LayerCount: 2
Fore
SplineSet
50 313 m 1,0,-1
 50 395 l 1,1,-1
 50 398 l 1,2,-1
 53 400 l 1,3,-1
 527 600 l 1,4,-1
 534 603 l 1,5,-1
 534 595 l 1,6,-1
 534 508 l 1,7,-1
 534 505 l 1,8,-1
 531 503 l 1,9,-1
 166 354 l 1,10,-1
 531 203 l 1,11,-1
 534 201 l 1,12,-1
 534 198 l 1,13,-1
 534 110 l 1,14,-1
 534 102 l 1,15,-1
 527 105 l 1,16,-1
 53 308 l 1,17,-1
 50 310 l 1,18,-1
 50 313 l 1,0,-1
EndSplineSet
EndChar

StartChar: equal
Encoding: 61 61 32
Width: 605
GlyphClass: 2
Flags: W
LayerCount: 2
Fore
SplineSet
542 325 m 1,0,-1
 533 265 l 1,1,-1
 532 261 l 1,2,-1
 528 261 l 1,3,-1
 73 261 l 1,4,-1
 67 261 l 1,5,-1
 68 267 l 1,6,-1
 77 327 l 1,7,-1
 78 331 l 1,8,-1
 82 331 l 1,9,-1
 537 331 l 1,10,-1
 543 331 l 1,11,-1
 542 325 l 1,0,-1
521 182 m 1,12,-1
 513 118 l 1,13,-1
 512 114 l 1,14,-1
 508 114 l 1,15,-1
 56 114 l 1,16,-1
 50 114 l 1,17,-1
 51 120 l 1,18,-1
 60 184 l 1,19,-1
 61 188 l 1,20,-1
 65 188 l 1,21,-1
 516 188 l 1,22,-1
 522 188 l 1,23,-1
 521 182 l 1,12,-1
EndSplineSet
EndChar

StartChar: greater
Encoding: 62 62 33
Width: 584
GlyphClass: 2
Flags: W
LayerCount: 2
Fore
SplineSet
531 308 m 1,0,-1
 57 105 l 1,1,-1
 50 102 l 1,2,-1
 50 110 l 1,3,-1
 50 198 l 1,4,-1
 50 201 l 1,5,-1
 53 203 l 1,6,-1
 417 354 l 1,7,-1
 53 503 l 1,8,-1
 50 505 l 1,9,-1
 50 508 l 1,10,-1
 50 595 l 1,11,-1
 50 603 l 1,12,-1
 57 600 l 1,13,-1
 531 400 l 1,14,-1
 534 398 l 1,15,-1
 534 395 l 1,16,-1
 534 313 l 1,17,-1
 534 310 l 1,18,-1
 531 308 l 1,0,-1
EndSplineSet
EndChar

StartChar: question
Encoding: 63 63 34
Width: 386
GlyphClass: 2
Flags: W
LayerCount: 2
Fore
SplineSet
372 338 m 0,0,1
 372 321 372 321 370 306 c 0,2,3
 368 290 368 290 365 277 c 0,4,5
 361 263 361 263 355 251 c 0,6,7
 350 239 350 239 342 229 c 0,8,9
 321 202 321 202 276 180 c 2,10,-1
 218 155 l 1,11,-1
 209 97 l 1,12,-1
 208 93 l 1,13,-1
 204 93 l 1,14,-1
 167 93 l 1,15,-1
 161 93 l 1,16,-1
 162 99 l 1,17,-1
 183 225 l 1,18,-1
 184 228 l 1,19,-1
 187 229 l 1,20,21
 237 241 237 241 274 268 c 0,22,23
 321 302 321 302 321 344 c 0,24,25
 321 403 321 403 244 403 c 0,26,27
 216 403 216 403 189 391 c 256,28,29
 162 379 162 379 136 355 c 2,30,-1
 128 348 l 1,31,-1
 128 359 l 1,32,-1
 128 440 l 1,33,-1
 128 442 l 1,34,-1
 130 444 l 2,35,36
 150 459 150 459 172 467 c 256,37,38
 194 475 194 475 219 475 c 0,39,40
 250 475 250 475 277 466 c 0,41,42
 304 456 304 456 326 437 c 0,43,44
 341 425 341 425 352 409 c 0,45,46
 362 394 362 394 367 376 c 256,47,48
 372 358 372 358 372 338 c 0,0,1
198 -64 m 0,49,50
 181 -83 181 -83 154 -83 c 0,51,52
 142 -83 142 -83 130 -78 c 0,53,54
 119 -74 119 -74 110 -65 c 0,55,56
 91 -46 91 -46 91 -21 c 0,57,58
 91 5 91 5 109 24 c 0,59,60
 128 42 128 42 153 42 c 0,61,62
 166 42 166 42 177 37 c 0,63,64
 188 33 188 33 198 24 c 0,65,66
 207 14 207 14 211 3 c 0,67,68
 216 -8 216 -8 216 -21 c 0,69,70
 216 -46 216 -46 198 -64 c 0,49,50
EndSplineSet
EndChar

StartChar: at
Encoding: 64 64 35
Width: 1015
GlyphClass: 2
Flags: W
LayerCount: 2
Fore
SplineSet
578 510 m 0,0,1
 612 491 612 491 639 452 c 1,2,-1
 653 516 l 1,3,-1
 654 520 l 1,4,-1
 658 520 l 1,5,-1
 745 520 l 1,6,-1
 751 520 l 1,7,-1
 750 514 l 1,8,-1
 680 187 l 1,9,-1
 665 112 l 2,10,11
 665 107 665 107 667 102 c 256,12,13
 669 97 669 97 673 93 c 0,14,15
 683 85 683 85 694 85 c 0,16,17
 706 85 706 85 723 92 c 0,18,19
 739 99 739 99 759 113 c 0,20,21
 785 131 785 131 806 157 c 0,22,23
 828 182 828 182 845 215 c 0,24,25
 878 281 878 281 878 350 c 0,26,27
 878 389 878 389 868 426 c 0,28,29
 857 463 857 463 837 498 c 0,30,31
 795 568 795 568 714 611 c 0,32,33
 673 631 673 631 629 642 c 256,34,35
 585 653 585 653 534 653 c 0,36,37
 496 653 496 653 460 647 c 0,38,39
 425 641 425 641 392 630 c 0,40,41
 358 618 358 618 327 601 c 0,42,43
 235 548 235 548 183 447 c 0,44,45
 157 396 157 396 144 343 c 0,46,47
 131 291 131 291 131 237 c 0,48,49
 131 121 131 121 181 36 c 0,50,51
 231 -50 231 -50 329 -91 c 0,52,53
 428 -133 428 -133 547 -133 c 0,54,55
 610 -133 610 -133 662 -123 c 0,56,57
 714 -112 714 -112 756 -92 c 0,58,59
 799 -71 799 -71 831 -45 c 0,60,61
 864 -20 864 -20 887 12 c 1,62,-1
 888 14 l 1,63,-1
 891 14 l 1,64,-1
 979 14 l 1,65,-1
 987 14 l 1,66,-1
 984 7 l 2,67,68
 958 -47 958 -47 899 -99 c 0,69,70
 840 -150 840 -150 752 -184 c 0,71,72
 714 -197 714 -197 659 -207 c 0,73,74
 647 -209 647 -209 634 -210 c 0,75,76
 622 -212 622 -212 609 -213 c 256,77,78
 596 -214 596 -214 581 -214 c 0,79,80
 566 -215 566 -215 548 -215 c 0,81,82
 438 -215 438 -215 348 -187 c 0,83,84
 302 -173 302 -173 263 -153 c 0,85,86
 224 -132 224 -132 192 -105 c 0,87,88
 127 -50 127 -50 90 28 c 0,89,90
 49 123 49 123 49 229 c 0,91,92
 49 350 49 350 98 458 c 0,93,94
 159 588 159 588 269 661 c 0,95,96
 324 698 324 698 391 716 c 256,97,98
 458 734 458 734 538 734 c 0,99,100
 600 734 600 734 653 722 c 0,101,102
 667 719 667 719 680 715 c 256,103,104
 693 711 693 711 706 706 c 256,105,106
 719 701 719 701 732 696 c 0,107,108
 745 690 745 690 757 683 c 0,109,110
 855 635 855 635 912 534 c 0,111,112
 960 448 960 448 960 348 c 0,113,114
 960 277 960 277 935 213 c 0,115,116
 909 149 909 149 859 94 c 0,117,118
 814 44 814 44 764 18 c 0,119,120
 715 -7 715 -7 661 -7 c 2,121,-1
 648 -7 l 1,122,-1
 647 -7 l 1,123,-1
 628 -5 l 1,124,-1
 628 -5 l 1,125,126
 621 -4 621 -4 615 -2 c 256,127,128
 609 0 609 0 603 4 c 0,129,130
 584 15 584 15 572 35 c 1,131,-1
 572 36 l 1,132,133
 566 45 566 45 563 68 c 1,134,135
 560 64 560 64 557 61 c 0,136,137
 553 58 553 58 550 54 c 0,138,139
 546 51 546 51 543 48 c 0,140,141
 539 45 539 45 535 42 c 256,142,143
 531 39 531 39 528 36 c 0,144,145
 524 33 524 33 519 30 c 0,146,147
 515 27 515 27 511 25 c 0,148,149
 507 22 507 22 502 19 c 0,150,151
 481 7 481 7 459 0 c 0,152,153
 438 -6 438 -6 417 -6 c 0,154,155
 394 -6 394 -6 373 0 c 0,156,157
 351 7 351 7 330 19 c 0,158,159
 310 32 310 32 293 52 c 0,160,161
 276 73 276 73 262 101 c 0,162,163
 235 157 235 157 235 218 c 0,164,165
 235 256 235 256 245 295 c 256,166,167
 255 334 255 334 275 374 c 0,168,169
 294 414 294 414 319 444 c 0,170,171
 345 474 345 474 375 494 c 0,172,173
 437 534 437 534 494 534 c 0,174,175
 540 534 540 534 578 510 c 0,0,1
351 301 m 0,176,177
 343 278 343 278 340 255 c 0,178,179
 336 233 336 233 336 212 c 0,180,181
 336 148 336 148 366 112 c 0,182,183
 395 76 395 76 435 76 c 0,184,185
 448 76 448 76 462 80 c 256,186,187
 476 84 476 84 491 92 c 0,188,189
 521 108 521 108 546 139 c 1,190,-1
 546 139 l 1,191,192
 573 169 573 169 590 219 c 0,193,194
 608 269 608 269 608 317 c 0,195,196
 608 379 608 379 577 416 c 0,197,198
 546 452 546 452 500 452 c 0,199,200
 485 452 485 452 471 448 c 256,201,202
 457 444 457 444 444 436 c 1,203,-1
 443 436 l 1,204,205
 430 428 430 428 418 417 c 0,206,207
 405 405 405 405 394 388 c 0,208,209
 382 371 382 371 371 350 c 0,210,211
 361 328 361 328 351 301 c 0,176,177
EndSplineSet
EndChar

StartChar: bracketleft
Encoding: 91 91 36
Width: 278
GlyphClass: 2
Flags: W
LayerCount: 2
Fore
SplineSet
63 -199 m 1,0,-1
 63 716 l 1,1,-1
 63 721 l 1,2,-1
 68 721 l 1,3,-1
 262 721 l 1,4,-1
 267 721 l 1,5,-1
 267 716 l 1,6,-1
 267 643 l 1,7,-1
 267 638 l 1,8,-1
 262 638 l 1,9,-1
 161 638 l 1,10,-1
 161 -121 l 1,11,-1
 262 -121 l 1,12,-1
 267 -121 l 1,13,-1
 267 -126 l 1,14,-1
 267 -199 l 1,15,-1
 267 -204 l 1,16,-1
 262 -204 l 1,17,-1
 68 -204 l 1,18,-1
 63 -204 l 1,19,-1
 63 -199 l 1,0,-1
EndSplineSet
EndChar

StartChar: backslash
Encoding: 92 92 37
Width: 278
GlyphClass: 2
Flags: W
LayerCount: 2
Fore
SplineSet
203 -13 m 1,0,-1
 -5 727 l 1,1,-1
 -7 733 l 1,2,-1
 0 733 l 1,3,-1
 71 733 l 1,4,-1
 75 733 l 1,5,-1
 76 729 l 1,6,-1
 283 -11 l 1,7,-1
 285 -17 l 1,8,-1
 278 -17 l 1,9,-1
 208 -17 l 1,10,-1
 204 -17 l 1,11,-1
 203 -13 l 1,0,-1
EndSplineSet
EndChar

StartChar: bracketright
Encoding: 93 93 38
Width: 278
GlyphClass: 2
Flags: W
LayerCount: 2
Fore
SplineSet
213 -204 m 1,0,-1
 19 -204 l 1,1,-1
 14 -204 l 1,2,-1
 14 -199 l 1,3,-1
 14 -126 l 1,4,-1
 14 -121 l 1,5,-1
 19 -121 l 1,6,-1
 120 -121 l 1,7,-1
 120 638 l 1,8,-1
 19 638 l 1,9,-1
 14 638 l 1,10,-1
 14 643 l 1,11,-1
 14 716 l 1,12,-1
 14 721 l 1,13,-1
 19 721 l 1,14,-1
 213 721 l 1,15,-1
 218 721 l 1,16,-1
 218 716 l 1,17,-1
 218 -199 l 1,18,-1
 218 -204 l 1,19,-1
 213 -204 l 1,0,-1
EndSplineSet
EndChar

StartChar: asciicircum
Encoding: 94 94 39
Width: 469
GlyphClass: 2
Flags: W
LayerCount: 2
Fore
SplineSet
117 332 m 1,0,-1
 26 332 l 1,1,-1
 18 332 l 1,2,-1
 21 339 l 1,3,-1
 194 730 l 1,4,-1
 196 733 l 1,5,-1
 199 733 l 1,6,-1
 270 733 l 1,7,-1
 273 733 l 1,8,-1
 275 730 l 1,9,-1
 448 339 l 1,10,-1
 451 332 l 1,11,-1
 443 332 l 1,12,-1
 354 332 l 1,13,-1
 351 332 l 1,14,-1
 349 335 l 1,15,-1
 234 615 l 1,16,-1
 122 335 l 1,17,-1
 120 332 l 1,18,-1
 117 332 l 1,0,-1
EndSplineSet
EndChar

StartChar: underscore
Encoding: 95 95 40
Width: 556
GlyphClass: 2
Flags: W
LayerCount: 2
Fore
SplineSet
-20 -199 m 1,0,-1
 -20 -135 l 1,1,-1
 -20 -130 l 1,2,-1
 -15 -130 l 1,3,-1
 567 -130 l 1,4,-1
 572 -130 l 1,5,-1
 572 -135 l 1,6,-1
 572 -199 l 1,7,-1
 572 -204 l 1,8,-1
 567 -204 l 1,9,-1
 -15 -204 l 1,10,-1
 -20 -204 l 1,11,-1
 -20 -199 l 1,0,-1
EndSplineSet
EndChar

StartChar: grave
Encoding: 96 96 41
Width: 192
GlyphClass: 2
Flags: W
LayerCount: 2
Fore
SplineSet
104 499 m 1,0,-1
 87 499 l 1,1,-1
 81 500 l 1,2,-1
 73 502 l 1,3,-1
 66 504 l 2,4,5
 61 506 61 506 51 509 c 0,6,7
 42 512 42 512 38 513 c 1,8,9
 42 513 42 513 47 513 c 0,10,11
 53 514 53 514 58 514 c 256,12,13
 63 514 63 514 67 514 c 2,14,-1
 111 514 l 1,15,-1
 112 510 l 1,16,-1
 112 509 l 1,17,-1
 104 499 l 1,0,-1
114 499 m 1,18,-1
 115 492 l 1,19,-1
 115 491 l 2,20,21
 115 490 115 490 115 489 c 256,22,23
 115 488 115 488 116 486 c 0,24,25
 116 485 116 485 117 483 c 256,26,27
 118 481 118 481 119 480 c 2,28,-1
 119 479 l 1,29,-1
 128 464 l 1,30,-1
 138 450 l 1,31,-1
 150 439 l 1,32,-1
 163 427 l 1,33,-1
 177 415 l 1,34,-1
 181 411 l 1,35,-1
 178 408 l 1,36,-1
 161 389 l 1,37,-1
 159 387 l 1,38,-1
 157 387 l 1,39,-1
 117 387 l 1,40,-1
 115 387 l 1,41,-1
 114 388 l 1,42,-1
 85 413 l 1,43,-1
 84 414 l 1,44,-1
 58 442 l 1,45,-1
 58 442 l 1,46,47
 54 447 54 447 50 453 c 0,48,49
 47 458 47 458 43 465 c 256,50,51
 39 472 39 472 35 480 c 1,52,-1
 35 480 l 1,53,-1
 29 497 l 1,54,-1
 29 498 l 1,55,-1
 29 499 l 1,56,-1
 27 518 l 2,57,58
 26 527 26 527 27 534 c 0,59,60
 28 542 28 542 31 548 c 0,61,62
 33 555 33 555 35 560 c 256,63,64
 37 565 37 565 40 569 c 0,65,66
 41 571 41 571 43 573 c 256,67,68
 45 575 45 575 47 577 c 256,69,70
 49 579 49 579 51 580 c 0,71,72
 53 582 53 582 56 584 c 2,73,-1
 57 584 l 2,74,75
 61 587 61 587 66 588 c 0,76,77
 71 590 71 590 87 593 c 2,78,-1
 88 593 l 1,79,-1
 127 593 l 1,80,-1
 128 593 l 1,81,-1
 144 590 l 1,82,-1
 145 590 l 1,83,-1
 146 589 l 1,84,-1
 159 580 l 1,85,-1
 160 580 l 1,86,-1
 160 579 l 1,87,-1
 168 566 l 1,88,-1
 168 565 l 2,89,90
 170 562 170 562 171 558 c 256,91,92
 172 554 172 554 172 549 c 0,93,94
 172 536 172 536 168 525 c 0,95,96
 167 521 167 521 164 517 c 0,97,98
 162 514 162 514 159 511 c 0,99,100
 155 508 155 508 151 507 c 2,101,-1
 140 501 l 1,102,-1
 140 500 l 1,103,-1
 138 500 l 1,104,-1
 128 499 l 1,105,-1
 128 499 l 1,106,-1
 114 499 l 1,18,-1
EndSplineSet
EndChar

StartChar: braceleft
Encoding: 123 123 42
Width: 334
GlyphClass: 2
Flags: W
LayerCount: 2
Fore
SplineSet
86 195 m 0,0,1
 59 214 59 214 28 214 c 2,2,-1
 23 214 l 1,3,-1
 23 219 l 1,4,-1
 23 299 l 1,5,-1
 23 304 l 1,6,-1
 28 304 l 2,7,8
 40 304 40 304 50 306 c 256,9,10
 60 308 60 308 69 312 c 0,11,12
 78 317 78 317 85 323 c 0,13,14
 93 329 93 329 99 337 c 0,15,16
 104 345 104 345 109 354 c 0,17,18
 113 363 113 363 116 373 c 2,19,-1
 121 427 l 1,20,-1
 124 487 l 1,21,22
 124 570 124 570 127 602 c 0,23,24
 130 635 130 635 143 661 c 0,25,26
 149 674 149 674 157 684 c 0,27,28
 164 695 164 695 173 702 c 0,29,30
 178 707 178 707 186 712 c 0,31,32
 193 716 193 716 202 720 c 256,33,34
 211 724 211 724 221 728 c 1,35,-1
 222 728 l 1,36,37
 245 733 245 733 283 733 c 2,38,-1
 311 733 l 1,39,-1
 316 733 l 1,40,-1
 316 728 l 1,41,-1
 316 651 l 1,42,-1
 316 646 l 1,43,-1
 311 646 l 1,44,-1
 295 646 l 2,45,46
 249 646 249 646 231 629 c 0,47,48
 216 610 216 610 216 551 c 2,49,-1
 216 521 l 1,50,-1
 216 497 l 1,51,-1
 216 478 l 1,52,-1
 216 462 l 1,53,-1
 216 449 l 1,54,-1
 215 412 l 2,55,56
 215 398 215 398 211 388 c 0,57,58
 201 338 201 338 180 309 c 0,59,60
 178 306 178 306 175 303 c 0,61,62
 173 300 173 300 170 297 c 0,63,64
 167 295 167 295 164 292 c 256,65,66
 161 289 161 289 158 286 c 256,67,68
 155 283 155 283 151 281 c 0,69,70
 148 278 148 278 144 275 c 0,71,72
 141 273 141 273 137 270 c 256,73,74
 133 267 133 267 129 265 c 0,75,76
 125 262 125 262 120 260 c 1,77,78
 145 249 145 249 162 232 c 0,79,80
 180 216 180 216 191 195 c 0,81,82
 216 148 216 148 216 39 c 2,83,-1
 218 -74 l 2,84,85
 219 -84 219 -84 221 -92 c 0,86,87
 224 -101 224 -101 227 -106 c 0,88,89
 231 -112 231 -112 236 -117 c 2,90,-1
 255 -124 l 2,91,92
 271 -129 271 -129 295 -129 c 2,93,-1
 311 -129 l 1,94,-1
 316 -129 l 1,95,-1
 316 -134 l 1,96,-1
 316 -210 l 1,97,-1
 316 -215 l 1,98,-1
 311 -215 l 1,99,-1
 283 -215 l 2,100,101
 233 -215 233 -215 212 -208 c 0,102,103
 205 -205 205 -205 198 -201 c 256,104,105
 191 -197 191 -197 185 -193 c 0,106,107
 178 -188 178 -188 172 -182 c 0,108,109
 166 -177 166 -177 160 -170 c 0,110,111
 141 -148 141 -148 130 -104 c 1,112,-1
 130 -104 l 1,113,114
 124 -64 124 -64 124 24 c 0,115,116
 124 113 124 113 116 145 c 0,117,118
 114 156 114 156 109 165 c 0,119,120
 105 174 105 174 99 181 c 0,121,122
 94 189 94 189 86 195 c 0,0,1
EndSplineSet
EndChar

StartChar: bar
Encoding: 124 124 43
Width: 260
GlyphClass: 2
Flags: W
LayerCount: 2
Fore
SplineSet
87 -210 m 1,0,-1
 87 728 l 1,1,-1
 87 733 l 1,2,-1
 92 733 l 1,3,-1
 168 733 l 1,4,-1
 173 733 l 1,5,-1
 173 728 l 1,6,-1
 173 -210 l 1,7,-1
 173 -215 l 1,8,-1
 168 -215 l 1,9,-1
 92 -215 l 1,10,-1
 87 -215 l 1,11,-1
 87 -210 l 1,0,-1
EndSplineSet
EndChar

StartChar: braceright
Encoding: 125 125 44
Width: 334
GlyphClass: 2
Flags: W
LayerCount: 2
Fore
SplineSet
117 539 m 1,0,-1
 114 600 l 1,1,-1
 114 600 l 1,2,3
 114 620 114 620 99 633 c 0,4,5
 83 646 83 646 38 646 c 2,6,-1
 23 646 l 1,7,-1
 18 646 l 1,8,-1
 18 651 l 1,9,-1
 18 728 l 1,10,-1
 18 733 l 1,11,-1
 23 733 l 1,12,-1
 50 733 l 2,13,14
 101 733 101 733 128 723 c 256,15,16
 155 713 155 713 174 688 c 0,17,18
 194 663 194 663 203 621 c 1,19,-1
 203 620 l 1,20,-1
 208 569 l 1,21,-1
 208 569 l 1,22,-1
 210 494 l 2,23,24
 210 401 210 401 217 372 c 0,25,26
 219 367 219 367 220 363 c 0,27,28
 222 358 222 358 224 354 c 256,29,30
 226 350 226 350 228 345 c 0,31,32
 231 341 231 341 234 338 c 0,33,34
 237 334 237 334 240 330 c 256,35,36
 243 326 243 326 247 323 c 0,37,38
 252 319 252 319 259 315 c 0,39,40
 266 312 266 312 273 309 c 2,41,-1
 289 305 l 1,42,-1
 306 304 l 1,43,-1
 311 304 l 1,44,-1
 311 299 l 1,45,-1
 311 219 l 1,46,-1
 311 214 l 1,47,-1
 306 214 l 2,48,49
 289 214 289 214 274 210 c 0,50,51
 260 205 260 205 249 197 c 0,52,53
 237 188 237 188 229 175 c 256,54,55
 221 162 221 162 217 144 c 2,56,-1
 212 100 l 1,57,-1
 210 31 l 1,58,-1
 210 12 l 1,59,-1
 210 -4 l 1,60,-1
 210 -17 l 2,61,62
 210 -59 210 -59 207 -77 c 0,63,64
 207 -115 207 -115 189 -143 c 0,65,66
 177 -168 177 -168 160 -186 c 1,67,-1
 159 -186 l 1,68,-1
 141 -197 l 1,69,-1
 140 -197 l 1,70,-1
 140 -198 l 1,71,-1
 113 -210 l 1,72,-1
 112 -210 l 1,73,-1
 89 -214 l 1,74,-1
 88 -214 l 1,75,-1
 50 -215 l 1,76,-1
 23 -215 l 1,77,-1
 18 -215 l 1,78,-1
 18 -210 l 1,79,-1
 18 -134 l 1,80,-1
 18 -129 l 1,81,-1
 23 -129 l 1,82,-1
 38 -129 l 2,83,84
 87 -129 87 -129 101 -112 c 1,85,-1
 101 -111 l 1,86,87
 109 -104 109 -104 113 -84 c 256,88,89
 117 -64 117 -64 117 -33 c 2,90,-1
 118 62 l 1,91,-1
 121 122 l 1,92,-1
 121 123 l 1,93,94
 127 178 127 178 154 211 c 0,95,96
 165 226 165 226 179 238 c 0,97,98
 194 250 194 250 212 259 c 1,99,100
 164 283 164 283 142 326 c 0,101,102
 117 372 117 372 117 479 c 2,103,-1
 117 539 l 1,0,-1
EndSplineSet
EndChar

StartChar: section
Encoding: 167 167 45
Width: 916
GlyphClass: 2
Flags: W
LayerCount: 2
Fore
SplineSet
805 480 m 0,0,1
 805 278 805 278 596 150 c 1,2,3
 711 32 711 32 711 -91 c 0,4,5
 711 -202 711 -202 648 -279 c 0,6,7
 611 -325 611 -325 557 -348 c 128,-1,8
 503 -371 503 -371 434 -371 c 0,9,10
 336 -371 336 -371 264 -312 c 0,11,12
 187 -248 187 -248 187 -152 c 0,13,14
 187 -62 187 -62 267 -62 c 0,15,16
 344 -62 344 -62 344 -148 c 0,17,18
 344 -149 344 -149 344 -150 c 0,19,20
 344 -155 344 -155 343 -161 c 128,-1,21
 342 -167 342 -167 339.5 -174 c 128,-1,22
 337 -181 337 -181 334 -189 c 0,23,24
 325 -212 325 -212 325 -225 c 0,25,26
 325 -231 325 -231 326 -238 c 128,-1,27
 327 -245 327 -245 329 -253 c 0,28,29
 349 -324 349 -324 439 -324 c 0,30,31
 603 -324 603 -324 604 -170 c 0,32,33
 604 -135 604 -135 590 -99.5 c 128,-1,34
 576 -64 576 -64 547.5 -28.5 c 128,-1,35
 519 7 519 7 477 43 c 0,36,37
 396 105 396 105 241 237 c 0,38,39
 112 352 112 352 112 501 c 0,40,41
 112 698 112 698 321 827 c 1,42,43
 285 868 285 868 266 890.5 c 128,-1,44
 247 913 247 913 241 922 c 0,45,46
 205 982 205 982 205 1075 c 0,47,48
 205 1191 205 1191 285 1271 c 128,-1,49
 365 1351 365 1351 482 1351 c 0,50,51
 580 1351 580 1351 652 1293 c 0,52,53
 731 1230 731 1230 731 1134 c 0,54,55
 731 1044 731 1044 649 1044 c 0,56,57
 569 1044 569 1044 569 1122 c 0,58,59
 569 1130 569 1130 570.5 1142 c 128,-1,60
 572 1154 572 1154 575 1170 c 0,61,62
 577 1178 577 1178 578 1184.5 c 128,-1,63
 579 1191 579 1191 579.5 1197 c 128,-1,64
 580 1203 580 1203 580.5 1207.5 c 128,-1,65
 581 1212 581 1212 581 1216 c 0,66,67
 581 1301 581 1301 482 1301 c 0,68,69
 447 1301 447 1301 418.5 1289 c 128,-1,70
 390 1277 390 1277 366.5 1253.5 c 128,-1,71
 343 1230 343 1230 331.5 1201 c 128,-1,72
 320 1172 320 1172 320 1137 c 0,73,74
 320 1038 320 1038 444 933 c 0,75,76
 523 871 523 871 677 740 c 1,77,78
 805 624 805 624 805 480 c 0,0,1
698 391 m 0,79,80
 698 504 698 504 573 614 c 0,81,82
 502 674 502 674 360 791 c 1,83,84
 219 704 219 704 219 583 c 0,85,86
 219 564 219 564 222.5 545 c 128,-1,87
 226 526 226 526 233 507 c 128,-1,88
 240 488 240 488 250.5 469.5 c 128,-1,89
 261 451 261 451 274.5 432.5 c 128,-1,90
 288 414 288 414 305.5 396 c 128,-1,91
 323 378 323 378 344 360 c 0,92,93
 415 301 415 301 556 185 c 1,94,95
 698 273 698 273 698 391 c 0,79,80
EndSplineSet
EndChar

StartChar: copyright
Encoding: 169 169 46
Width: 737
GlyphClass: 2
Flags: W
LayerCount: 2
Fore
SplineSet
370 733 m 256,0,1
 461 733 461 733 552 685 c 0,2,3
 644 638 644 638 693 546 c 0,4,5
 743 455 743 455 743 359 c 256,6,7
 743 263 743 263 694 175 c 0,8,9
 646 86 646 86 557 36 c 256,10,11
 468 -14 468 -14 370 -14 c 0,12,13
 277 -14 277 -14 187 35 c 0,14,15
 96 83 96 83 46 174 c 0,16,17
 22 218 22 218 9 267 c 256,18,19
 -4 316 -4 316 -4 359 c 0,20,21
 -4 457 -4 457 45 544 c 0,22,23
 69 588 69 588 104 623 c 0,24,25
 140 657 140 657 186 682 c 0,26,27
 279 733 279 733 370 733 c 256,0,1
370 662 m 0,28,29
 351 662 351 662 332 660 c 0,30,31
 313 657 313 657 294 652 c 0,32,33
 276 647 276 647 258 640 c 256,34,35
 240 633 240 633 222 623 c 0,36,37
 153 584 153 584 110 511 c 0,38,39
 68 438 68 438 68 359 c 0,40,41
 68 322 68 322 78 285 c 0,42,43
 87 249 87 249 106 213 c 0,44,45
 145 142 145 142 218 99 c 0,46,47
 292 57 292 57 370 57 c 0,48,49
 449 57 449 57 520 95 c 0,50,51
 590 134 590 134 633 209 c 0,52,53
 642 228 642 228 650 246 c 0,54,55
 657 264 657 264 662 281 c 0,56,57
 664 289 664 289 666 298 c 256,58,59
 668 307 668 307 669 318 c 0,60,61
 671 328 671 328 671 338 c 0,62,63
 672 349 672 349 672 359 c 0,64,65
 672 400 672 400 662 438 c 0,66,67
 653 475 653 475 633 510 c 0,68,69
 594 579 594 579 520 621 c 0,70,71
 445 662 445 662 370 662 c 0,28,29
489 305 m 1,72,-1
 549 287 l 1,73,-1
 554 285 l 1,74,-1
 553 281 l 2,75,76
 547 250 547 250 531 225 c 256,77,78
 515 200 515 200 489 181 c 0,79,80
 439 143 439 143 371 143 c 0,81,82
 285 143 285 143 228 200 c 0,83,84
 172 258 172 258 172 358 c 0,85,86
 172 421 172 421 197 471 c 0,87,88
 221 522 221 522 268 546 c 0,89,90
 291 559 291 559 318 565 c 0,91,92
 344 571 344 571 375 571 c 0,93,94
 438 571 438 571 482 540 c 256,95,96
 526 509 526 509 546 453 c 2,97,-1
 548 447 l 1,98,-1
 542 446 l 1,99,-1
 484 432 l 1,100,-1
 480 431 l 1,101,-1
 478 435 l 2,102,103
 464 470 464 470 437 488 c 0,104,105
 409 507 409 507 373 507 c 0,106,107
 346 507 346 507 324 498 c 0,108,109
 302 488 302 488 284 469 c 0,110,111
 267 450 267 450 258 422 c 256,112,113
 249 394 249 394 249 357 c 0,114,115
 249 321 249 321 257 293 c 0,116,117
 265 266 265 266 281 248 c 0,118,119
 297 229 297 229 318 220 c 256,120,121
 339 211 339 211 367 211 c 0,122,123
 411 211 411 211 441 234 c 0,124,125
 472 258 472 258 483 301 c 2,126,-1
 484 306 l 1,127,-1
 489 305 l 1,72,-1
EndSplineSet
EndChar

StartChar: dieresis
Encoding: 172 172 47
Width: 709
GlyphClass: 2
Flags: W
LayerCount: 2
Fore
SplineSet
685 239 m 1,0,-1
 634 239 l 1,1,-1
 629 239 l 1,2,-1
 629 244 l 1,3,-1
 629 435 l 1,4,-1
 57 435 l 1,5,-1
 52 435 l 1,6,-1
 52 440 l 1,7,-1
 52 488 l 1,8,-1
 52 493 l 1,9,-1
 57 493 l 1,10,-1
 685 493 l 1,11,-1
 690 493 l 1,12,-1
 690 488 l 1,13,-1
 690 244 l 1,14,-1
 690 239 l 1,15,-1
 685 239 l 1,0,-1
EndSplineSet
EndChar

StartChar: degree
Encoding: 176 176 48
Width: 769
GlyphClass: 2
Flags: W
LayerCount: 2
Fore
SplineSet
732 840 m 0,0,1
 732 811 732 811 728 784 c 128,-1,2
 724 757 724 757 716 731.5 c 128,-1,3
 708 706 708 706 696 682.5 c 128,-1,4
 684 659 684 659 668 637 c 128,-1,5
 652 615 652 615 632 595 c 0,6,7
 582 545 582 545 520.5 520 c 128,-1,8
 459 495 459 495 387 495 c 0,9,10
 243 495 243 495 143 595 c 0,11,12
 38 701 38 701 38 840 c 0,13,14
 38 977 38 977 142 1084 c 0,15,16
 241 1183 241 1183 384 1183 c 0,17,18
 386 1183 386 1183 387 1183 c 0,19,20
 532 1183 532 1183 632 1084 c 128,-1,21
 732 985 732 985 732 840 c 0,0,1
627 840 m 0,22,23
 627 891 627 891 610 934 c 128,-1,24
 593 977 593 977 558 1011 c 0,25,26
 489 1081 489 1081 387 1081 c 0,27,28
 285 1080 285 1080 216 1011 c 0,29,30
 181 977 181 977 163.5 934 c 128,-1,31
 146 891 146 891 146 840 c 0,32,33
 146 739 146 739 216 669.5 c 128,-1,34
 286 600 286 600 387 600 c 0,35,36
 487 600 487 600 557 670 c 0,37,38
 580 693 580 693 595.5 719.5 c 128,-1,39
 611 746 611 746 619 776 c 128,-1,40
 627 806 627 806 627 840 c 0,22,23
EndSplineSet
EndChar

StartChar: paragraph
Encoding: 182 182 49
Width: 617
GlyphClass: 2
Flags: W
LayerCount: 2
Fore
SplineSet
555 460 m 1,0,-1
 496 460 l 1,1,-1
 496 -403 l 1,2,-1
 496 -408 l 1,3,-1
 491 -408 l 1,4,-1
 456 -408 l 1,5,-1
 451 -408 l 1,6,-1
 451 -403 l 1,7,-1
 451 460 l 1,8,-1
 372 460 l 1,9,-1
 372 -403 l 1,10,-1
 372 -408 l 1,11,-1
 367 -408 l 1,12,-1
 332 -408 l 1,13,-1
 327 -408 l 1,14,-1
 327 -403 l 1,15,-1
 327 112 l 1,16,17
 233 113 233 113 171 155 c 0,18,19
 97 206 97 206 97 302 c 0,20,21
 97 304 97 304 97 305 c 0,22,23
 97 400 97 400 167 452 c 0,24,25
 228 497 228 497 317 497 c 2,26,-1
 555 497 l 1,27,-1
 560 497 l 1,28,-1
 560 492 l 1,29,-1
 560 465 l 1,30,-1
 560 460 l 1,31,-1
 555 460 l 1,0,-1
EndSplineSet
EndChar

StartChar: periodcentered
Encoding: 183 183 50
AltUni2: 002219.ffffffff.0
Width: 404
GlyphClass: 2
Flags: W
LayerCount: 2
Fore
SplineSet
64 441 m 0,0,1
 71 453 71 453 80 464 c 0,2,3
 89 474 89 474 100 482 c 2,4,-1
 124 496 l 2,5,6
 162 515 162 515 202 515 c 0,7,8
 205 515 205 515 208 515 c 0,9,10
 212 515 212 515 215 515 c 0,11,12
 218 514 218 514 221 514 c 0,13,14
 231 513 231 513 240 511 c 0,15,16
 249 508 249 508 258 505 c 0,17,18
 268 502 268 502 276 497 c 0,19,20
 281 495 281 495 285 493 c 0,21,22
 289 490 289 490 293 487 c 0,23,24
 311 476 311 476 325 461 c 0,25,26
 338 446 338 446 348 427 c 0,27,28
 357 408 357 408 362 389 c 0,29,30
 367 369 367 369 367 349 c 0,31,32
 367 299 367 299 340 259 c 0,33,34
 292 185 292 185 200 185 c 0,35,36
 150 185 150 185 113 210 c 0,37,38
 75 234 75 234 56 272 c 0,39,40
 51 281 51 281 47 291 c 0,41,42
 43 300 43 300 41 310 c 0,43,44
 38 320 38 320 37 330 c 256,45,46
 36 340 36 340 36 350 c 0,47,48
 36 399 36 399 64 441 c 0,0,1
EndSplineSet
EndChar

StartChar: anusvara
Encoding: 2946 2946 51
Width: 377
GlyphClass: 4
Flags: W
LayerCount: 2
Fore
SplineSet
342 749 m 0,0,1
 342 679 342 679 296.5 632 c 128,-1,2
 251 585 251 585 183 585 c 0,3,4
 116 585 116 585 70 626 c 0,5,6
 19 672 19 672 19 747 c 0,7,8
 19 818 19 818 67 867.5 c 128,-1,9
 115 917 115 917 178 917 c 0,10,11
 216 917 216 917 247 904.5 c 128,-1,12
 278 892 278 892 301 866 c 0,13,14
 321 844 321 844 331.5 814.5 c 128,-1,15
 342 785 342 785 342 749 c 0,0,1
246 750 m 0,16,17
 246 766 246 766 241.5 779 c 128,-1,18
 237 792 237 792 227.5 802 c 128,-1,19
 218 812 218 812 206.5 817 c 128,-1,20
 195 822 195 822 181 822 c 0,21,22
 154 822 154 822 135 801 c 0,23,24
 116 779 116 779 116 750 c 0,25,26
 116 739 116 739 118.5 730 c 128,-1,27
 121 721 121 721 125.5 712.5 c 128,-1,28
 130 704 130 704 137 698 c 0,29,30
 144 691 144 691 151 687 c 128,-1,31
 158 683 158 683 165.5 681 c 128,-1,32
 173 679 173 679 182 679 c 0,33,34
 209 679 209 679 227 700 c 0,35,36
 246 721 246 721 246 750 c 0,16,17
EndSplineSet
EndChar

StartChar: visarga
Encoding: 2947 2947 52
Width: 609
GlyphClass: 2
Flags: W
LayerCount: 2
Fore
SplineSet
513 482 m 0,0,1
 505 453 505 453 489 430 c 0,2,3
 474 407 474 407 450 388 c 0,4,5
 437 378 437 378 424 371 c 0,6,7
 410 364 410 364 396 360 c 0,8,9
 382 357 382 357 368 357 c 2,10,-1
 367 357 l 2,11,12
 364 358 364 358 361 358 c 256,13,14
 358 358 358 358 356 358 c 2,15,-1
 355 358 l 1,16,17
 315 362 315 362 291 394 c 0,18,19
 266 426 266 426 266 470 c 0,20,21
 266 491 266 491 272 514 c 0,22,23
 288 570 288 570 334 609 c 0,24,25
 373 641 373 641 416 641 c 0,26,27
 418 641 418 641 420 641 c 0,28,29
 423 641 423 641 425 641 c 0,30,31
 428 640 428 640 432 640 c 0,32,33
 435 640 435 640 439 639 c 0,34,35
 442 639 442 639 447 638 c 0,36,37
 453 638 453 638 459 635 c 256,38,39
 465 632 465 632 471 628 c 0,40,41
 477 623 477 623 483 617 c 0,42,43
 488 611 488 611 495 602 c 0,44,45
 519 570 519 570 519 527 c 0,46,47
 519 506 519 506 513 482 c 0,0,1
618 124 m 0,48,49
 602 68 602 68 555 30 c 0,50,51
 516 -1 516 -1 473 -1 c 2,52,-1
 472 -1 l 2,53,54
 465 0 465 0 461 0 c 2,55,-1
 460 0 l 1,56,57
 420 5 420 5 396 37 c 0,58,59
 384 53 384 53 378 72 c 256,60,61
 372 91 372 91 372 112 c 256,62,63
 372 133 372 133 378 156 c 0,64,65
 394 213 394 213 440 250 c 0,66,67
 480 281 480 281 523 281 c 2,68,-1
 524 281 l 2,69,70
 527 280 527 280 530 280 c 256,71,72
 533 280 533 280 535 280 c 2,73,-1
 536 280 l 2,74,75
 556 277 556 277 572 268 c 0,76,77
 589 259 589 259 600 244 c 0,78,79
 612 228 612 228 618 209 c 0,80,81
 624 191 624 191 624 169 c 0,82,83
 624 148 624 148 618 124 c 0,48,49
284 121 m 0,84,85
 268 66 268 66 222 27 c 0,86,87
 183 -4 183 -4 142 -4 c 0,88,89
 140 -4 140 -4 138 -4 c 256,90,91
 136 -4 136 -4 135 -4 c 0,92,93
 133 -4 133 -4 131 -4 c 0,94,95
 130 -4 130 -4 129 -3 c 0,96,97
 127 -3 127 -3 126 -3 c 0,98,99
 120 0 120 0 110 5 c 0,100,101
 101 9 101 9 83 19 c 256,102,103
 65 29 65 29 62 33 c 1,104,-1
 62 33 l 1,105,106
 39 65 39 65 39 108 c 0,107,108
 39 129 39 129 45 152 c 0,109,110
 61 209 61 209 107 246 c 0,111,112
 126 262 126 262 147 270 c 256,113,114
 168 278 168 278 189 278 c 0,115,116
 198 278 198 278 203 277 c 0,117,118
 217 275 217 275 229 270 c 0,119,120
 240 266 240 266 250 258 c 0,121,122
 259 251 259 251 267 240 c 0,123,124
 290 209 290 209 290 166 c 0,125,126
 290 145 290 145 284 121 c 0,84,85
446 486 m 1,127,-1
 449 514 l 1,128,129
 449 513 449 513 447 520 c 0,130,131
 444 527 444 527 440 536 c 0,132,133
 435 546 435 546 429 556 c 0,134,135
 424 565 424 565 416 573 c 0,136,137
 409 581 409 581 402 582 c 0,138,139
 394 584 394 584 387 582 c 0,140,141
 379 581 379 581 371 577 c 0,142,143
 363 572 363 572 355 565 c 0,144,145
 331 543 331 543 321 505 c 1,146,-1
 318 477 l 1,147,148
 317 478 317 478 324 462 c 256,149,150
 331 446 331 446 342 428 c 0,151,152
 354 411 354 411 365 409 c 0,153,154
 377 407 377 407 388 411 c 0,155,156
 400 415 400 415 413 426 c 0,157,158
 437 448 437 448 446 486 c 1,127,-1
471 51 m 0,159,160
 473 51 473 51 476 51 c 0,161,162
 498 51 498 51 520 70 c 0,163,164
 533 81 533 81 541 95 c 0,165,166
 549 110 549 110 552 128 c 2,167,-1
 555 154 l 2,168,169
 553 161 553 161 549 172 c 0,170,171
 544 183 544 183 533 203 c 0,172,173
 521 222 521 222 510 224 c 0,174,175
 502 225 502 225 494 223 c 0,176,177
 485 221 485 221 477 217 c 0,178,179
 469 212 469 212 461 205 c 0,180,181
 437 183 437 183 428 147 c 1,182,-1
 425 119 l 2,183,184
 427 112 427 112 431 102 c 0,185,186
 436 91 436 91 448 72 c 256,187,188
 460 53 460 53 471 51 c 0,159,160
219 124 m 1,189,-1
 222 151 l 2,190,191
 220 158 220 158 215 169 c 0,192,193
 211 180 211 180 199 199 c 256,194,195
 187 218 187 218 176 220 c 0,196,197
 164 222 164 222 153 218 c 0,198,199
 141 213 141 213 128 202 c 0,200,201
 104 179 104 179 95 143 c 1,202,-1
 92 116 l 2,203,204
 94 109 94 109 98 98 c 0,205,206
 103 87 103 87 114 68 c 0,207,208
 126 49 126 49 136 47 c 0,209,210
 139 46 139 46 143 46 c 0,211,212
 164 46 164 46 185 65 c 0,213,214
 210 87 210 87 219 124 c 1,189,-1
EndSplineSet
EndChar

StartChar: tmletterA
Encoding: 2949 2949 53
Width: 908
GlyphClass: 2
Flags: W
LayerCount: 2
Fore
SplineSet
917 384 m 1,0,-1
 815 -137 l 1,1,-1
 814 -141 l 1,2,-1
 810 -141 l 1,3,-1
 738 -141 l 1,4,-1
 732 -141 l 1,5,-1
 733 -135 l 1,6,-1
 772 67 l 1,7,-1
 668 68 l 1,8,9
 619 4 619 4 535 -38 c 0,10,11
 450 -82 450 -82 355 -82 c 0,12,13
 249 -82 249 -82 150 -40 c 0,14,15
 42 7 42 7 42 74 c 0,16,17
 42 113 42 113 110 113 c 2,18,-1
 602 114 l 1,19,20
 612 128 612 128 619 143 c 0,21,22
 627 157 627 157 632 172 c 0,23,24
 636 188 636 188 639 203 c 0,25,26
 641 219 641 219 641 235 c 0,27,28
 641 278 641 278 624 303 c 0,29,30
 608 327 608 327 574 334 c 1,31,32
 602 308 602 308 602 268 c 0,33,34
 602 222 602 222 571 186 c 0,35,36
 539 152 539 152 483 152 c 0,37,38
 440 152 440 152 414 178 c 256,39,40
 388 204 388 204 388 250 c 0,41,42
 388 310 388 310 439 349 c 0,43,44
 489 388 489 388 554 388 c 0,45,46
 631 388 631 388 679 342 c 0,47,48
 728 295 728 295 728 221 c 0,49,50
 728 194 728 194 721 167 c 0,51,52
 714 141 714 141 700 115 c 1,53,-1
 781 114 l 1,54,-1
 835 386 l 1,55,-1
 836 390 l 1,56,-1
 840 390 l 1,57,-1
 912 390 l 1,58,-1
 918 390 l 1,59,-1
 917 384 l 1,0,-1
520 270 m 0,60,61
 520 308 520 308 491 329 c 1,62,63
 469 322 469 322 455 312 c 0,64,65
 440 301 440 301 434 288 c 0,66,67
 427 274 427 274 427 256 c 0,68,69
 427 206 427 206 474 206 c 0,70,71
 520 206 520 206 520 270 c 0,60,61
562 67 m 1,72,-1
 121 68 l 2,73,74
 106 68 106 68 106 55 c 0,75,76
 106 37 106 37 166 5 c 0,77,78
 245 -34 245 -34 349 -34 c 0,79,80
 404 -34 404 -34 464 -4 c 0,81,82
 520 23 520 23 562 67 c 1,72,-1
EndSplineSet
EndChar

StartChar: tmletterAA
Encoding: 2950 2950 54
Width: 969
GlyphClass: 2
Flags: W
LayerCount: 2
Fore
SplineSet
999 -84 m 0,0,1
 999 -177 999 -177 897 -227 c 0,2,3
 815 -266 815 -266 693 -266 c 0,4,5
 651 -266 651 -266 613 -259 c 0,6,7
 575 -251 575 -251 541 -237 c 0,8,9
 473 -206 473 -206 473 -153 c 0,10,11
 473 -151 473 -151 473 -149 c 256,12,13
 473 -147 473 -147 474 -145 c 0,14,15
 474 -144 474 -144 475 -142 c 0,16,17
 475 -140 475 -140 476 -138 c 256,18,19
 477 -136 477 -136 478 -134 c 0,20,21
 478 -133 478 -133 480 -131 c 0,22,23
 481 -129 481 -129 482 -127 c 0,24,25
 483 -126 483 -126 484 -124 c 0,26,27
 486 -122 486 -122 487 -121 c 2,28,-1
 488 -120 l 2,29,30
 503 -107 503 -107 524 -107 c 2,31,-1
 663 -107 l 1,32,-1
 669 -107 l 1,33,-1
 668 -113 l 1,34,-1
 660 -149 l 1,35,-1
 659 -153 l 1,36,-1
 655 -153 l 1,37,-1
 541 -153 l 2,38,39
 538 -153 538 -153 535 -153 c 0,40,41
 532 -154 532 -154 531 -155 c 0,42,43
 529 -156 529 -156 527 -157 c 0,44,45
 526 -158 526 -158 525 -160 c 0,46,47
 524 -161 524 -161 524 -163 c 0,48,49
 525 -181 525 -181 576 -201 c 0,50,51
 602 -211 602 -211 627 -215 c 0,52,53
 653 -220 653 -220 676 -220 c 0,54,55
 776 -220 776 -220 845 -182 c 0,56,57
 913 -144 913 -144 913 -77 c 0,58,59
 913 -27 913 -27 868 -27 c 0,60,61
 849 -27 849 -27 832 -44 c 1,62,-1
 813 -138 l 1,63,-1
 812 -142 l 1,64,-1
 808 -142 l 1,65,-1
 736 -142 l 1,66,-1
 730 -142 l 1,67,-1
 731 -136 l 1,68,-1
 770 66 l 1,69,-1
 666 67 l 1,70,71
 615 1 615 1 536 -38 c 0,72,73
 447 -83 447 -83 351 -83 c 0,74,75
 246 -83 246 -83 149 -41 c 0,76,77
 42 6 42 6 42 73 c 0,78,79
 42 112 42 112 107 112 c 2,80,-1
 600 113 l 1,81,82
 619 142 619 142 629 172 c 0,83,84
 638 202 638 202 638 234 c 0,85,86
 638 322 638 322 575 341 c 1,87,88
 588 329 588 329 594 311 c 0,89,90
 600 294 600 294 600 270 c 0,91,92
 600 255 600 255 596 241 c 256,93,94
 592 227 592 227 584 214 c 256,95,96
 576 201 576 201 564 190 c 0,97,98
 547 173 547 173 525 164 c 0,99,100
 503 156 503 156 477 156 c 0,101,102
 435 156 435 156 407 183 c 1,103,-1
 407 184 l 1,104,105
 394 198 394 198 388 217 c 0,106,107
 381 235 381 235 381 256 c 0,108,109
 381 316 381 316 430 356 c 256,110,111
 479 396 479 396 546 396 c 0,112,113
 629 396 629 396 678 347 c 0,114,115
 726 298 726 298 726 220 c 0,116,117
 726 191 726 191 719 166 c 0,118,119
 716 155 716 155 710 141 c 256,120,121
 704 127 704 127 697 114 c 1,122,-1
 778 113 l 1,123,-1
 833 385 l 1,124,-1
 834 389 l 1,125,-1
 838 389 l 1,126,-1
 911 389 l 1,127,-1
 917 389 l 1,128,-1
 916 383 l 1,129,-1
 843 14 l 1,130,131
 867 26 867 26 896 26 c 0,132,133
 948 26 948 26 977 -10 c 0,134,135
 999 -38 999 -38 999 -84 c 0,0,1
521 277 m 0,136,137
 521 315 521 315 492 340 c 1,138,139
 426 323 426 323 426 256 c 0,140,141
 426 246 426 246 429 238 c 0,142,143
 432 231 432 231 437 224 c 0,144,145
 443 218 443 218 450 215 c 0,146,147
 458 212 458 212 468 212 c 0,148,149
 479 212 479 212 489 217 c 0,150,151
 498 222 498 222 505 232 c 0,152,153
 521 254 521 254 521 277 c 0,136,137
562 66 m 1,154,-1
 121 67 l 2,155,156
 108 67 108 67 104 53 c 1,157,158
 105 35 105 35 166 4 c 0,159,160
 247 -35 247 -35 350 -35 c 0,161,162
 377 -35 377 -35 406 -28 c 0,163,164
 435 -20 435 -20 465 -5 c 0,165,166
 520 22 520 22 562 66 c 1,154,-1
EndSplineSet
EndChar

StartChar: tmletterI
Encoding: 2951 2951 55
Width: 865
GlyphClass: 2
Flags: W
LayerCount: 2
Fore
SplineSet
839 285 m 0,0,1
 839 241 839 241 835 219 c 2,2,-1
 752 -240 l 1,3,-1
 751 -244 l 1,4,-1
 747 -244 l 1,5,-1
 711 -244 l 1,6,-1
 705 -244 l 1,7,-1
 706 -238 l 1,8,-1
 776 142 l 2,9,10
 783 180 783 180 786 206 c 256,11,12
 789 232 789 232 789 247 c 0,13,14
 789 351 789 351 722 436 c 0,15,16
 637 545 637 545 475 545 c 0,17,18
 294 545 294 545 197 421 c 0,19,20
 125 328 125 328 125 227 c 0,21,22
 125 119 125 119 196 6 c 1,23,24
 294 53 294 53 403 53 c 0,25,26
 431 53 431 53 459 50 c 0,27,28
 486 47 486 47 510 42 c 1,29,30
 565 133 565 133 565 222 c 0,31,32
 565 278 565 278 536 312 c 0,33,34
 508 345 508 345 461 345 c 1,35,36
 477 332 477 332 488 317 c 0,37,38
 499 301 499 301 504 283 c 256,39,40
 509 265 509 265 509 243 c 0,41,42
 509 200 509 200 481 165 c 256,43,44
 453 130 453 130 410 130 c 0,45,46
 388 130 388 130 368 138 c 0,47,48
 349 145 349 145 334 160 c 0,49,50
 302 191 302 191 302 238 c 0,51,52
 302 302 302 302 349 347 c 0,53,54
 395 391 395 391 464 391 c 0,55,56
 505 391 505 391 538 376 c 0,57,58
 571 362 571 362 595 332 c 0,59,60
 616 305 616 305 626 273 c 0,61,62
 637 240 637 240 637 202 c 0,63,64
 637 114 637 114 585 10 c 1,65,66
 666 -38 666 -38 666 -130 c 0,67,68
 666 -195 666 -195 610 -232 c 0,69,70
 565 -263 565 -263 505 -263 c 0,71,72
 484 -263 484 -263 461 -258 c 0,73,74
 438 -252 438 -252 413 -242 c 0,75,76
 389 -231 389 -231 362 -216 c 1,77,78
 311 -246 311 -246 266 -260 c 0,79,80
 221 -275 221 -275 181 -275 c 0,81,82
 132 -275 132 -275 95 -250 c 0,83,84
 74 -235 74 -235 64 -213 c 0,85,86
 53 -192 53 -192 53 -165 c 0,87,88
 53 -83 53 -83 158 -15 c 1,89,90
 79 110 79 110 79 237 c 0,91,92
 79 399 79 399 205 510 c 0,93,94
 330 620 330 620 501 620 c 0,95,96
 633 620 633 620 728 540 c 0,97,98
 839 447 839 447 839 285 c 0,0,1
437 256 m 0,99,100
 437 303 437 303 397 325 c 1,101,102
 350 296 350 296 350 243 c 0,103,104
 350 186 350 186 392 186 c 0,105,106
 437 186 437 186 437 256 c 0,99,100
478 -5 m 1,107,108
 426 7 426 7 394 7 c 0,109,110
 318 7 318 7 227 -35 c 1,111,112
 279 -103 279 -103 338 -143 c 1,113,114
 377 -115 377 -115 412 -81 c 0,115,116
 447 -46 447 -46 478 -5 c 1,107,108
593 -108 m 0,117,118
 593 -71 593 -71 553 -40 c 1,119,120
 542 -56 542 -56 529 -72 c 0,121,122
 517 -87 517 -87 503 -101 c 0,123,124
 490 -116 490 -116 476 -129 c 0,125,126
 462 -143 462 -143 447 -155 c 0,127,128
 433 -168 433 -168 417 -179 c 1,129,130
 456 -191 456 -191 493 -191 c 256,131,132
 530 -191 530 -191 558 -174 c 0,133,134
 593 -152 593 -152 593 -108 c 0,117,118
297 -172 m 1,135,136
 283 -161 283 -161 270 -150 c 0,137,138
 257 -138 257 -138 245 -127 c 0,139,140
 233 -115 233 -115 223 -103 c 0,141,142
 212 -92 212 -92 203 -80 c 0,143,144
 193 -68 193 -68 185 -56 c 1,145,146
 96 -110 96 -110 96 -171 c 0,147,148
 96 -220 96 -220 169 -220 c 0,149,150
 215 -220 215 -220 297 -172 c 1,135,136
EndSplineSet
EndChar

StartChar: tmletterII
Encoding: 2952 2952 56
Width: 521
GlyphClass: 2
Flags: W
LayerCount: 2
Fore
SplineSet
554 201 m 0,0,1
 554 177 554 177 539 161 c 0,2,3
 523 145 523 145 499 145 c 0,4,5
 477 145 477 145 460 161 c 0,6,7
 442 178 442 178 442 201 c 0,8,9
 442 212 442 212 446 222 c 256,10,11
 450 232 450 232 458 241 c 0,12,13
 463 245 463 245 467 248 c 0,14,15
 472 251 472 251 477 253 c 256,16,17
 482 255 482 255 488 256 c 0,18,19
 493 257 493 257 499 257 c 0,20,21
 522 257 522 257 538 240 c 256,22,23
 554 223 554 223 554 201 c 0,0,1
292 201 m 0,24,25
 292 177 292 177 277 161 c 0,26,27
 261 145 261 145 238 145 c 0,28,29
 232 145 232 145 227 146 c 0,30,31
 221 147 221 147 216 149 c 256,32,33
 211 151 211 151 206 154 c 0,34,35
 202 157 202 157 198 161 c 0,36,37
 189 169 189 169 185 179 c 256,38,39
 181 189 181 189 181 201 c 0,40,41
 181 212 181 212 185 222 c 256,42,43
 189 232 189 232 197 241 c 0,44,45
 214 257 214 257 238 257 c 0,46,47
 260 256 260 256 276 240 c 0,48,49
 284 232 284 232 288 222 c 256,50,51
 292 212 292 212 292 201 c 0,24,25
576 383 m 1,52,-1
 568 345 l 1,53,-1
 567 341 l 1,54,-1
 563 341 l 1,55,-1
 436 340 l 1,56,-1
 370 1 l 1,57,-1
 369 -3 l 1,58,-1
 365 -3 l 1,59,-1
 291 -3 l 1,60,-1
 285 -3 l 1,61,-1
 286 3 l 1,62,-1
 352 340 l 1,63,-1
 182 340 l 1,64,-1
 115 1 l 1,65,-1
 114 -3 l 1,66,-1
 110 -3 l 1,67,-1
 72 -3 l 1,68,-1
 66 -3 l 1,69,-1
 67 3 l 1,70,-1
 144 385 l 1,71,-1
 145 389 l 1,72,-1
 149 389 l 1,73,-1
 571 389 l 1,74,-1
 577 389 l 1,75,-1
 576 383 l 1,52,-1
EndSplineSet
EndChar

StartChar: tmletterU
Encoding: 2953 2953 57
Width: 733
GlyphClass: 2
Flags: W
LayerCount: 2
Fore
SplineSet
354 319 m 0,0,1
 340 328 340 328 320 334 c 0,2,3
 309 337 309 337 298 339 c 0,4,5
 287 340 287 340 275 340 c 2,6,-1
 254 340 l 2,7,8
 251 339 251 339 250 339 c 256,9,10
 249 339 249 339 249 339 c 1,11,12
 286 307 286 307 286 260 c 0,13,14
 286 238 286 238 280 221 c 0,15,16
 273 203 273 203 260 190 c 0,17,18
 235 167 235 167 197 167 c 0,19,20
 190 167 190 167 184 168 c 0,21,22
 178 168 178 168 172 170 c 0,23,24
 166 171 166 171 161 174 c 0,25,26
 156 176 156 176 151 179 c 0,27,28
 146 181 146 181 141 185 c 0,29,30
 137 189 137 189 133 193 c 0,31,32
 109 219 109 219 109 261 c 0,33,34
 109 290 109 290 123 313 c 0,35,36
 137 337 137 337 164 354 c 0,37,38
 189 370 189 370 221 377 c 0,39,40
 253 385 253 385 293 385 c 0,41,42
 366 385 366 385 418 346 c 0,43,44
 472 306 472 306 472 237 c 0,45,46
 472 218 472 218 469 201 c 0,47,48
 465 184 465 184 459 169 c 0,49,50
 452 155 452 155 442 143 c 0,51,52
 432 132 432 132 419 123 c 0,53,54
 401 111 401 111 377 103 c 0,55,56
 352 96 352 96 321 92 c 256,57,58
 290 88 290 88 252 88 c 2,59,-1
 154 88 l 2,60,61
 141 88 141 88 132 85 c 0,62,63
 124 83 124 83 120 78 c 0,64,65
 116 74 116 74 115 67 c 0,66,67
 116 42 116 42 171 42 c 2,68,-1
 730 42 l 1,69,-1
 736 42 l 1,70,-1
 735 36 l 1,71,-1
 727 1 l 1,72,-1
 726 -3 l 1,73,-1
 722 -3 l 1,74,-1
 146 -3 l 2,75,76
 53 -3 53 -3 53 71 c 0,77,78
 53 132 53 132 134 132 c 2,79,-1
 254 132 l 2,80,81
 287 132 287 132 313 140 c 0,82,83
 338 147 338 147 356 162 c 0,84,85
 391 192 391 192 391 243 c 0,86,87
 391 291 391 291 354 319 c 0,0,1
223 271 m 0,88,89
 223 302 223 302 197 321 c 1,90,91
 173 309 173 309 162 293 c 0,92,93
 151 278 151 278 151 260 c 0,94,95
 151 224 151 224 183 224 c 0,96,97
 223 224 223 224 223 271 c 0,88,89
EndSplineSet
EndChar

StartChar: tmletterUU
Encoding: 2954 2954 58
Width: 1079
GlyphClass: 2
Flags: W
LayerCount: 2
Fore
SplineSet
1146 369 m 1,0,-1
 1140 336 l 1,1,-1
 1139 332 l 1,2,-1
 1135 332 l 1,3,-1
 1088 331 l 1,4,-1
 1037 77 l 1,5,-1
 1036 73 l 1,6,-1
 1032 73 l 1,7,-1
 964 73 l 1,8,-1
 958 73 l 1,9,-1
 959 79 l 1,10,-1
 1004 330 l 1,11,-1
 921 330 l 1,12,-1
 872 76 l 1,13,-1
 871 72 l 1,14,-1
 867 72 l 1,15,-1
 804 72 l 1,16,-1
 798 72 l 1,17,-1
 799 78 l 1,18,-1
 814 169 l 2,19,20
 815 174 815 174 816 180 c 0,21,22
 816 186 816 186 816 192 c 2,23,-1
 816 213 l 2,24,25
 816 222 816 222 815 231 c 256,26,27
 814 240 814 240 812 248 c 256,28,29
 810 256 810 256 807 264 c 0,30,31
 804 271 804 271 801 278 c 0,32,33
 797 285 797 285 792 291 c 0,34,35
 787 298 787 298 781 303 c 0,36,37
 764 321 764 321 740 329 c 0,38,39
 716 338 716 338 684 338 c 0,40,41
 628 338 628 338 588 300 c 0,42,43
 549 262 549 262 549 210 c 0,44,45
 549 203 549 203 550 196 c 256,46,47
 551 189 551 189 553 183 c 256,48,49
 555 177 555 177 559 170 c 0,50,51
 562 164 562 164 566 158 c 0,52,53
 572 150 572 150 581 143 c 0,54,55
 589 136 589 136 599 131 c 1,56,57
 582 158 582 158 582 187 c 0,58,59
 582 226 582 226 606 251 c 256,60,61
 630 276 630 276 667 276 c 0,62,63
 678 276 678 276 688 274 c 0,64,65
 697 273 697 273 706 270 c 256,66,67
 715 267 715 267 722 262 c 0,68,69
 729 258 729 258 736 252 c 0,70,71
 748 239 748 239 754 223 c 256,72,73
 760 207 760 207 760 187 c 0,74,75
 760 175 760 175 758 164 c 0,76,77
 756 152 756 152 751 142 c 0,78,79
 747 132 747 132 740 123 c 0,80,81
 734 114 734 114 725 106 c 1,82,-1
 725 106 l 1,83,84
 707 92 707 92 685 84 c 0,85,86
 663 77 663 77 636 77 c 0,87,88
 579 77 579 77 542 118 c 0,89,90
 506 158 506 158 506 213 c 0,91,92
 506 287 506 287 559 334 c 0,93,94
 612 380 612 380 701 380 c 0,95,96
 816 380 816 380 870 287 c 1,97,-1
 884 371 l 1,98,-1
 885 375 l 1,99,-1
 889 375 l 1,100,-1
 1141 375 l 1,101,-1
 1147 375 l 1,102,-1
 1146 369 l 1,0,-1
1064 36 m 1,103,-1
 1058 -1 l 1,104,-1
 1057 -5 l 1,105,-1
 1053 -5 l 1,106,-1
 115 -3 l 2,107,108
 83 -3 83 -3 63 16 c 0,109,110
 52 26 52 26 47 38 c 0,111,112
 42 51 42 51 42 65 c 0,113,114
 42 91 42 91 61 110 c 256,115,116
 80 129 80 129 113 129 c 2,117,-1
 227 129 l 2,118,119
 249 129 249 129 268 133 c 0,120,121
 286 136 286 136 302 143 c 0,122,123
 317 150 317 150 329 160 c 0,124,125
 342 171 342 171 350 184 c 0,126,127
 358 196 358 196 362 212 c 256,128,129
 366 228 366 228 366 246 c 0,130,131
 366 288 366 288 336 313 c 0,132,133
 306 337 306 337 257 338 c 1,134,135
 283 308 283 308 283 267 c 0,136,137
 283 227 283 227 259 197 c 0,138,139
 234 166 234 166 199 166 c 0,140,141
 152 166 152 166 124 194 c 0,142,143
 112 207 112 207 105 225 c 0,144,145
 99 243 99 243 99 264 c 0,146,147
 99 320 99 320 156 355 c 0,148,149
 206 386 206 386 270 386 c 0,150,151
 342 386 342 386 394 346 c 0,152,153
 449 300 449 300 449 236 c 0,154,155
 449 202 449 202 437 175 c 256,156,157
 425 148 425 148 402 128 c 0,158,159
 355 88 355 88 271 88 c 2,160,-1
 143 88 l 2,161,162
 107 88 107 88 104 63 c 0,163,164
 105 42 105 42 146 42 c 2,165,-1
 1059 42 l 1,166,-1
 1065 42 l 1,167,-1
 1064 36 l 1,103,-1
219 276 m 0,168,169
 219 304 219 304 192 324 c 1,170,171
 143 300 143 300 143 259 c 0,172,173
 143 244 143 244 153 234 c 0,174,175
 162 224 162 224 177 224 c 0,176,177
 219 224 219 224 219 276 c 0,168,169
699 185 m 0,178,179
 699 225 699 225 666 225 c 0,180,181
 626 225 626 225 626 179 c 0,182,183
 626 150 626 150 650 128 c 1,184,185
 699 142 699 142 699 185 c 0,178,179
EndSplineSet
EndChar

StartChar: tmletterE
Encoding: 2958 2958 59
Width: 642
GlyphClass: 2
Flags: W
LayerCount: 2
Fore
SplineSet
709 372 m 1,0,-1
 701 334 l 1,1,-1
 700 330 l 1,2,-1
 696 330 l 1,3,-1
 599 329 l 1,4,-1
 525 1 l 1,5,-1
 524 -3 l 1,6,-1
 520 -3 l 1,7,-1
 450 -3 l 1,8,-1
 444 -3 l 1,9,-1
 445 3 l 1,10,-1
 520 329 l 1,11,-1
 296 330 l 2,12,13
 270 330 270 330 246 325 c 256,14,15
 222 320 222 320 201 309 c 0,16,17
 180 299 180 299 161 284 c 0,18,19
 132 261 132 261 118 230 c 0,20,21
 104 200 104 200 104 162 c 0,22,23
 104 109 104 109 137 82 c 1,24,-1
 134 105 l 1,25,-1
 134 106 l 2,26,27
 134 160 134 160 163 197 c 0,28,29
 193 235 193 235 242 235 c 0,30,31
 335 235 335 235 335 135 c 0,32,33
 335 104 335 104 326 78 c 256,34,35
 317 52 317 52 300 33 c 0,36,37
 282 13 282 13 261 3 c 0,38,39
 239 -7 239 -7 214 -7 c 0,40,41
 191 -7 191 -7 172 -2 c 0,42,43
 152 3 152 3 135 13 c 256,44,45
 118 23 118 23 104 38 c 0,46,47
 63 82 63 82 63 166 c 0,48,49
 63 259 63 259 135 319 c 0,50,51
 170 348 170 348 213 363 c 256,52,53
 256 378 256 378 306 378 c 2,54,-1
 704 378 l 1,55,-1
 710 378 l 1,56,-1
 709 372 l 1,0,-1
192 152 m 0,57,58
 186 142 186 142 182 130 c 0,59,60
 179 117 179 117 179 103 c 0,61,62
 179 95 179 95 180 87 c 0,63,64
 181 78 181 78 185 64 c 0,65,66
 187 56 187 56 189 54 c 0,67,68
 214 54 214 54 234 79 c 256,69,70
 254 104 254 104 254 135 c 0,71,72
 254 175 254 175 229 175 c 0,73,74
 219 175 219 175 210 169 c 0,75,76
 201 164 201 164 192 152 c 0,57,58
EndSplineSet
EndChar

StartChar: tmletterEE
Encoding: 2959 2959 60
Width: 646
GlyphClass: 2
Flags: W
LayerCount: 2
Fore
SplineSet
714 375 m 1,0,-1
 705 340 l 1,1,-1
 704 336 l 1,2,-1
 700 336 l 1,3,-1
 607 335 l 1,4,-1
 537 1 l 1,5,-1
 536 -1 l 1,6,-1
 534 -3 l 1,7,-1
 221 -154 l 1,8,-1
 214 -157 l 1,9,-1
 214 -149 l 1,10,-1
 215 -106 l 1,11,-1
 215 -103 l 1,12,-1
 218 -101 l 1,13,-1
 456 12 l 1,14,-1
 522 335 l 1,15,-1
 315 336 l 2,16,17
 231 336 231 336 166 288 c 0,18,19
 134 265 134 265 118 235 c 0,20,21
 102 206 102 206 102 170 c 0,22,23
 102 109 102 109 146 74 c 1,24,25
 145 76 145 76 145 78 c 0,26,27
 144 80 144 80 144 82 c 0,28,29
 143 84 143 84 143 86 c 0,30,31
 141 100 141 100 141 112 c 0,32,33
 141 170 141 170 170 201 c 0,34,35
 199 233 199 233 249 233 c 0,36,37
 289 233 289 233 316 204 c 0,38,39
 343 176 343 176 343 138 c 0,40,41
 343 75 343 75 305 36 c 0,42,43
 267 -4 267 -4 209 -4 c 0,44,45
 178 -4 178 -4 152 8 c 0,46,47
 125 19 125 19 104 42 c 0,48,49
 62 88 62 88 62 166 c 0,50,51
 62 254 62 254 135 318 c 0,52,53
 207 381 207 381 310 381 c 2,54,-1
 709 381 l 1,55,-1
 715 381 l 1,56,-1
 714 375 l 1,0,-1
192 158 m 0,57,58
 181 136 181 136 181 106 c 256,59,60
 181 76 181 76 191 57 c 1,61,62
 221 57 221 57 240 81 c 0,63,64
 260 107 260 107 260 141 c 0,65,66
 260 179 260 179 227 179 c 0,67,68
 206 179 206 179 192 158 c 0,57,58
EndSplineSet
EndChar

StartChar: tmletterAI
Encoding: 2960 2960 61
Width: 711
GlyphClass: 2
Flags: W
LayerCount: 2
Fore
SplineSet
397 218 m 1,0,-1
 400 248 l 1,1,2
 400 289 400 289 348 318 c 0,3,4
 305 340 305 340 264 340 c 0,5,6
 240 340 240 340 217 332 c 0,7,8
 194 325 194 325 172 310 c 256,9,10
 150 295 150 295 140 277 c 0,11,12
 129 259 129 259 129 237 c 0,13,14
 129 179 129 179 182 163 c 1,15,16
 177 173 177 173 174 184 c 0,17,18
 171 196 171 196 171 209 c 0,19,20
 171 246 171 246 193 274 c 0,21,22
 204 288 204 288 220 296 c 0,23,24
 237 303 237 303 257 303 c 0,25,26
 291 303 291 303 316 278 c 256,27,28
 341 253 341 253 341 220 c 0,29,30
 341 194 341 194 332 172 c 0,31,32
 323 151 323 151 305 133 c 0,33,34
 288 117 288 117 265 109 c 256,35,36
 242 101 242 101 215 101 c 0,37,38
 87 101 87 101 87 235 c 0,39,40
 87 303 87 303 144 348 c 0,41,42
 171 368 171 368 202 379 c 0,43,44
 234 389 234 389 275 389 c 0,45,46
 334 389 334 389 378 367 c 256,47,48
 422 345 422 345 450 301 c 1,49,50
 491 391 491 391 580 391 c 0,51,52
 590 391 590 391 600 390 c 256,53,54
 610 389 610 389 619 386 c 0,55,56
 628 384 628 384 636 380 c 0,57,58
 645 376 645 376 652 371 c 0,59,60
 660 366 660 366 666 360 c 0,61,62
 673 354 673 354 679 346 c 0,63,64
 691 331 691 331 698 314 c 0,65,66
 706 296 706 296 710 276 c 256,67,68
 714 256 714 256 714 234 c 0,69,70
 714 117 714 117 630 62 c 0,71,72
 598 42 598 42 559 32 c 0,73,74
 519 22 519 22 472 22 c 2,75,-1
 196 22 l 2,76,77
 141 22 141 22 107 -14 c 0,78,79
 72 -50 72 -50 72 -98 c 0,80,81
 72 -201 72 -201 176 -201 c 0,82,83
 229 -201 229 -201 278 -167 c 0,84,85
 303 -151 303 -151 317 -132 c 0,86,87
 332 -113 332 -113 337 -92 c 2,88,-1
 352 -26 l 1,89,-1
 353 -22 l 1,90,-1
 357 -22 l 1,91,-1
 426 -22 l 1,92,-1
 432 -22 l 1,93,-1
 431 -28 l 1,94,-1
 415 -95 l 1,95,-1
 415 -131 l 2,96,97
 415 -155 415 -155 428 -174 c 0,98,99
 448 -200 448 -200 489 -200 c 0,100,101
 542 -200 542 -200 576 -163 c 0,102,103
 611 -126 611 -126 611 -77 c 0,104,105
 611 -35 611 -35 606 -17 c 2,106,-1
 605 -13 l 1,107,-1
 609 -11 l 1,108,-1
 637 -2 l 1,109,-1
 641 -1 l 1,110,-1
 643 -4 l 2,111,112
 652 -15 652 -15 652 -70 c 0,113,114
 652 -98 652 -98 647 -121 c 0,115,116
 642 -145 642 -145 631 -165 c 0,117,118
 620 -184 620 -184 605 -200 c 0,119,120
 581 -223 581 -223 552 -235 c 256,121,122
 523 -247 523 -247 489 -247 c 0,123,124
 387 -247 387 -247 348 -165 c 1,125,126
 314 -206 314 -206 255 -232 c 0,127,128
 206 -253 206 -253 164 -253 c 0,129,130
 98 -253 98 -253 50 -212 c 0,131,132
 -4 -167 -4 -167 -4 -97 c 0,133,134
 -4 -29 -4 -29 44 18 c 0,135,136
 98 70 98 70 190 70 c 2,137,-1
 488 70 l 2,138,139
 562 70 562 70 602 124 c 0,140,141
 634 168 634 168 634 232 c 0,142,143
 634 335 634 335 561 335 c 0,144,145
 557 335 557 335 554 335 c 0,146,147
 550 334 550 334 547 334 c 0,148,149
 544 333 544 333 540 332 c 0,150,151
 537 331 537 331 534 330 c 0,152,153
 531 328 531 328 528 327 c 0,154,155
 525 325 525 325 522 323 c 256,156,157
 519 321 519 321 516 319 c 0,158,159
 513 316 513 316 511 313 c 0,160,161
 497 299 497 299 494 288 c 2,162,-1
 463 122 l 1,163,-1
 462 118 l 1,164,-1
 458 118 l 1,165,-1
 385 116 l 1,166,-1
 379 116 l 1,167,-1
 380 122 l 1,168,-1
 397 218 l 1,0,-1
253 253 m 0,169,170
 234 253 234 253 226 243 c 0,171,172
 217 233 217 233 217 212 c 0,173,174
 217 175 217 175 239 159 c 1,175,176
 258 166 258 166 267 181 c 256,177,178
 276 196 276 196 276 219 c 0,179,180
 276 232 276 232 269 242 c 0,181,182
 268 245 268 245 266 247 c 256,183,184
 264 249 264 249 262 250 c 256,185,186
 260 251 260 251 258 252 c 0,187,188
 255 253 255 253 253 253 c 0,169,170
EndSplineSet
EndChar

StartChar: tmletterO
Encoding: 2962 2962 62
Width: 662
GlyphClass: 2
Flags: W
LayerCount: 2
Fore
SplineSet
308 201 m 0,0,1
 333 176 333 176 333 133 c 0,2,3
 333 73 333 73 300 34 c 0,4,5
 266 -5 266 -5 208 -5 c 0,6,7
 146 -5 146 -5 104 45 c 0,8,9
 84 69 84 69 73 100 c 0,10,11
 63 131 63 131 63 167 c 0,12,13
 63 269 63 269 147 331 c 0,14,15
 227 388 227 388 346 388 c 0,16,17
 472 388 472 388 563 330 c 0,18,19
 662 267 662 267 662 159 c 0,20,21
 662 93 662 93 633 51 c 0,22,23
 600 2 600 2 540 2 c 0,24,25
 501 2 501 2 472 32 c 1,26,-1
 472 32 l 1,27,28
 446 63 446 63 446 106 c 0,29,30
 446 118 446 118 449 132 c 1,31,32
 416 98 416 98 416 58 c 256,33,34
 416 18 416 18 442 -14 c 0,35,36
 467 -45 467 -45 509 -45 c 2,37,-1
 597 -45 l 1,38,-1
 602 -45 l 1,39,-1
 602 -50 l 1,40,-1
 602 -85 l 1,41,-1
 602 -90 l 1,42,-1
 597 -90 l 1,43,-1
 482 -90 l 2,44,45
 438 -90 438 -90 424 -129 c 0,46,47
 400 -203 400 -203 394 -209 c 0,48,49
 376 -232 376 -232 345 -242 c 0,50,51
 314 -253 314 -253 268 -253 c 0,52,53
 237 -253 237 -253 210 -247 c 256,54,55
 183 -241 183 -241 160 -229 c 0,56,57
 101 -199 101 -199 101 -142 c 0,58,59
 101 -88 101 -88 152 -57 c 1,60,-1
 156 -54 l 1,61,-1
 159 -58 l 1,62,-1
 180 -84 l 1,63,-1
 183 -88 l 1,64,-1
 179 -91 l 2,65,66
 147 -113 147 -113 147 -138 c 0,67,68
 147 -207 147 -207 263 -207 c 0,69,70
 279 -207 279 -207 292 -203 c 256,71,72
 305 -199 305 -199 314 -192 c 256,73,74
 323 -185 323 -185 329 -174 c 2,75,-1
 354 -102 l 1,76,-1
 354 -102 l 1,77,78
 372 -62 372 -62 420 -50 c 1,79,80
 377 -2 377 -2 377 62 c 0,81,82
 377 85 377 85 386 107 c 0,83,84
 394 130 394 130 411 150 c 0,85,86
 420 160 420 160 429 169 c 0,87,88
 438 177 438 177 448 183 c 0,89,90
 458 190 458 190 469 194 c 0,91,92
 480 199 480 199 491 201 c 2,93,-1
 494 202 l 1,94,-1
 496 199 l 1,95,-1
 508 179 l 1,96,-1
 510 176 l 1,97,-1
 508 173 l 2,98,99
 497 160 497 160 491 143 c 0,100,101
 486 127 486 127 486 108 c 0,102,103
 486 84 486 84 500 64 c 0,104,105
 514 47 514 47 539 47 c 0,106,107
 581 47 581 47 581 142 c 0,108,109
 581 238 581 238 501 292 c 0,110,111
 432 338 432 338 341 338 c 0,112,113
 247 338 247 338 178 294 c 0,114,115
 104 246 104 246 104 166 c 0,116,117
 104 97 104 97 153 62 c 1,118,119
 145 87 145 87 145 117 c 0,120,121
 145 132 145 132 148 145 c 0,122,123
 151 159 151 159 157 172 c 0,124,125
 162 184 162 184 171 195 c 0,126,127
 185 212 185 212 203 221 c 0,128,129
 220 229 220 229 241 229 c 0,130,131
 283 229 283 229 308 201 c 0,0,1
261 131 m 0,132,133
 261 174 261 174 230 174 c 0,134,135
 223 174 223 174 218 172 c 0,136,137
 212 170 212 170 207 165 c 256,138,139
 202 160 202 160 198 153 c 0,140,141
 192 142 192 142 189 130 c 0,142,143
 186 117 186 117 186 104 c 0,144,145
 186 72 186 72 207 50 c 1,146,147
 232 56 232 56 246 78 c 0,148,149
 261 102 261 102 261 131 c 0,132,133
EndSplineSet
EndChar

StartChar: tmletterOO
Encoding: 2963 2963 63
Width: 663
GlyphClass: 2
Flags: W
LayerCount: 2
Fore
SplineSet
423 -130 m 0,0,1
 415 -163 415 -163 409 -182 c 0,2,3
 402 -201 402 -201 396 -209 c 0,4,5
 362 -252 362 -252 271 -252 c 0,6,7
 206 -252 206 -252 160 -227 c 0,8,9
 103 -197 103 -197 103 -141 c 0,10,11
 103 -107 103 -107 124 -81 c 256,12,13
 145 -55 145 -55 181 -55 c 256,14,15
 217 -55 217 -55 240 -79 c 0,16,17
 262 -103 262 -103 262 -139 c 0,18,19
 262 -183 262 -183 249 -204 c 1,20,-1
 253 -205 l 1,21,22
 309 -205 309 -205 328 -174 c 1,23,-1
 353 -105 l 1,24,-1
 353 -105 l 1,25,26
 372 -65 372 -65 425 -50 c 1,27,28
 401 -29 401 -29 388 -1 c 0,29,30
 376 26 376 26 376 60 c 0,31,32
 376 159 376 159 487 202 c 1,33,-1
 491 203 l 1,34,-1
 493 200 l 1,35,-1
 511 179 l 1,36,-1
 514 175 l 1,37,-1
 510 172 l 2,38,39
 499 163 499 163 494 148 c 0,40,41
 488 133 488 133 488 112 c 0,42,43
 488 99 488 99 491 87 c 0,44,45
 494 76 494 76 500 66 c 0,46,47
 511 48 511 48 531 48 c 0,48,49
 582 48 582 48 582 139 c 256,50,51
 582 230 582 230 507 287 c 0,52,53
 438 338 438 338 340 338 c 256,54,55
 242 338 242 338 173 290 c 0,56,57
 105 243 105 243 105 163 c 0,58,59
 105 130 105 130 117 106 c 0,60,61
 130 82 130 82 154 65 c 1,62,63
 143 89 143 89 143 114 c 0,64,65
 143 158 143 158 170 193 c 256,66,67
 197 228 197 228 238 228 c 0,68,69
 282 228 282 228 308 201 c 0,70,71
 334 175 334 175 334 131 c 0,72,73
 334 75 334 75 300 35 c 0,74,75
 266 -6 266 -6 210 -6 c 0,76,77
 147 -6 147 -6 104 43 c 0,78,79
 62 91 62 91 62 160 c 0,80,81
 62 263 62 263 148 328 c 0,82,83
 228 388 228 388 347 388 c 0,84,85
 474 388 474 388 564 329 c 0,86,87
 596 308 596 308 618 281 c 0,88,89
 640 255 640 255 651 224 c 0,90,91
 662 192 662 192 662 156 c 0,92,93
 662 94 662 94 632 48 c 256,94,95
 602 2 602 2 541 2 c 0,96,97
 501 2 501 2 472 32 c 0,98,99
 444 62 444 62 444 102 c 0,100,101
 444 116 444 116 448 134 c 1,102,103
 417 103 417 103 417 54 c 0,104,105
 417 42 417 42 420 30 c 256,106,107
 423 18 423 18 428 7 c 0,108,109
 434 -4 434 -4 443 -14 c 0,110,111
 468 -45 468 -45 507 -45 c 2,112,-1
 604 -45 l 1,113,-1
 610 -45 l 1,114,-1
 609 -51 l 1,115,-1
 602 -89 l 1,116,-1
 601 -93 l 1,117,-1
 597 -93 l 1,118,-1
 468 -93 l 2,119,120
 434 -93 434 -93 423 -130 c 0,0,1
261 128 m 0,121,122
 261 146 261 146 251 159 c 1,123,-1
 251 159 l 1,124,125
 243 172 243 172 228 172 c 0,126,127
 210 172 210 172 198 152 c 256,128,129
 186 132 186 132 186 105 c 0,130,131
 186 72 186 72 205 52 c 1,132,133
 218 54 218 54 228 60 c 0,134,135
 237 66 237 66 245 76 c 0,136,137
 261 98 261 98 261 128 c 0,121,122
220 -145 m 0,138,139
 220 -127 220 -127 209 -112 c 0,140,141
 199 -98 199 -98 180 -98 c 0,142,143
 147 -98 147 -98 147 -139 c 0,144,145
 147 -159 147 -159 159 -173 c 256,146,147
 171 -187 171 -187 196 -196 c 1,148,149
 220 -176 220 -176 220 -145 c 0,138,139
EndSplineSet
EndChar

StartChar: tmletterAU
Encoding: 2964 2964 64
Width: 1454
GlyphClass: 2
Flags: W
LayerCount: 2
Fore
SplineSet
1498 371 m 1,0,-1
 1492 336 l 1,1,-1
 1491 332 l 1,2,-1
 1487 332 l 1,3,-1
 1389 331 l 1,4,-1
 1320 1 l 1,5,-1
 1319 -3 l 1,6,-1
 1315 -3 l 1,7,-1
 1248 -3 l 1,8,-1
 1242 -3 l 1,9,-1
 1243 3 l 1,10,-1
 1309 331 l 1,11,-1
 1198 331 l 1,12,-1
 1130 1 l 1,13,-1
 1129 -3 l 1,14,-1
 1125 -3 l 1,15,-1
 1061 -3 l 1,16,-1
 1055 -3 l 1,17,-1
 1056 3 l 1,18,-1
 1079 129 l 2,19,20
 1088 176 1088 176 1088 224 c 0,21,22
 1088 235 1088 235 1085.5 245.5 c 128,-1,23
 1083 256 1083 256 1078.5 266 c 128,-1,24
 1074 276 1074 276 1066.5 285 c 128,-1,25
 1059 294 1059 294 1050 303 c 0,26,27
 1011 337 1011 337 963 337 c 0,28,29
 939 337 939 337 916.5 331.5 c 128,-1,30
 894 326 894 326 873.5 315 c 128,-1,31
 853 304 853 304 834 287.5 c 128,-1,32
 815 271 815 271 802.5 252 c 128,-1,33
 790 233 790 233 784 212.5 c 128,-1,34
 778 192 778 192 778 169 c 0,35,36
 778 100 778 100 816 67 c 1,37,38
 810 86 810 86 810 108 c 0,39,40
 810 165 810 165 839 199 c 0,41,42
 869 234 869 234 909 234 c 0,43,44
 1006 234 1006 234 1006 136 c 0,45,46
 1006 77 1006 77 973 34 c 256,47,48
 940 -9 940 -9 883 -9 c 0,49,50
 851 -9 851 -9 824 3 c 128,-1,51
 797 15 797 15 776 39.5 c 128,-1,52
 755 64 755 64 744.5 93.5 c 128,-1,53
 734 123 734 123 734 158 c 0,54,55
 734 204 734 204 751.5 244 c 128,-1,56
 769 284 769 284 805 320 c 0,57,58
 838 352 838 352 876 368 c 128,-1,59
 914 384 914 384 955 384 c 0,60,61
 980 384 980 384 1002.5 379.5 c 128,-1,62
 1025 375 1025 375 1045 366 c 128,-1,63
 1065 357 1065 357 1082 343 c 0,64,65
 1093 335 1093 335 1101.5 325 c 128,-1,66
 1110 315 1110 315 1117.5 304.5 c 128,-1,67
 1125 294 1125 294 1130.5 282 c 128,-1,68
 1136 270 1136 270 1141 258 c 1,69,-1
 1165 373 l 1,70,-1
 1166 377 l 1,71,-1
 1170 377 l 1,72,-1
 1493 377 l 1,73,-1
 1499 377 l 1,74,-1
 1498 371 l 1,0,-1
925 133 m 0,75,76
 925 179 925 179 895 179 c 0,77,78
 884 179 884 179 876.5 174 c 128,-1,79
 869 169 869 169 863 159 c 0,80,81
 860 152 860 152 857.5 144.5 c 128,-1,82
 855 137 855 137 853.5 129 c 128,-1,83
 852 121 852 121 852 112 c 0,84,85
 852 102 852 102 853 93.5 c 128,-1,86
 854 85 854 85 855.5 78 c 128,-1,87
 857 71 857 71 859 65 c 128,-1,88
 861 59 861 59 864 54 c 1,89,90
 890 58 890 58 907 82 c 0,91,92
 916 96 916 96 920.5 108.5 c 128,-1,93
 925 121 925 121 925 133 c 0,75,76
308 201 m 0,94,95
 333 176 333 176 333 133 c 0,96,97
 333 73 333 73 300 34 c 0,98,99
 266 -5 266 -5 208 -5 c 0,100,101
 146 -5 146 -5 104 45 c 0,102,103
 84 69 84 69 73.5 100 c 128,-1,104
 63 131 63 131 63 167 c 0,105,106
 63 269 63 269 147 331 c 0,107,108
 227 388 227 388 346 388 c 0,109,110
 472 388 472 388 563 330 c 0,111,112
 662 267 662 267 662 159 c 0,113,114
 662 93 662 93 633 51 c 0,115,116
 600 2 600 2 540 2 c 0,117,118
 501 2 501 2 472 32 c 1,119,-1
 472 32 l 1,120,121
 446 63 446 63 446 106 c 0,122,123
 446 118 446 118 449 132 c 1,124,125
 416 98 416 98 416 58 c 128,-1,126
 416 18 416 18 442 -14 c 0,127,128
 467 -45 467 -45 509 -45 c 2,129,-1
 597 -45 l 1,130,-1
 602 -45 l 1,131,-1
 602 -50 l 1,132,-1
 602 -85 l 1,133,-1
 602 -90 l 1,134,-1
 597 -90 l 1,135,-1
 482 -90 l 2,136,137
 438 -90 438 -90 424 -129 c 0,138,139
 400 -203 400 -203 394 -209 c 0,140,141
 376 -232 376 -232 345 -242.5 c 128,-1,142
 314 -253 314 -253 268 -253 c 0,143,144
 237 -253 237 -253 210 -247 c 128,-1,145
 183 -241 183 -241 160 -229 c 0,146,147
 101 -199 101 -199 101 -142 c 0,148,149
 101 -88 101 -88 152 -57 c 1,150,-1
 156 -54 l 1,151,-1
 159 -58 l 1,152,-1
 180 -84 l 1,153,-1
 183 -88 l 1,154,-1
 179 -91 l 2,155,156
 147 -113 147 -113 147 -138 c 0,157,158
 147 -207 147 -207 263 -207 c 0,159,160
 279 -207 279 -207 292 -203 c 128,-1,161
 305 -199 305 -199 314 -192 c 128,-1,162
 323 -185 323 -185 329 -174 c 2,163,-1
 354 -102 l 1,164,-1
 354 -102 l 1,165,166
 372 -62 372 -62 420 -50 c 1,167,168
 377 -2 377 -2 377 62 c 0,169,170
 377 85 377 85 385.5 107.5 c 128,-1,171
 394 130 394 130 411 150 c 0,172,173
 420 160 420 160 429 168.5 c 128,-1,174
 438 177 438 177 448 183.5 c 128,-1,175
 458 190 458 190 469 194.5 c 128,-1,176
 480 199 480 199 491 201 c 2,177,-1
 494 202 l 1,178,-1
 496 199 l 1,179,-1
 508 179 l 1,180,-1
 510 176 l 1,181,-1
 508 173 l 2,182,183
 497 160 497 160 491.5 143.5 c 128,-1,184
 486 127 486 127 486 108 c 0,185,186
 486 84 486 84 500 64 c 0,187,188
 514 47 514 47 539 47 c 0,189,190
 581 47 581 47 581 142 c 0,191,192
 581 238 581 238 501 292 c 0,193,194
 432 338 432 338 341 338 c 0,195,196
 247 338 247 338 178 294 c 0,197,198
 104 246 104 246 104 166 c 0,199,200
 104 97 104 97 153 62 c 1,201,202
 145 87 145 87 145 117 c 0,203,204
 145 132 145 132 148 145.5 c 128,-1,205
 151 159 151 159 156.5 171.5 c 128,-1,206
 162 184 162 184 171 195 c 0,207,208
 185 212 185 212 202.5 220.5 c 128,-1,209
 220 229 220 229 241 229 c 0,210,211
 283 229 283 229 308 201 c 0,94,95
261 131 m 0,212,213
 261 174 261 174 230 174 c 0,214,215
 223 174 223 174 217.5 172 c 128,-1,216
 212 170 212 170 207 165 c 128,-1,217
 202 160 202 160 198 153 c 0,218,219
 192 142 192 142 189 129.5 c 128,-1,220
 186 117 186 117 186 104 c 0,221,222
 186 72 186 72 207 50 c 1,223,224
 232 56 232 56 246 78 c 0,225,226
 261 102 261 102 261 131 c 0,212,213
EndSplineSet
EndChar

StartChar: tmletterKA
Encoding: 2965 2965 65
Width: 561
GlyphClass: 2
Flags: W
LayerCount: 2
Fore
SplineSet
568 384 m 5,0,-1
 560 348 l 5,1,-1
 559 344 l 5,2,-1
 555 344 l 5,3,-1
 430 343 l 5,4,-1
 405 221 l 5,5,-1
 464 220 l 6,6,7
 507 220 507 220 536 188 c 4,8,9
 547 176 547 176 552 160 c 4,10,11
 558 144 558 144 558 125 c 4,12,13
 558 112 558 112 556 99 c 4,14,15
 553 87 553 87 548 75 c 4,16,17
 543 64 543 64 536 54 c 4,18,19
 528 43 528 43 518 34 c 4,20,21
 499 17 499 17 477 7 c 4,22,23
 453 -3 453 -3 427 -3 c 6,24,-1
 423 -3 l 5,25,-1
 422 0 l 5,26,-1
 411 31 l 5,27,-1
 410 36 l 5,28,-1
 414 38 l 5,29,30
 478 63 478 63 478 125 c 4,31,32
 478 175 478 175 428 175 c 6,33,-1
 396 174 l 5,34,-1
 377 103 l 6,35,36
 347 -10 347 -10 228 -10 c 4,37,38
 164 -10 164 -10 112 28 c 4,39,40
 85 47 85 47 71 72 c 4,41,42
 58 97 58 97 58 128 c 4,43,44
 58 146 58 146 65 162 c 260,45,46
 72 178 72 178 85 192 c 4,47,48
 112 220 112 220 163 220 c 6,49,-1
 175 220 l 5,50,-1
 215 386 l 5,51,-1
 216 390 l 5,52,-1
 220 390 l 5,53,-1
 563 390 l 5,54,-1
 569 390 l 5,55,-1
 568 384 l 5,0,-1
345 343 m 5,56,-1
 250 343 l 5,57,-1
 224 221 l 5,58,-1
 321 221 l 5,59,-1
 345 343 l 5,56,-1
312 174 m 5,60,-1
 166 175 l 6,61,62
 139 175 139 175 118 160 c 4,63,64
 99 146 99 146 99 124 c 4,65,66
 99 93 99 93 133 68 c 4,67,68
 168 42 168 42 208 42 c 4,69,70
 236 42 236 42 262 56 c 4,71,72
 292 74 292 74 300 112 c 6,73,-1
 312 174 l 5,60,-1
EndSplineSet
EndChar

StartChar: tmletterNGA
Encoding: 2969 2969 66
Width: 697
GlyphClass: 2
Flags: W
LayerCount: 2
Fore
SplineSet
702 373 m 5,0,-1
 635 4 l 5,1,-1
 634 0 l 5,2,-1
 630 0 l 5,3,-1
 231 0 l 5,4,-1
 225 0 l 5,5,-1
 226 6 l 5,6,-1
 231 41 l 5,7,-1
 232 45 l 5,8,-1
 236 45 l 5,9,-1
 370 46 l 5,10,11
 421 98 421 98 421 152 c 4,12,13
 421 171 421 171 407 186 c 4,14,15
 394 200 394 200 373 200 c 4,16,17
 368 200 368 200 364 199 c 260,18,19
 360 198 360 198 356 197 c 4,20,21
 351 195 351 195 347 192 c 4,22,23
 336 185 336 185 331 178 c 6,24,-1
 317 105 l 5,25,-1
 316 101 l 5,26,-1
 312 101 l 5,27,-1
 244 101 l 5,28,-1
 238 101 l 5,29,-1
 239 107 l 5,30,-1
 277 338 l 5,31,-1
 185 338 l 5,32,-1
 125 3 l 5,33,-1
 124 -1 l 5,34,-1
 120 -1 l 5,35,-1
 86 -1 l 5,36,-1
 80 -1 l 5,37,-1
 81 5 l 5,38,-1
 144 375 l 5,39,-1
 145 379 l 5,40,-1
 149 379 l 5,41,-1
 522 379 l 5,42,-1
 528 379 l 5,43,-1
 527 373 l 5,44,-1
 521 343 l 5,45,-1
 520 339 l 5,46,-1
 516 339 l 5,47,-1
 357 338 l 5,48,-1
 340 237 l 5,49,50
 346 241 346 241 353 245 c 4,51,52
 360 248 360 248 368 250 c 4,53,54
 376 253 376 253 384 254 c 4,55,56
 393 255 393 255 402 255 c 4,57,58
 413 255 413 255 423 253 c 4,59,60
 432 251 432 251 441 247 c 4,61,62
 450 244 450 244 458 238 c 260,63,64
 466 232 466 232 473 225 c 4,65,66
 487 210 487 210 494 193 c 260,67,68
 501 176 501 176 501 157 c 4,69,70
 501 126 501 126 492 98 c 4,71,72
 482 71 482 71 464 47 c 5,73,-1
 563 46 l 5,74,-1
 628 375 l 5,75,-1
 629 379 l 5,76,-1
 633 379 l 5,77,-1
 697 379 l 5,78,-1
 703 379 l 5,79,-1
 702 373 l 5,0,-1
EndSplineSet
EndChar

StartChar: tmletterCA
Encoding: 2970 2970 67
Width: 494
GlyphClass: 2
Flags: W
LayerCount: 2
Fore
SplineSet
153 222 m 2,0,-1
 170 223 l 1,1,-1
 209 396 l 1,2,-1
 210 400 l 1,3,-1
 214 400 l 1,4,-1
 555 400 l 1,5,-1
 561 400 l 1,6,-1
 560 394 l 1,7,-1
 553 358 l 1,8,-1
 552 354 l 1,9,-1
 548 354 l 1,10,-1
 426 353 l 1,11,-1
 397 223 l 1,12,-1
 510 222 l 1,13,-1
 516 222 l 1,14,-1
 515 216 l 1,15,-1
 506 178 l 1,16,-1
 505 174 l 1,17,-1
 501 174 l 1,18,-1
 385 173 l 1,19,-1
 369 106 l 2,20,21
 356 51 356 51 303 21 c 0,22,23
 281 9 281 9 257 3 c 0,24,25
 232 -3 232 -3 205 -3 c 0,26,27
 143 -3 143 -3 98 32 c 0,28,29
 73 51 73 51 60 76 c 0,30,31
 47 100 47 100 47 130 c 0,32,33
 47 168 47 168 76 194 c 0,34,35
 83 200 83 200 92 205 c 0,36,37
 100 210 100 210 110 214 c 0,38,39
 129 222 129 222 153 222 c 2,0,-1
345 353 m 1,40,-1
 245 353 l 1,41,-1
 216 223 l 1,42,-1
 314 223 l 1,43,-1
 345 353 l 1,40,-1
303 173 m 1,44,-1
 147 174 l 2,45,46
 90 174 90 174 90 125 c 0,47,48
 90 96 90 96 123 71 c 0,49,50
 157 46 157 46 196 46 c 0,51,52
 274 46 274 46 291 119 c 2,53,-1
 303 173 l 1,44,-1
EndSplineSet
EndChar

StartChar: tmletterJA
Encoding: 2972 2972 68
Width: 702
GlyphClass: 2
Flags: W
LayerCount: 2
Fore
SplineSet
401 200 m 5,0,-1
 404 230 l 5,1,2
 404 275 404 275 360 305 c 4,3,4
 321 331 321 331 271 331 c 4,5,6
 213 331 213 331 174 298 c 4,7,8
 135 266 135 266 135 219 c 4,9,10
 135 161 135 161 191 145 c 5,11,12
 187 152 187 152 184 160 c 260,13,14
 181 168 181 168 179 177 c 4,15,16
 178 186 178 186 178 196 c 4,17,18
 178 234 178 234 200 262 c 4,19,20
 208 272 208 272 218 278 c 4,21,22
 227 285 227 285 240 288 c 4,23,24
 252 291 252 291 266 291 c 4,25,26
 274 291 274 291 282 289 c 4,27,28
 290 288 290 288 297 285 c 260,29,30
 304 282 304 282 311 277 c 4,31,32
 317 272 317 272 322 266 c 4,33,34
 330 257 330 257 334 248 c 4,35,36
 339 238 339 238 342 226 c 4,37,38
 344 215 344 215 344 202 c 4,39,40
 344 178 344 178 335 157 c 260,41,42
 326 136 326 136 308 118 c 4,43,44
 273 85 273 85 223 85 c 4,45,46
 195 85 195 85 173 93 c 4,47,48
 150 102 150 102 133 118 c 4,49,50
 97 155 97 155 97 217 c 4,51,52
 97 288 97 288 147 333 c 260,53,54
 197 378 197 378 282 378 c 4,55,56
 391 378 391 378 456 293 c 5,57,58
 468 324 468 324 493 349 c 4,59,60
 528 382 528 382 576 382 c 4,61,62
 610 382 610 382 637 368 c 4,63,64
 664 353 664 353 683 325 c 4,65,66
 699 302 699 302 706 274 c 4,67,68
 714 247 714 247 714 216 c 4,69,70
 714 159 714 159 694 117 c 260,71,72
 674 75 674 75 634 47 c 4,73,74
 572 5 572 5 480 5 c 6,75,-1
 181 5 l 6,76,77
 144 5 144 5 111 -32 c 4,78,79
 80 -71 80 -71 80 -116 c 4,80,81
 80 -164 80 -164 109 -196 c 4,82,83
 137 -227 137 -227 173 -227 c 260,84,85
 209 -227 209 -227 261 -177 c 4,86,87
 308 -131 308 -131 331 -108 c 4,88,89
 354 -86 354 -86 358 -83 c 4,90,91
 480 -31 480 -31 498 -31 c 4,92,93
 554 -31 554 -31 597 -61 c 4,94,95
 641 -91 641 -91 641 -146 c 4,96,97
 641 -203 641 -203 597 -241 c 4,98,99
 553 -278 553 -278 493 -278 c 4,100,101
 441 -278 441 -278 392 -241 c 5,102,-1
 387 -238 l 5,103,-1
 391 -234 l 5,104,-1
 415 -209 l 5,105,-1
 419 -205 l 5,106,-1
 422 -208 l 6,107,108
 431 -215 431 -215 441 -219 c 4,109,110
 451 -224 451 -224 463 -226 c 260,111,112
 475 -228 475 -228 489 -228 c 4,113,114
 496 -228 496 -228 502 -227 c 260,115,116
 508 -226 508 -226 514 -224 c 260,117,118
 520 -222 520 -222 525 -219 c 4,119,120
 531 -216 531 -216 536 -212 c 4,121,122
 542 -208 542 -208 546 -203 c 5,123,-1
 547 -203 l 5,124,125
 572 -181 572 -181 572 -145 c 4,126,127
 572 -137 572 -137 570 -130 c 4,128,129
 569 -123 569 -123 566 -117 c 260,130,131
 563 -111 563 -111 558 -105 c 4,132,133
 553 -100 553 -100 547 -95 c 4,134,135
 534 -86 534 -86 518 -82 c 4,136,137
 502 -77 502 -77 483 -77 c 4,138,139
 432 -77 432 -77 377 -127 c 5,140,-1
 286 -221 l 5,141,142
 230 -273 230 -273 171 -273 c 4,143,144
 101 -273 101 -273 53 -230 c 4,145,146
 5 -186 5 -186 5 -114 c 4,147,148
 5 -52 5 -52 54 0 c 4,149,150
 104 52 104 52 170 52 c 6,151,-1
 495 52 l 6,152,153
 567 52 567 52 606 111 c 4,154,155
 636 157 636 157 636 214 c 4,156,157
 636 256 636 256 617 287 c 4,158,159
 606 305 606 305 592 314 c 260,160,161
 578 323 578 323 560 323 c 4,162,163
 507 323 507 323 496 269 c 6,164,-1
 461 102 l 5,165,-1
 460 98 l 5,166,-1
 456 98 l 5,167,-1
 388 98 l 5,168,-1
 382 98 l 5,169,-1
 383 104 l 5,170,-1
 401 200 l 5,0,-1
277 203 m 4,171,172
 277 237 277 237 255 237 c 4,173,174
 218 237 218 237 218 196 c 4,175,176
 218 178 218 178 224 165 c 4,177,178
 229 152 229 152 240 143 c 5,179,180
 277 158 277 158 277 203 c 4,171,172
EndSplineSet
EndChar

StartChar: tmletterNYA
Encoding: 2974 2974 69
Width: 882
GlyphClass: 2
Flags: W
LayerCount: 2
Fore
SplineSet
869 87 m 0,0,1
 869 -53 869 -53 759 -160 c 0,2,3
 649 -266 649 -266 494 -266 c 0,4,5
 315 -266 315 -266 189 -165 c 0,6,7
 57 -57 57 -57 57 107 c 0,8,9
 57 192 57 192 100 271 c 0,10,11
 118 305 118 305 140 332 c 0,12,13
 163 358 163 358 190 377 c 2,14,-1
 194 380 l 1,15,-1
 197 376 l 1,16,-1
 219 350 l 1,17,-1
 222 346 l 1,18,-1
 218 343 l 2,19,20
 200 330 200 330 185 315 c 0,21,22
 169 299 169 299 156 281 c 0,23,24
 143 262 143 262 131 241 c 0,25,26
 116 208 116 208 108 176 c 0,27,28
 104 160 104 160 102 142 c 256,29,30
 100 124 100 124 100 104 c 0,31,32
 100 37 100 37 128 -20 c 256,33,34
 156 -77 156 -77 213 -124 c 0,35,36
 321 -214 321 -214 461 -214 c 0,37,38
 636 -214 636 -214 725 -93 c 0,39,40
 786 -7 786 -7 786 100 c 0,41,42
 786 173 786 173 735 173 c 0,43,44
 708 173 708 173 698 161 c 1,45,-1
 663 1 l 1,46,-1
 662 -3 l 1,47,-1
 658 -3 l 1,48,-1
 586 -3 l 1,49,-1
 580 -3 l 1,50,-1
 581 3 l 1,51,-1
 648 331 l 1,52,-1
 446 332 l 2,53,54
 435 332 435 332 425 331 c 0,55,56
 414 331 414 331 404 329 c 0,57,58
 394 328 394 328 384 325 c 0,59,60
 375 323 375 323 365 320 c 0,61,62
 356 317 356 317 347 314 c 0,63,64
 338 310 338 310 329 306 c 0,65,66
 321 301 321 301 313 296 c 0,67,68
 304 291 304 291 296 285 c 0,69,70
 265 262 265 262 250 233 c 0,71,72
 234 203 234 203 234 166 c 0,73,74
 234 106 234 106 274 70 c 1,75,-1
 272 84 l 2,76,77
 271 95 271 95 271 108 c 0,78,79
 271 118 271 118 272 128 c 0,80,81
 273 137 273 137 275 146 c 256,82,83
 277 155 277 155 281 163 c 0,84,85
 284 172 284 172 288 179 c 0,86,87
 293 186 293 186 298 193 c 0,88,89
 312 212 312 212 332 221 c 0,90,91
 353 231 353 231 378 231 c 0,92,93
 418 231 418 231 445 202 c 256,94,95
 472 173 472 173 472 134 c 0,96,97
 472 71 472 71 435 32 c 0,98,99
 398 -8 398 -8 338 -8 c 0,100,101
 277 -8 277 -8 234 39 c 0,102,103
 192 86 192 86 192 162 c 0,104,105
 192 257 192 257 264 317 c 0,106,107
 335 377 335 377 440 377 c 2,108,-1
 843 377 l 1,109,-1
 849 377 l 1,110,-1
 848 371 l 1,111,-1
 840 336 l 1,112,-1
 839 332 l 1,113,-1
 835 332 l 1,114,-1
 733 331 l 1,115,-1
 712 222 l 1,116,117
 716 223 716 223 720 224 c 0,118,119
 725 224 725 224 730 225 c 0,120,121
 735 225 735 225 741 226 c 0,122,123
 747 226 747 226 753 226 c 0,124,125
 782 226 782 226 804 215 c 0,126,127
 827 204 827 204 842 183 c 0,128,129
 856 164 856 164 862 140 c 0,130,131
 869 116 869 116 869 87 c 0,0,1
392 137 m 0,132,133
 392 175 392 175 358 175 c 0,134,135
 348 175 348 175 340 170 c 256,136,137
 332 165 332 165 325 154 c 0,138,139
 312 132 312 132 312 102 c 0,140,141
 312 68 312 68 320 52 c 1,142,143
 336 52 336 52 348 58 c 0,144,145
 360 65 360 65 371 78 c 0,146,147
 381 91 381 91 387 106 c 0,148,149
 392 120 392 120 392 137 c 0,132,133
EndSplineSet
EndChar

StartChar: tmletterTTA
Encoding: 2975 2975 70
Width: 840
GlyphClass: 2
Flags: W
LayerCount: 2
Fore
SplineSet
814 39 m 5,0,-1
 806 4 l 5,1,-1
 805 0 l 5,2,-1
 801 0 l 5,3,-1
 44 0 l 5,4,-1
 38 0 l 5,5,-1
 39 6 l 5,6,-1
 117 380 l 5,7,-1
 118 384 l 5,8,-1
 122 384 l 5,9,-1
 195 384 l 5,10,-1
 201 384 l 5,11,-1
 200 378 l 5,12,-1
 132 46 l 5,13,-1
 809 45 l 5,14,-1
 815 45 l 5,15,-1
 814 39 l 5,0,-1
EndSplineSet
EndChar

StartChar: tmletterNNA
Encoding: 2979 2979 71
Width: 1110
GlyphClass: 2
Flags: W
LayerCount: 2
Fore
SplineSet
1172 377 m 5,0,-1
 1163 342 l 5,1,-1
 1162 338 l 5,2,-1
 1158 338 l 5,3,-1
 1068 337 l 5,4,-1
 997 3 l 5,5,-1
 996 -1 l 5,6,-1
 992 -1 l 5,7,-1
 923 -1 l 5,8,-1
 917 -1 l 5,9,-1
 918 5 l 5,10,-1
 987 337 l 5,11,-1
 911 338 l 6,12,13
 892 338 892 338 869 332 c 4,14,15
 860 329 860 329 849 325 c 4,16,17
 839 321 839 321 828 316 c 5,18,19
 857 283 857 283 872 245 c 4,20,21
 886 207 886 207 886 163 c 4,22,23
 886 100 886 100 860 53 c 4,24,25
 829 -6 829 -6 771 -6 c 4,26,27
 724 -6 724 -6 694 31 c 4,28,29
 665 67 665 67 665 124 c 4,30,31
 665 176 665 176 683 222 c 260,32,33
 701 268 701 268 735 305 c 5,34,35
 689 338 689 338 629 338 c 4,36,37
 589 338 589 338 546 314 c 5,38,39
 612 249 612 249 612 153 c 4,40,41
 612 142 612 142 611 131 c 4,42,43
 611 121 611 121 610 112 c 260,44,45
 609 103 609 103 607 94 c 4,46,47
 602 70 602 70 588 47 c 4,48,49
 573 21 573 21 550 8 c 260,50,51
 527 -5 527 -5 497 -5 c 4,52,53
 450 -5 450 -5 420 32 c 5,54,-1
 420 32 l 5,55,56
 393 70 393 70 393 126 c 4,57,58
 393 173 393 173 409 216 c 260,59,60
 425 259 425 259 458 299 c 5,61,62
 402 337 402 337 314 337 c 4,63,64
 211 337 211 337 150 284 c 4,65,66
 125 261 125 261 113 232 c 4,67,68
 100 204 100 204 100 170 c 260,69,70
 100 136 100 136 116 104 c 4,71,72
 128 81 128 81 147 68 c 5,73,74
 137 91 137 91 137 118 c 4,75,76
 137 142 137 142 143 162 c 4,77,78
 150 181 150 181 164 200 c 4,79,80
 197 239 197 239 245 239 c 4,81,82
 288 239 288 239 317 206 c 5,83,-1
 317 206 l 5,84,85
 328 192 328 192 333 175 c 4,86,87
 339 158 339 158 339 139 c 4,88,89
 339 118 339 118 335 100 c 260,90,91
 331 82 331 82 324 66 c 4,92,93
 316 50 316 50 304 37 c 4,94,95
 287 17 287 17 263 7 c 4,96,97
 238 -3 238 -3 208 -3 c 4,98,99
 144 -3 144 -3 101 44 c 4,100,101
 59 91 59 91 59 168 c 4,102,103
 59 269 59 269 138 329 c 4,104,105
 216 388 216 388 337 388 c 4,106,107
 434 388 434 388 507 344 c 5,108,109
 540 368 540 368 572 380 c 4,110,111
 605 392 605 392 640 392 c 4,112,113
 724 392 724 392 792 347 c 5,114,115
 827 365 827 365 863 374 c 260,116,117
 899 383 899 383 939 383 c 6,118,-1
 1167 383 l 5,119,-1
 1173 383 l 5,120,-1
 1172 377 l 5,0,-1
530 147 m 4,121,122
 530 218 530 218 493 268 c 5,123,124
 437 203 437 203 437 126 c 4,125,126
 437 59 437 59 478 59 c 4,127,128
 530 59 530 59 530 147 c 4,121,122
799 155 m 4,129,130
 799 222 799 222 768 269 c 5,131,132
 710 210 710 210 710 127 c 4,133,134
 710 123 710 123 710 120 c 4,135,136
 710 116 710 116 711 112 c 4,137,138
 711 109 711 109 712 105 c 4,139,140
 712 102 712 102 713 98 c 4,141,142
 714 95 714 95 715 91 c 4,143,144
 716 88 716 88 717 85 c 4,145,146
 718 81 718 81 720 78 c 4,147,148
 724 67 724 67 731 62 c 4,149,150
 737 57 737 57 746 57 c 4,151,152
 799 57 799 57 799 155 c 4,129,130
259 140 m 4,153,154
 259 181 259 181 226 181 c 4,155,156
 215 181 215 181 207 176 c 4,157,158
 198 171 198 171 192 161 c 4,159,160
 185 151 185 151 181 139 c 4,161,162
 178 127 178 127 178 113 c 4,163,164
 178 96 178 96 182 83 c 4,165,166
 185 69 185 69 192 60 c 5,167,168
 222 67 222 67 242 91 c 4,169,170
 259 113 259 113 259 140 c 4,153,154
EndSplineSet
EndChar

StartChar: tmletterTA
Encoding: 2980 2980 72
Width: 583
GlyphClass: 2
Flags: W
LayerCount: 2
Fore
SplineSet
577 115 m 4,0,1
 577 95 577 95 574 76 c 260,2,3
 571 57 571 57 564 40 c 4,4,5
 558 24 558 24 549 9 c 4,6,7
 539 -6 539 -6 527 -20 c 4,8,9
 514 -33 514 -33 499 -44 c 4,10,11
 429 -93 429 -93 314 -93 c 6,12,-1
 139 -93 l 6,13,14
 76 -93 76 -93 76 -121 c 4,15,16
 76 -128 76 -128 87 -133 c 4,17,18
 88 -133 88 -133 89 -134 c 4,19,20
 98 -138 98 -138 103 -146 c 4,21,22
 108 -155 108 -155 108 -167 c 4,23,24
 108 -203 108 -203 68 -203 c 4,25,26
 21 -203 21 -203 21 -139 c 4,27,28
 21 -49 21 -49 129 -49 c 6,29,-1
 312 -49 l 6,30,31
 338 -49 338 -49 360 -45 c 4,32,33
 383 -40 383 -40 402 -31 c 4,34,35
 422 -22 422 -22 438 -9 c 4,36,37
 466 14 466 14 480 46 c 4,38,39
 494 77 494 77 494 119 c 4,40,41
 494 133 494 133 491 144 c 4,42,43
 488 154 488 154 482 161 c 4,44,45
 475 168 475 168 466 171 c 260,46,47
 457 174 457 174 444 174 c 6,48,-1
 389 173 l 5,49,-1
 371 95 l 6,50,51
 360 48 360 48 314 20 c 4,52,53
 293 8 293 8 270 2 c 260,54,55
 247 -4 247 -4 222 -4 c 4,56,57
 157 -4 157 -4 108 32 c 4,58,59
 82 50 82 50 70 75 c 4,60,61
 57 99 57 99 57 130 c 4,62,63
 57 168 57 168 89 198 c 4,64,65
 120 227 120 227 175 228 c 5,66,-1
 213 385 l 5,67,-1
 214 389 l 5,68,-1
 218 389 l 5,69,-1
 557 389 l 5,70,-1
 564 389 l 5,71,-1
 562 383 l 5,72,-1
 552 346 l 5,73,-1
 551 342 l 5,74,-1
 547 342 l 5,75,-1
 426 341 l 5,76,-1
 400 225 l 5,77,-1
 446 224 l 6,78,79
 577 224 577 224 577 115 c 4,0,1
343 341 m 5,80,-1
 247 341 l 5,81,-1
 221 225 l 5,82,-1
 317 225 l 5,83,-1
 343 341 l 5,80,-1
305 173 m 5,84,-1
 155 174 l 6,85,86
 138 174 138 174 127 171 c 260,87,88
 116 168 116 168 110 162 c 4,89,90
 98 151 98 151 98 131 c 4,91,92
 98 92 98 92 134 68 c 4,93,94
 164 48 164 48 206 48 c 4,95,96
 237 48 237 48 262 65 c 4,97,98
 287 81 287 81 293 112 c 6,99,-1
 305 173 l 5,84,-1
EndSplineSet
EndChar

StartChar: tmletterNA
Encoding: 2984 2984 73
Width: 521
GlyphClass: 2
Flags: W
LayerCount: 2
Fore
SplineSet
493 335 m 5,0,-1
 350 334 l 5,1,-1
 328 222 l 5,2,3
 351 235 351 235 382 235 c 4,4,5
 437 235 437 235 467 196 c 4,6,7
 496 158 496 158 496 101 c 4,8,9
 496 -107 496 -107 225 -107 c 6,10,-1
 138 -107 l 6,11,12
 88 -107 88 -107 88 -134 c 4,13,14
 88 -141 88 -141 92 -145 c 6,15,-1
 104 -152 l 5,16,-1
 105 -152 l 5,17,18
 112 -156 112 -156 116 -164 c 260,19,20
 120 -172 120 -172 120 -182 c 4,21,22
 120 -217 120 -217 80 -217 c 4,23,24
 55 -217 55 -217 40 -195 c 5,25,-1
 40 -195 l 5,26,27
 38 -192 38 -192 36 -188 c 4,28,29
 34 -183 34 -183 31 -177 c 4,30,31
 26 -165 26 -165 26 -148 c 4,32,33
 26 -114 26 -114 54 -88 c 260,34,35
 82 -62 82 -62 123 -62 c 6,36,-1
 223 -62 l 6,37,38
 317 -62 317 -62 367 -15 c 4,39,40
 412 27 412 27 412 104 c 4,41,42
 412 179 412 179 358 179 c 4,43,44
 331 179 331 179 314 154 c 5,45,-1
 284 4 l 5,46,-1
 283 0 l 5,47,-1
 279 0 l 5,48,-1
 210 0 l 5,49,-1
 204 0 l 5,50,-1
 205 6 l 5,51,-1
 271 334 l 5,52,-1
 167 334 l 5,53,-1
 97 4 l 5,54,-1
 96 0 l 5,55,-1
 92 0 l 5,56,-1
 60 0 l 5,57,-1
 54 0 l 5,58,-1
 55 6 l 5,59,-1
 127 375 l 5,60,-1
 128 379 l 5,61,-1
 132 379 l 5,62,-1
 492 379 l 5,63,-1
 497 379 l 5,64,-1
 497 374 l 5,65,-1
 498 340 l 5,66,-1
 498 335 l 5,67,-1
 493 335 l 5,0,-1
EndSplineSet
EndChar

StartChar: tmletterNNNA
Encoding: 2985 2985 74
Width: 827
GlyphClass: 2
Flags: W
LayerCount: 2
Fore
SplineSet
890 378 m 5,0,-1
 881 343 l 5,1,-1
 880 339 l 5,2,-1
 876 339 l 5,3,-1
 787 339 l 5,4,-1
 715 4 l 5,5,-1
 714 0 l 5,6,-1
 710 0 l 5,7,-1
 644 0 l 5,8,-1
 638 0 l 5,9,-1
 639 6 l 5,10,-1
 709 339 l 5,11,-1
 652 339 l 6,12,13
 588 339 588 339 538 312 c 5,14,15
 595 249 595 249 595 160 c 4,16,17
 595 -2 595 -2 481 -2 c 4,18,19
 438 -2 438 -2 409 36 c 4,20,21
 384 72 384 72 384 127 c 4,22,23
 384 222 384 222 449 298 c 5,24,25
 393 335 393 335 311 335 c 4,26,27
 222 335 222 335 160 288 c 4,28,29
 98 242 98 242 98 165 c 4,30,31
 98 101 98 101 140 71 c 5,32,33
 134 88 134 88 134 108 c 4,34,35
 134 124 134 124 137 140 c 4,36,37
 140 155 140 155 146 169 c 4,38,39
 152 184 152 184 161 197 c 5,40,-1
 161 197 l 5,41,42
 176 216 176 216 195 226 c 260,43,44
 214 236 214 236 237 236 c 4,45,46
 327 236 327 236 327 137 c 4,47,48
 327 122 327 122 325 108 c 260,49,50
 323 94 323 94 318 81 c 4,51,52
 314 69 314 69 307 58 c 4,53,54
 301 46 301 46 292 36 c 4,55,56
 256 -4 256 -4 204 -4 c 4,57,58
 138 -4 138 -4 97 45 c 4,59,60
 56 93 56 93 56 163 c 4,61,62
 56 263 56 263 138 325 c 4,63,64
 219 387 219 387 333 387 c 4,65,66
 358 387 358 387 382 384 c 4,67,68
 405 381 405 381 426 375 c 4,69,70
 448 369 448 369 466 361 c 4,71,72
 485 352 485 352 501 341 c 5,73,74
 536 363 536 363 574 373 c 4,75,76
 612 384 612 384 654 384 c 6,77,-1
 885 384 l 5,78,-1
 891 384 l 5,79,-1
 890 378 l 5,0,-1
521 149 m 4,80,81
 521 219 521 219 483 268 c 5,82,83
 427 201 427 201 427 128 c 4,84,85
 427 60 427 60 471 60 c 4,86,87
 521 60 521 60 521 149 c 4,80,81
254 145 m 4,88,89
 254 180 254 180 219 180 c 4,90,91
 213 180 213 180 208 178 c 4,92,93
 202 176 202 176 197 171 c 260,94,95
 192 166 192 166 187 159 c 4,96,97
 180 148 180 148 177 136 c 4,98,99
 173 125 173 125 173 114 c 4,100,101
 173 75 173 75 188 59 c 5,102,103
 212 60 212 60 232 87 c 4,104,105
 254 116 254 116 254 145 c 4,88,89
EndSplineSet
EndChar

StartChar: tmletterPA
Encoding: 2986 2986 75
Width: 629
GlyphClass: 2
Flags: W
LayerCount: 2
Fore
SplineSet
640 387 m 5,0,-1
 567 5 l 5,1,-1
 566 1 l 5,2,-1
 562 1 l 5,3,-1
 80 1 l 5,4,-1
 74 1 l 5,5,-1
 75 7 l 5,6,-1
 147 389 l 5,7,-1
 148 393 l 5,8,-1
 152 393 l 5,9,-1
 223 393 l 5,10,-1
 229 393 l 5,11,-1
 228 387 l 5,12,-1
 162 47 l 5,13,-1
 493 47 l 5,14,-1
 561 389 l 5,15,-1
 562 393 l 5,16,-1
 566 393 l 5,17,-1
 635 393 l 5,18,-1
 641 393 l 5,19,-1
 640 387 l 5,0,-1
EndSplineSet
EndChar

StartChar: tmletterMA
Encoding: 2990 2990 76
Width: 692
GlyphClass: 2
Flags: W
LayerCount: 2
Fore
SplineSet
678 186 m 5,0,-1
 674 134 l 6,1,2
 668 80 668 80 646 46 c 4,3,4
 616 0 616 0 560 0 c 6,5,-1
 57 0 l 5,6,-1
 51 0 l 5,7,-1
 52 6 l 5,8,-1
 129 380 l 5,9,-1
 130 384 l 5,10,-1
 134 384 l 5,11,-1
 204 384 l 5,12,-1
 210 384 l 5,13,-1
 209 378 l 5,14,-1
 144 48 l 5,15,-1
 347 48 l 5,16,-1
 402 302 l 6,17,18
 420 385 420 385 511 385 c 4,19,20
 544 385 544 385 573 372 c 260,21,22
 602 359 602 359 626 332 c 4,23,24
 652 303 652 303 665 266 c 4,25,26
 678 230 678 230 678 186 c 5,27,-1
 678 186 l 5,0,-1
638 185 m 4,28,29
 638 242 638 242 610 288 c 4,30,31
 578 340 578 340 528 340 c 4,32,33
 509 340 509 340 495 322 c 4,34,35
 482 305 482 305 474 268 c 6,36,-1
 431 48 l 5,37,-1
 561 47 l 6,38,39
 638 47 638 47 638 185 c 4,28,29
EndSplineSet
EndChar

StartChar: tmletterYA
Encoding: 2991 2991 77
Width: 684
GlyphClass: 2
Flags: W
LayerCount: 2
Fore
SplineSet
227 65 m 4,0,1
 243 78 243 78 252 97 c 4,2,3
 261 115 261 115 264 144 c 6,4,-1
 264 145 l 5,5,-1
 307 374 l 5,6,-1
 308 378 l 5,7,-1
 312 378 l 5,8,-1
 381 378 l 5,9,-1
 387 378 l 5,10,-1
 386 372 l 5,11,-1
 327 48 l 5,12,-1
 551 48 l 5,13,-1
 618 374 l 5,14,-1
 619 378 l 5,15,-1
 623 378 l 5,16,-1
 689 378 l 5,17,-1
 695 378 l 5,18,-1
 694 372 l 5,19,-1
 620 4 l 5,20,-1
 619 0 l 5,21,-1
 615 0 l 5,22,-1
 244 0 l 5,23,-1
 239 0 l 5,24,-1
 239 5 l 5,25,-1
 240 23 l 5,26,27
 203 -5 203 -5 168 -5 c 4,28,29
 93 -5 93 -5 93 76 c 6,30,-1
 93 77 l 5,31,-1
 102 138 l 5,32,-1
 144 374 l 5,33,-1
 145 378 l 5,34,-1
 149 378 l 5,35,-1
 219 378 l 5,36,-1
 225 378 l 5,37,-1
 224 372 l 5,38,-1
 174 113 l 5,39,-1
 171 77 l 6,40,41
 171 48 171 48 186 48 c 4,42,43
 204 48 204 48 227 65 c 4,0,1
EndSplineSet
EndChar

StartChar: tmletterRA
Encoding: 2992 2992 78
Width: 494
GlyphClass: 2
Flags: W
LayerCount: 2
Fore
SplineSet
538 380 m 1,0,-1
 529 342 l 1,1,-1
 528 338 l 1,2,-1
 524 338 l 1,3,-1
 410 338 l 1,4,-1
 339 3 l 1,5,-1
 338 1 l 1,6,-1
 336 0 l 1,7,-1
 35 -150 l 1,8,-1
 28 -154 l 1,9,-1
 28 -146 l 1,10,-1
 27 -106 l 1,11,-1
 27 -103 l 1,12,-1
 30 -102 l 1,13,-1
 262 17 l 1,14,-1
 326 338 l 1,15,-1
 157 338 l 1,16,-1
 88 5 l 1,17,-1
 87 1 l 1,18,-1
 83 1 l 1,19,-1
 48 1 l 1,20,-1
 42 1 l 1,21,-1
 43 7 l 1,22,-1
 121 382 l 1,23,-1
 122 386 l 1,24,-1
 126 386 l 1,25,-1
 533 386 l 1,26,-1
 539 386 l 1,27,-1
 538 380 l 1,0,-1
EndSplineSet
EndChar

StartChar: tmletterRRA
Encoding: 2993 2993 79
Width: 568
GlyphClass: 2
Flags: W
LayerCount: 2
Fore
SplineSet
556 208 m 4,0,1
 556 148 556 148 539 95 c 4,2,3
 523 42 523 42 489 -3 c 4,4,5
 413 -101 413 -101 287 -101 c 6,6,-1
 135 -101 l 6,7,8
 111 -101 111 -101 95 -112 c 4,9,10
 84 -123 84 -123 82 -132 c 4,11,12
 82 -135 82 -135 85 -139 c 4,13,14
 89 -142 89 -142 96 -146 c 4,15,16
 115 -156 115 -156 115 -179 c 4,17,18
 115 -220 115 -220 70 -220 c 4,19,20
 50 -220 50 -220 35 -197 c 5,21,-1
 35 -196 l 6,22,23
 32 -192 32 -192 31 -188 c 4,24,25
 29 -184 29 -184 27 -179 c 4,26,27
 24 -170 24 -170 24 -159 c 4,28,29
 24 -117 24 -117 57 -86 c 4,30,31
 89 -55 89 -55 136 -55 c 6,32,-1
 256 -55 l 6,33,34
 293 -55 293 -55 324 -45 c 4,35,36
 356 -36 356 -36 381 -16 c 4,37,38
 406 3 406 3 426 33 c 4,39,40
 450 71 450 71 462 117 c 260,41,42
 474 163 474 163 474 217 c 4,43,44
 474 330 474 330 407 330 c 4,45,46
 398 330 398 330 391 329 c 4,47,48
 383 328 383 328 376 326 c 4,49,50
 369 323 369 323 363 320 c 260,51,52
 357 317 357 317 352 312 c 4,53,54
 346 308 346 308 342 302 c 4,55,56
 337 297 337 297 334 290 c 4,57,58
 330 283 330 283 327 275 c 260,59,60
 324 267 324 267 322 258 c 6,61,-1
 265 -1 l 5,62,-1
 264 -5 l 5,63,-1
 260 -5 l 5,64,-1
 190 -5 l 5,65,-1
 184 -5 l 5,66,-1
 185 1 l 5,67,-1
 241 251 l 6,68,69
 243 259 243 259 243 271 c 6,70,-1
 243 290 l 6,71,72
 243 331 243 331 209 331 c 4,73,74
 166 331 166 331 154 277 c 6,75,-1
 92 0 l 5,76,-1
 91 -4 l 5,77,-1
 87 -4 l 5,78,-1
 54 -4 l 5,79,-1
 48 -4 l 5,80,-1
 49 2 l 5,81,-1
 111 287 l 6,82,83
 121 327 121 327 150 352 c 5,84,-1
 150 352 l 5,85,86
 177 373 177 373 214 373 c 4,87,88
 278 373 278 373 301 317 c 5,89,90
 312 334 312 334 333 350 c 4,91,92
 345 359 345 359 358 365 c 4,93,94
 370 371 370 371 384 374 c 260,95,96
 398 377 398 377 413 377 c 4,97,98
 462 377 462 377 502 344 c 4,99,100
 556 296 556 296 556 208 c 4,0,1
EndSplineSet
EndChar

StartChar: tmletterLA
Encoding: 2994 2994 80
Width: 715
GlyphClass: 2
Flags: W
LayerCount: 2
Fore
SplineSet
501 159 m 6,0,-1
 491 104 l 6,1,2
 491 82 491 82 498 69 c 4,3,4
 506 55 506 55 520 49 c 4,5,6
 535 42 535 42 558 42 c 4,7,8
 607 42 607 42 649 102 c 4,9,10
 656 112 656 112 661 123 c 4,11,12
 667 134 667 134 672 144 c 4,13,14
 677 155 677 155 680 166 c 4,15,16
 686 182 686 182 688 200 c 4,17,18
 691 217 691 217 691 235 c 4,19,20
 691 251 691 251 688 266 c 4,21,22
 686 281 686 281 681 293 c 260,23,24
 676 305 676 305 668 316 c 6,25,-1
 630 356 l 5,26,-1
 630 356 l 5,27,28
 626 361 626 361 623 368 c 260,29,30
 620 375 620 375 619 383 c 6,31,-1
 619 384 l 6,32,33
 619 401 619 401 628 413 c 5,34,-1
 628 414 l 5,35,36
 639 424 639 424 652 424 c 4,37,38
 664 424 664 424 679 412 c 4,39,40
 734 365 734 365 734 260 c 4,41,42
 734 204 734 204 722 157 c 260,43,44
 710 110 710 110 685 72 c 4,45,46
 658 31 658 31 619 10 c 260,47,48
 580 -11 580 -11 530 -11 c 4,49,50
 486 -11 486 -11 453 18 c 4,51,52
 414 52 414 52 414 107 c 4,53,54
 414 130 414 130 425 181 c 6,55,-1
 436 247 l 5,56,57
 436 289 436 289 390 320 c 4,58,59
 379 327 379 327 368 332 c 260,60,61
 357 337 357 337 346 340 c 4,62,63
 334 344 334 344 322 345 c 4,64,65
 309 347 309 347 295 347 c 4,66,67
 229 347 229 347 170 296 c 4,68,69
 111 246 111 246 111 176 c 4,70,71
 111 102 111 102 163 67 c 5,72,73
 159 79 159 79 158 87 c 4,74,75
 156 94 156 94 156 100 c 4,76,77
 155 107 155 107 155 113 c 4,78,79
 155 164 155 164 184 202 c 260,80,81
 213 240 213 240 262 240 c 4,82,83
 270 240 270 240 277 239 c 260,84,85
 284 238 284 238 291 235 c 4,86,87
 297 233 297 233 304 230 c 4,88,89
 310 226 310 226 316 222 c 4,90,91
 321 218 321 218 327 212 c 4,92,93
 340 198 340 198 346 182 c 4,94,95
 353 166 353 166 353 148 c 4,96,97
 353 112 353 112 344 84 c 260,98,99
 335 56 335 56 317 36 c 4,100,101
 298 16 298 16 274 6 c 260,102,103
 250 -4 250 -4 221 -4 c 4,104,105
 156 -4 156 -4 111 49 c 4,106,107
 89 76 89 76 78 106 c 4,108,109
 67 137 67 137 67 172 c 4,110,111
 67 263 67 263 141 330 c 260,112,113
 215 397 215 397 320 397 c 4,114,115
 363 397 363 397 396 389 c 4,116,117
 430 380 430 380 455 363 c 4,118,119
 483 344 483 344 498 316 c 4,120,121
 512 288 512 288 512 252 c 4,122,123
 512 227 512 227 510 207 c 4,124,125
 508 188 508 188 501 159 c 6,0,-1
206 164 m 4,126,127
 199 154 199 154 195 143 c 4,128,129
 192 132 192 132 192 119 c 4,130,131
 192 84 192 84 210 56 c 5,132,133
 237 60 237 60 255 84 c 4,134,135
 274 109 274 109 274 142 c 4,136,137
 274 156 274 156 263 170 c 4,138,139
 253 183 253 183 239 183 c 4,140,141
 235 183 235 183 231 182 c 4,142,143
 226 181 226 181 222 178 c 4,144,145
 218 176 218 176 214 173 c 4,146,147
 210 169 210 169 206 164 c 4,126,127
EndSplineSet
EndChar

StartChar: tmletterLLA
Encoding: 2995 2995 81
Width: 759
GlyphClass: 2
Flags: W
LayerCount: 2
Fore
SplineSet
821 375 m 5,0,-1
 815 340 l 5,1,-1
 814 336 l 5,2,-1
 810 336 l 5,3,-1
 712 335 l 5,4,-1
 643 5 l 5,5,-1
 642 1 l 5,6,-1
 638 1 l 5,7,-1
 571 1 l 5,8,-1
 565 1 l 5,9,-1
 566 7 l 5,10,-1
 632 335 l 5,11,-1
 521 335 l 5,12,-1
 453 5 l 5,13,-1
 452 1 l 5,14,-1
 448 1 l 5,15,-1
 384 1 l 5,16,-1
 378 1 l 5,17,-1
 379 7 l 5,18,-1
 402 133 l 6,19,20
 407 157 407 157 409 180 c 4,21,22
 411 204 411 204 411 228 c 4,23,24
 411 273 411 273 373 307 c 4,25,26
 334 341 334 341 286 341 c 4,27,28
 268 341 268 341 251 338 c 260,29,30
 234 335 234 335 218 329 c 4,31,32
 202 322 202 322 187 313 c 4,33,34
 171 304 171 304 157 291 c 4,35,36
 101 242 101 242 101 173 c 260,37,38
 101 104 101 104 139 71 c 5,39,40
 136 81 136 81 134 91 c 4,41,42
 133 101 133 101 133 112 c 4,43,44
 133 131 133 131 136 147 c 4,45,46
 139 164 139 164 146 178 c 4,47,48
 152 192 152 192 162 203 c 4,49,50
 192 238 192 238 232 238 c 4,51,52
 329 238 329 238 329 140 c 4,53,54
 329 121 329 121 325 103 c 4,55,56
 322 85 322 85 315 69 c 4,57,58
 307 53 307 53 296 38 c 4,59,60
 280 17 280 17 257 6 c 4,61,62
 235 -5 235 -5 206 -5 c 4,63,64
 142 -5 142 -5 99 44 c 4,65,66
 57 92 57 92 57 162 c 4,67,68
 57 253 57 253 128 324 c 4,69,70
 195 388 195 388 278 388 c 4,71,72
 316 388 316 388 348 378 c 4,73,74
 379 367 379 367 405 347 c 4,75,76
 447 314 447 314 464 262 c 5,77,-1
 488 377 l 5,78,-1
 489 381 l 5,79,-1
 493 381 l 5,80,-1
 816 381 l 5,81,-1
 822 381 l 5,82,-1
 821 375 l 5,0,-1
248 137 m 4,83,84
 248 183 248 183 218 183 c 4,85,86
 207 183 207 183 200 178 c 4,87,88
 192 173 192 173 186 163 c 4,89,90
 181 152 181 152 178 141 c 4,91,92
 175 129 175 129 175 116 c 4,93,94
 175 79 175 79 187 58 c 5,95,96
 213 62 213 62 230 86 c 4,97,98
 239 100 239 100 244 112 c 4,99,100
 248 125 248 125 248 137 c 4,83,84
EndSplineSet
EndChar

StartChar: tmletterLLLA
Encoding: 2996 2996 82
Width: 684
GlyphClass: 2
Flags: W
LayerCount: 2
Fore
SplineSet
108 -207 m 4,0,1
 119 -212 119 -212 131 -215 c 260,2,3
 143 -218 143 -218 156 -219 c 4,4,5
 170 -221 170 -221 184 -221 c 4,6,7
 229 -221 229 -221 256 -183 c 4,8,9
 263 -171 263 -171 272 -136 c 4,10,11
 274 -129 274 -129 276 -123 c 4,12,13
 277 -117 277 -117 279 -112 c 4,14,15
 281 -106 281 -106 282 -102 c 4,16,17
 284 -98 284 -98 286 -94 c 4,18,19
 287 -91 287 -91 289 -88 c 4,20,21
 295 -79 295 -79 304 -74 c 4,22,23
 313 -68 313 -68 323 -67 c 5,24,-1
 322 -57 l 5,25,-1
 322 -56 l 5,26,-1
 332 0 l 5,27,-1
 59 1 l 5,28,-1
 53 1 l 5,29,-1
 54 7 l 5,30,-1
 126 387 l 5,31,-1
 127 391 l 5,32,-1
 131 391 l 5,33,-1
 200 391 l 5,34,-1
 206 391 l 5,35,-1
 205 385 l 5,36,-1
 142 49 l 5,37,-1
 340 49 l 5,38,-1
 383 268 l 6,39,40
 396 340 396 340 429 369 c 4,41,42
 456 394 456 394 508 394 c 4,43,44
 575 394 575 394 621 335 c 260,45,46
 667 276 667 276 667 180 c 4,47,48
 667 1 667 1 559 1 c 6,49,-1
 415 0 l 5,50,-1
 407 -54 l 5,51,-1
 521 -55 l 5,52,-1
 527 -55 l 5,53,-1
 526 -61 l 5,54,-1
 519 -99 l 5,55,-1
 518 -103 l 5,56,-1
 514 -103 l 5,57,-1
 401 -103 l 6,58,59
 382 -103 382 -103 369 -112 c 4,60,61
 357 -122 357 -122 350 -142 c 4,62,63
 328 -210 328 -210 319 -222 c 4,64,65
 285 -266 285 -266 197 -266 c 6,66,-1
 168 -266 l 6,67,68
 120 -266 120 -266 77 -241 c 4,69,70
 23 -208 23 -208 23 -148 c 4,71,72
 23 -107 23 -107 54 -79 c 5,73,-1
 54 -79 l 5,74,75
 70 -66 70 -66 89 -60 c 4,76,77
 107 -53 107 -53 128 -53 c 4,78,79
 204 -53 204 -53 204 -121 c 4,80,81
 204 -163 204 -163 162 -163 c 260,82,83
 120 -163 120 -163 120 -116 c 4,84,85
 120 -108 120 -108 123 -98 c 5,86,87
 67 -109 67 -109 67 -152 c 4,88,89
 67 -158 67 -158 68 -163 c 4,90,91
 69 -169 69 -169 71 -174 c 4,92,93
 74 -179 74 -179 77 -184 c 4,94,95
 80 -188 80 -188 85 -192 c 4,96,97
 89 -197 89 -197 95 -200 c 4,98,99
 101 -204 101 -204 108 -207 c 4,0,1
622 182 m 4,100,101
 622 275 622 275 578 321 c 4,102,103
 572 327 572 327 565 332 c 4,104,105
 559 337 559 337 553 341 c 4,106,107
 541 347 541 347 526 347 c 4,108,109
 478 347 478 347 467 287 c 6,110,-1
 424 48 l 5,111,-1
 561 47 l 6,112,113
 622 47 622 47 622 182 c 4,100,101
EndSplineSet
EndChar

StartChar: tmletterVA
Encoding: 2997 2997 83
Width: 733
GlyphClass: 2
Flags: W
LayerCount: 2
Fore
SplineSet
763 388 m 5,0,-1
 688 2 l 5,1,-1
 687 1 l 5,2,-1
 683 1 l 5,3,-1
 365 0 l 5,4,-1
 354 0 l 5,5,-1
 361 8 l 6,6,7
 372 20 372 20 380 30 c 4,8,9
 389 41 389 41 395 49 c 4,10,11
 408 66 408 66 415 78 c 5,12,-1
 415 79 l 5,13,14
 427 98 427 98 434 118 c 4,15,16
 442 137 442 137 446 157 c 260,17,18
 450 177 450 177 450 197 c 4,19,20
 450 254 450 254 409 294 c 4,21,22
 369 335 369 335 308 335 c 4,23,24
 229 335 229 335 177 282 c 4,25,26
 129 235 129 235 129 177 c 4,27,28
 129 108 129 108 167 76 c 5,29,30
 160 96 160 96 160 116 c 4,31,32
 160 164 160 164 190 201 c 260,33,34
 220 238 220 238 267 238 c 4,35,36
 308 238 308 238 337 209 c 4,37,38
 365 180 365 180 365 137 c 4,39,40
 365 78 365 78 329 39 c 4,41,42
 292 -1 292 -1 231 -1 c 4,43,44
 169 -1 169 -1 128 50 c 260,45,46
 87 101 87 101 87 172 c 4,47,48
 87 267 87 267 154 335 c 4,49,50
 222 402 222 402 320 402 c 4,51,52
 365 402 365 402 402 389 c 4,53,54
 440 376 440 376 469 351 c 4,55,56
 499 325 499 325 514 288 c 4,57,58
 529 252 529 252 529 205 c 4,59,60
 529 108 529 108 487 49 c 5,61,-1
 613 48 l 5,62,-1
 685 390 l 5,63,-1
 686 394 l 5,64,-1
 690 394 l 5,65,-1
 758 394 l 5,66,-1
 764 394 l 5,67,-1
 763 388 l 5,0,-1
283 142 m 4,68,69
 283 180 283 180 249 180 c 4,70,71
 229 180 229 180 218 162 c 4,72,73
 207 142 207 142 207 111 c 4,74,75
 207 103 207 103 208 96 c 4,76,77
 208 89 208 89 209 82 c 4,78,79
 210 76 210 76 212 71 c 4,80,81
 213 66 213 66 215 61 c 5,82,83
 238 63 238 63 260 87 c 4,84,85
 283 113 283 113 283 142 c 4,68,69
EndSplineSet
EndChar

StartChar: tmletterSSA
Encoding: 2999 2999 84
Width: 926
GlyphClass: 2
Flags: W
LayerCount: 2
Fore
SplineSet
943 309 m 5,0,-1
 882 6 l 5,1,-1
 881 2 l 5,2,-1
 877 2 l 5,3,-1
 734 1 l 5,4,-1
 687 -226 l 5,5,-1
 686 -230 l 5,6,-1
 682 -230 l 5,7,-1
 613 -230 l 5,8,-1
 607 -230 l 5,9,-1
 608 -224 l 5,10,-1
 652 1 l 5,11,-1
 366 2 l 5,12,-1
 355 2 l 5,13,-1
 362 10 l 6,14,15
 398 49 398 49 421 101 c 4,16,17
 429 118 429 118 435 134 c 4,18,19
 440 150 440 150 442 164 c 4,20,21
 445 179 445 179 445 192 c 4,22,23
 445 250 445 250 406 292 c 4,24,25
 387 313 387 313 362 324 c 4,26,27
 337 334 337 334 305 334 c 4,28,29
 231 334 231 334 181 288 c 4,30,31
 132 243 132 243 132 176 c 4,32,33
 132 116 132 116 172 81 c 5,34,35
 169 90 169 90 167 101 c 4,36,37
 166 112 166 112 166 124 c 4,38,39
 166 140 166 140 169 154 c 260,40,41
 172 168 172 168 178 180 c 4,42,43
 184 193 184 193 194 204 c 4,44,45
 208 221 208 221 227 230 c 4,46,47
 246 238 246 238 269 238 c 4,48,49
 310 238 310 238 336 209 c 4,50,51
 361 180 361 180 361 135 c 4,52,53
 361 130 361 130 361 126 c 4,54,55
 361 121 361 121 360 116 c 4,56,57
 360 112 360 112 359 108 c 4,58,59
 359 103 359 103 358 99 c 260,60,61
 357 95 357 95 356 91 c 260,62,63
 355 87 355 87 354 83 c 4,64,65
 350 71 350 71 344 60 c 4,66,67
 339 50 339 50 331 41 c 4,68,69
 296 1 296 1 233 1 c 260,70,71
 170 1 170 1 129 50 c 4,72,73
 89 98 89 98 89 172 c 4,74,75
 89 267 89 267 155 333 c 4,76,77
 189 365 189 365 229 382 c 4,78,79
 269 398 269 398 316 398 c 4,80,81
 327 398 327 398 338 397 c 4,82,83
 348 396 348 396 358 395 c 4,84,85
 368 393 368 393 378 391 c 4,86,87
 388 388 388 388 397 385 c 4,88,89
 407 381 407 381 416 377 c 260,90,91
 425 373 425 373 433 368 c 4,92,93
 442 363 442 363 450 357 c 260,94,95
 458 351 458 351 466 345 c 4,96,97
 498 318 498 318 513 283 c 4,98,99
 529 248 529 248 529 205 c 4,100,101
 529 119 529 119 488 52 c 5,102,-1
 663 51 l 5,103,-1
 683 150 l 5,104,105
 588 174 588 174 588 267 c 4,106,107
 588 277 588 277 589 287 c 260,108,109
 590 297 590 297 592 306 c 4,110,111
 595 315 595 315 598 324 c 4,112,113
 601 332 601 332 606 340 c 4,114,115
 610 348 610 348 615 356 c 4,116,117
 622 365 622 365 631 373 c 4,118,119
 639 380 639 380 648 384 c 4,120,121
 658 389 658 389 669 392 c 4,122,123
 679 394 679 394 691 394 c 4,124,125
 698 394 698 394 704 393 c 4,126,127
 711 393 711 393 717 391 c 4,128,129
 723 390 723 390 729 388 c 4,130,131
 734 385 734 385 740 383 c 4,132,133
 745 380 745 380 750 376 c 260,134,135
 755 372 755 372 759 368 c 4,136,137
 773 355 773 355 780 338 c 4,138,139
 787 320 787 320 787 299 c 6,140,-1
 787 298 l 5,141,-1
 778 232 l 5,142,-1
 774 200 l 5,143,144
 824 215 824 215 863 244 c 4,145,146
 888 261 888 261 934 313 c 6,147,-1
 947 327 l 5,148,-1
 943 309 l 5,0,-1
708 299 m 4,149,150
 708 344 708 344 686 344 c 4,151,152
 680 344 680 344 675 343 c 4,153,154
 670 341 670 341 665 338 c 260,155,156
 660 335 660 335 656 331 c 4,157,158
 651 326 651 326 647 320 c 4,159,160
 641 312 641 312 637 303 c 4,161,162
 633 295 633 295 631 287 c 4,163,164
 629 278 629 278 629 270 c 4,165,166
 629 210 629 210 691 194 c 5,167,-1
 700 235 l 6,168,169
 704 256 704 256 706 270 c 260,170,171
 708 284 708 284 708 299 c 4,149,150
281 137 m 4,172,173
 281 178 281 178 254 178 c 4,174,175
 207 178 207 178 207 113 c 4,176,177
 207 85 207 85 218 65 c 5,178,179
 246 66 246 66 264 88 c 4,180,181
 281 108 281 108 281 137 c 4,172,173
832 174 m 5,182,183
 790 156 790 156 760 148 c 5,184,-1
 743 51 l 5,185,-1
 809 51 l 5,186,-1
 832 174 l 5,182,183
EndSplineSet
EndChar

StartChar: tmletterSA
Encoding: 3000 3000 85
Width: 853
GlyphClass: 2
Flags: W
LayerCount: 2
Fore
SplineSet
873 273 m 4,0,1
 873 165 873 165 827 81 c 4,2,3
 775 -14 775 -14 684 -14 c 4,4,5
 589 -14 589 -14 589 87 c 4,6,7
 589 133 589 133 605 207 c 260,8,9
 621 281 621 281 621 297 c 4,10,11
 621 334 621 334 588 334 c 4,12,13
 538 334 538 334 507 194 c 6,14,-1
 467 0 l 5,15,-1
 466 -4 l 5,16,-1
 462 -4 l 5,17,-1
 393 -4 l 5,18,-1
 387 -4 l 5,19,-1
 388 2 l 5,20,-1
 416 137 l 6,21,22
 418 146 418 146 419 157 c 4,23,24
 421 168 421 168 421 181 c 4,25,26
 422 193 422 193 422 207 c 4,27,28
 422 259 422 259 384 298 c 260,29,30
 346 337 346 337 286 337 c 4,31,32
 216 337 216 337 159 282 c 4,33,34
 103 227 103 227 103 163 c 4,35,36
 103 96 103 96 149 59 c 5,37,38
 148 61 148 61 148 63 c 4,39,40
 148 64 148 64 147 66 c 4,41,42
 147 68 147 68 147 70 c 4,43,44
 146 71 146 71 146 73 c 4,45,46
 145 79 145 79 145 86 c 4,47,48
 144 93 144 93 144 100 c 4,49,50
 144 128 144 128 151 151 c 4,51,52
 159 175 159 175 174 195 c 4,53,54
 188 214 188 214 208 224 c 260,55,56
 228 234 228 234 253 234 c 4,57,58
 294 234 294 234 318 206 c 4,59,60
 342 179 342 179 342 138 c 4,61,62
 342 105 342 105 334 79 c 4,63,64
 325 52 325 52 309 32 c 4,65,66
 272 -13 272 -13 204 -13 c 4,67,68
 142 -13 142 -13 102 36 c 4,69,70
 63 85 63 85 63 152 c 4,71,72
 63 251 63 251 136 320 c 4,73,74
 172 353 172 353 215 371 c 4,75,76
 257 388 257 388 309 388 c 4,77,78
 317 388 317 388 326 387 c 4,79,80
 334 386 334 386 342 385 c 4,81,82
 350 383 350 383 358 381 c 4,83,84
 366 378 366 378 374 375 c 260,85,86
 382 372 382 372 389 368 c 4,87,88
 397 363 397 363 404 359 c 4,89,90
 412 354 412 354 419 348 c 4,91,92
 459 315 459 315 481 263 c 5,93,94
 499 321 499 321 521 349 c 4,95,96
 531 362 531 362 543 371 c 4,97,98
 555 379 555 379 569 384 c 4,99,100
 583 388 583 388 599 388 c 4,101,102
 612 388 612 388 624 385 c 4,103,104
 636 381 636 381 647 375 c 4,105,106
 658 368 658 368 667 358 c 4,107,108
 681 344 681 344 688 325 c 260,109,110
 695 306 695 306 695 284 c 4,111,112
 695 250 695 250 679 179 c 260,113,114
 663 108 663 108 663 90 c 4,115,116
 663 69 663 69 674 54 c 4,117,118
 685 40 685 40 701 40 c 4,119,120
 724 40 724 40 746 56 c 4,121,122
 768 73 768 73 789 107 c 4,123,124
 807 138 807 138 817 173 c 4,125,126
 826 207 826 207 826 243 c 4,127,128
 826 285 826 285 797 324 c 4,129,130
 766 365 766 365 766 384 c 4,131,132
 766 420 766 420 796 420 c 4,133,134
 828 420 828 420 851 370 c 4,135,136
 873 321 873 321 873 273 c 4,0,1
195 151 m 4,137,138
 188 139 188 139 184 128 c 4,139,140
 182 124 182 124 182 120 c 4,141,142
 181 117 181 117 180 113 c 4,143,144
 180 108 180 108 180 104 c 4,145,146
 180 74 180 74 194 48 c 5,147,148
 209 49 209 49 221 57 c 4,149,150
 233 64 233 64 244 80 c 4,151,152
 260 103 260 103 260 136 c 4,153,154
 260 173 260 173 231 173 c 4,155,156
 221 173 221 173 212 168 c 4,157,158
 204 162 204 162 195 151 c 4,137,138
EndSplineSet
EndChar

StartChar: tmletterHA
Encoding: 3001 3001 86
Width: 1075
GlyphClass: 2
Flags: W
LayerCount: 2
Fore
SplineSet
763 327 m 4,0,1
 758 335 758 335 751 339 c 260,2,3
 744 343 744 343 734 343 c 4,4,5
 710 343 710 343 695 328 c 4,6,7
 680 312 680 312 674 280 c 6,8,-1
 622 -1 l 5,9,-1
 621 -5 l 5,10,-1
 617 -5 l 5,11,-1
 349 -5 l 5,12,-1
 338 -5 l 5,13,-1
 345 3 l 6,14,15
 365 27 365 27 379 45 c 260,16,17
 393 63 393 63 400 74 c 4,18,19
 436 134 436 134 436 192 c 4,20,21
 436 249 436 249 392 289 c 4,22,23
 348 330 348 330 286 330 c 4,24,25
 207 329 207 329 157 279 c 4,26,27
 111 231 111 231 111 174 c 4,28,29
 111 109 111 109 148 75 c 5,30,31
 141 94 141 94 141 114 c 4,32,33
 141 161 141 161 171 198 c 260,34,35
 201 235 201 235 248 235 c 4,36,37
 289 235 289 235 318 206 c 4,38,39
 346 177 346 177 346 134 c 4,40,41
 346 115 346 115 342 97 c 4,42,43
 338 80 338 80 330 65 c 4,44,45
 322 49 322 49 310 36 c 4,46,47
 292 16 292 16 268 6 c 4,48,49
 243 -4 243 -4 213 -4 c 4,50,51
 151 -4 151 -4 109 48 c 4,52,53
 68 99 68 99 68 169 c 4,54,55
 68 263 68 263 136 329 c 260,56,57
 204 395 204 395 301 395 c 4,58,59
 323 395 323 395 344 392 c 260,60,61
 365 389 365 389 384 382 c 4,62,63
 403 376 403 376 420 367 c 4,64,65
 438 357 438 357 454 344 c 4,66,67
 485 319 485 319 501 283 c 4,68,69
 517 246 517 246 517 200 c 4,70,71
 517 149 517 149 505 110 c 4,72,73
 493 70 493 70 469 44 c 5,74,-1
 583 45 l 5,75,-1
 632 287 l 6,76,77
 641 332 641 332 668 360 c 4,78,79
 681 374 681 374 697 381 c 4,80,81
 712 388 712 388 730 388 c 4,82,83
 790 388 790 388 825 331 c 5,84,85
 829 339 829 339 835 345 c 4,86,87
 841 352 841 352 848 358 c 4,88,89
 855 363 855 363 864 369 c 4,90,91
 879 378 879 378 895 383 c 260,92,93
 911 388 911 388 928 388 c 4,94,95
 965 388 965 388 995 375 c 4,96,97
 1024 362 1024 362 1046 335 c 4,98,99
 1065 311 1065 311 1074 281 c 4,100,101
 1084 250 1084 250 1084 213 c 4,102,103
 1084 75 1084 75 1016 -8 c 4,104,105
 940 -100 940 -100 797 -100 c 6,106,-1
 181 -100 l 6,107,108
 96 -100 96 -100 96 -133 c 4,109,110
 96 -135 96 -135 97 -137 c 4,111,112
 97 -139 97 -139 99 -140 c 4,113,114
 100 -142 100 -142 103 -144 c 4,115,116
 106 -145 106 -145 109 -147 c 4,117,118
 119 -151 119 -151 124 -160 c 4,119,120
 129 -170 129 -170 129 -184 c 4,121,122
 129 -225 129 -225 86 -225 c 4,123,124
 62 -225 62 -225 48 -206 c 4,125,126
 35 -188 35 -188 35 -163 c 4,127,128
 35 -116 35 -116 70 -85 c 260,129,130
 105 -54 105 -54 159 -54 c 6,131,-1
 793 -54 l 6,132,133
 888 -54 888 -54 950 32 c 4,134,135
 1006 112 1006 112 1006 224 c 4,136,137
 1006 271 1006 271 987 307 c 4,138,139
 968 341 968 341 931 341 c 4,140,141
 916 341 916 341 903 337 c 4,142,143
 890 332 890 332 877 323 c 4,144,145
 853 305 853 305 846 271 c 6,146,-1
 792 5 l 5,147,-1
 791 1 l 5,148,-1
 787 1 l 5,149,-1
 718 1 l 5,150,-1
 712 1 l 5,151,-1
 713 7 l 5,152,-1
 763 258 l 5,153,-1
 769 301 l 6,154,155
 769 305 769 305 769 308 c 4,156,157
 768 311 768 311 767 314 c 4,158,159
 767 317 767 317 765 320 c 4,160,161
 764 323 764 323 763 327 c 4,0,1
264 139 m 4,162,163
 264 177 264 177 229 177 c 4,164,165
 189 177 189 177 189 108 c 4,166,167
 189 87 189 87 190 78 c 4,168,169
 190 75 190 75 192 69 c 4,170,171
 193 63 193 63 195 58 c 5,172,173
 220 60 220 60 241 83 c 4,174,175
 264 109 264 109 264 139 c 4,162,163
EndSplineSet
EndChar

StartChar: tmvowelsignAA
Encoding: 3006 3006 87
Width: 493
GlyphClass: 2
Flags: W
LayerCount: 2
Fore
SplineSet
562 382 m 1,0,-1
 554 344 l 1,1,-1
 553 340 l 1,2,-1
 549 340 l 1,3,-1
 437 339 l 1,4,-1
 369 1 l 1,5,-1
 368 -3 l 1,6,-1
 364 -3 l 1,7,-1
 291 -3 l 1,8,-1
 285 -3 l 1,9,-1
 286 3 l 1,10,-1
 353 339 l 1,11,-1
 188 339 l 1,12,-1
 115 1 l 1,13,-1
 114 -3 l 1,14,-1
 110 -3 l 1,15,-1
 72 -3 l 1,16,-1
 66 -3 l 1,17,-1
 67 3 l 1,18,-1
 143 384 l 1,19,-1
 144 388 l 1,20,-1
 148 388 l 1,21,-1
 557 388 l 1,22,-1
 563 388 l 1,23,-1
 562 382 l 1,0,-1
EndSplineSet
EndChar

StartChar: tmvowelsignI
Encoding: 3007 3007 88
Width: 265
GlyphClass: 2
Flags: W
LayerCount: 2
Fore
SplineSet
129 5 m 1,0,-1
 50 5 l 1,1,-1
 45 5 l 1,2,-1
 45 10 l 1,3,-1
 45 511 l 2,4,5
 45 676 45 676 -53 676 c 2,6,-1
 -86 676 l 2,7,8
 -126 676 -126 676 -154 645 c 0,9,10
 -183 613 -183 613 -183 568 c 2,11,-1
 -183 544 l 2,12,13
 -183 510 -183 510 -163 491 c 2,14,-1
 -154 482 l 1,15,-1
 -166 482 l 1,16,-1
 -246 482 l 1,17,-1
 -248 482 l 1,18,-1
 -250 483 l 1,19,20
 -259 493 -259 493 -266 510 c 1,21,-1
 -266 511 l 1,22,-1
 -273 543 l 1,23,-1
 -273 544 l 1,24,-1
 -273 568 l 2,25,26
 -273 583 -273 583 -271 597 c 0,27,28
 -269 610 -269 610 -265 623 c 256,29,30
 -261 636 -261 636 -255 648 c 256,31,32
 -249 660 -249 660 -241 671 c 256,33,34
 -233 682 -233 682 -223 693 c 0,35,36
 -197 718 -197 718 -163 730 c 0,37,38
 -129 743 -129 743 -86 743 c 2,39,-1
 -53 743 l 2,40,41
 33 743 33 743 84 677 c 0,42,43
 134 611 134 611 134 511 c 2,44,-1
 134 10 l 1,45,-1
 134 5 l 1,46,-1
 129 5 l 1,0,-1
EndSplineSet
EndChar

StartChar: tmvowelsignII
Encoding: 3008 3008 89
Width: 0
GlyphClass: 2
Flags: W
LayerCount: 2
Fore
SplineSet
-282 717 m 2,0,1
 -282 720 -282 720 -281 724 c 256,2,3
 -280 728 -280 728 -278 733 c 1,4,5
 -297 730 -297 730 -319 710 c 0,6,7
 -332 698 -332 698 -339 686 c 0,8,9
 -345 673 -345 673 -345 659 c 2,10,-1
 -345 635 l 2,11,12
 -345 614 -345 614 -335 591 c 0,13,14
 -326 568 -326 568 -311 548 c 2,15,-1
 -305 540 l 1,16,-1
 -315 540 l 1,17,-1
 -395 540 l 1,18,-1
 -398 540 l 1,19,-1
 -399 543 l 1,20,-1
 -410 564 l 1,21,-1
 -411 564 l 1,22,-1
 -421 587 l 1,23,-1
 -421 587 l 1,24,25
 -433 620 -433 620 -433 635 c 2,26,-1
 -433 671 l 2,27,28
 -433 721 -433 721 -383 762 c 256,29,30
 -333 803 -333 803 -273 803 c 2,31,-1
 -207 803 l 2,32,33
 -182 803 -182 803 -158 796 c 0,34,35
 -133 789 -133 789 -109 775 c 0,36,37
 -60 746 -60 746 -60 704 c 2,38,-1
 -60 671 l 2,39,40
 -60 665 -60 665 -62 659 c 0,41,42
 -63 653 -63 653 -67 646 c 0,43,44
 -70 640 -70 640 -75 634 c 0,45,46
 -80 627 -80 627 -86 621 c 2,47,-1
 -87 620 l 2,48,49
 -100 609 -100 609 -114 603 c 0,50,51
 -129 597 -129 597 -145 597 c 2,52,-1
 -190 597 l 2,53,54
 -230 597 -230 597 -258 626 c 0,55,56
 -270 640 -270 640 -277 657 c 0,57,58
 -283 675 -283 675 -283 695 c 1,59,-1
 -283 695 l 1,60,-1
 -282 717 l 2,0,1
-150 694 m 2,61,-1
 -150 715 l 2,62,63
 -150 721 -150 721 -151 724 c 0,64,65
 -152 728 -152 728 -153 729 c 2,66,-1
 -164 739 l 1,67,-1
 -180 743 l 2,68,69
 -191 743 -191 743 -198 737 c 0,70,71
 -205 730 -205 730 -209 714 c 1,72,-1
 -209 694 l 2,73,74
 -209 690 -209 690 -208 686 c 256,75,76
 -207 682 -207 682 -206 679 c 0,77,78
 -204 676 -204 676 -201 674 c 0,79,80
 -194 666 -194 666 -179 664 c 0,81,82
 -169 664 -169 664 -158 672 c 0,83,84
 -150 681 -150 681 -150 694 c 2,61,-1
EndSplineSet
EndChar

StartChar: tmvowelsignU
Encoding: 3009 3009 90
Width: 365
GlyphClass: 2
Flags: W
LayerCount: 2
Fore
SplineSet
323 361 m 2,0,1
 323 154 323 154 178 154 c 0,2,3
 138 154 138 154 113 176 c 1,4,-1
 112 176 l 1,5,6
 88 201 88 201 88 240 c 0,7,8
 88 264 88 264 92 285 c 256,9,10
 96 306 96 306 103 322 c 1,11,-1
 -197 323 l 1,12,-1
 -202 323 l 1,13,-1
 -202 328 l 1,14,-1
 -203 361 l 1,15,-1
 -203 366 l 1,16,-1
 -198 366 l 1,17,-1
 318 366 l 1,18,-1
 323 366 l 1,19,-1
 323 361 l 2,0,1
238 308 m 2,20,-1
 237 322 l 1,21,-1
 154 323 l 1,22,23
 150 317 150 317 147 306 c 0,24,25
 142 291 142 291 139 282 c 2,26,27
 139 282 139 282 137 271 c 0,28,29
 136 260 136 260 134 249 c 2,30,-1
 133 238 l 2,31,32
 133 198 133 198 173 198 c 0,33,34
 189 198 189 198 202 208 c 0,35,36
 214 217 214 217 224 237 c 0,37,38
 231 253 231 253 235 271 c 0,39,40
 238 288 238 288 238 308 c 2,20,-1
EndSplineSet
EndChar

StartChar: tmvowelsignUU
Encoding: 3010 3010 91
Width: 575
GlyphClass: 2
Flags: W
LayerCount: 2
Fore
SplineSet
323 261 m 0,0,1
 289 205 289 205 216 205 c 0,2,3
 174 205 174 205 147 236 c 0,4,5
 125 261 125 261 125 299 c 0,6,7
 125 342 125 342 135 379 c 1,8,-1
 -160 380 l 1,9,-1
 -165 380 l 1,10,-1
 -165 385 l 1,11,-1
 -166 421 l 1,12,-1
 -166 426 l 1,13,-1
 -161 426 l 1,14,-1
 150 427 l 1,15,16
 209 552 209 552 359 552 c 0,17,18
 408 552 408 552 446 533 c 256,19,20
 484 514 484 514 511 476 c 0,21,22
 556 411 556 411 556 316 c 0,23,24
 556 209 556 209 475 123 c 0,25,26
 394 36 394 36 280 36 c 0,27,28
 158 36 158 36 89 104 c 0,29,30
 53 141 53 141 34 194 c 256,31,32
 15 247 15 247 15 318 c 2,33,-1
 15 323 l 1,34,-1
 20 323 l 1,35,-1
 51 323 l 1,36,-1
 56 323 l 1,37,-1
 56 318 l 2,38,39
 56 202 56 202 112 141 c 0,40,41
 168 81 168 81 262 81 c 0,42,43
 360 81 360 81 417 156 c 0,44,45
 470 224 470 224 470 326 c 0,46,47
 470 502 470 502 329 502 c 0,48,49
 261 502 261 502 211 428 c 1,50,-1
 363 426 l 1,51,-1
 369 426 l 1,52,-1
 368 420 l 2,53,54
 361 362 361 362 351 325 c 0,55,56
 341 287 341 287 323 261 c 0,0,1
277 379 m 1,57,-1
 187 380 l 1,58,59
 173 340 173 340 173 310 c 0,60,61
 173 253 173 253 212 253 c 0,62,63
 226 253 226 253 236 258 c 0,64,65
 247 264 247 264 255 275 c 0,66,67
 263 287 263 287 268 304 c 0,68,69
 272 317 272 317 275 336 c 0,70,71
 277 353 277 353 277 379 c 1,57,-1
EndSplineSet
EndChar

StartChar: tmvowelsignE
Encoding: 3014 3014 92
Width: 707
GlyphClass: 2
Flags: W
LayerCount: 2
Fore
SplineSet
699 301 m 2,0,-1
 639 1 l 1,1,-1
 638 -3 l 1,2,-1
 634 -3 l 1,3,-1
 603 -3 l 1,4,-1
 597 -3 l 1,5,-1
 598 3 l 1,6,-1
 650 251 l 2,7,8
 651 253 651 253 651 262 c 0,9,10
 651 272 651 272 652 289 c 0,11,12
 652 307 652 307 652 330 c 0,13,14
 652 431 652 431 570 498 c 0,15,16
 498 558 498 558 410 558 c 0,17,18
 358 558 358 558 311 537 c 256,19,20
 264 516 264 516 222 474 c 0,21,22
 132 385 132 385 132 263 c 0,23,24
 132 170 132 170 194 100 c 0,25,26
 251 38 251 38 323 38 c 1,27,-1
 332 40 l 1,28,29
 324 56 324 56 319 77 c 0,30,31
 313 102 313 102 313 134 c 0,32,33
 313 196 313 196 349 245 c 0,34,35
 385 295 385 295 443 295 c 0,36,37
 488 295 488 295 520 260 c 0,38,39
 552 226 552 226 552 176 c 0,40,41
 552 97 552 97 491 43 c 0,42,43
 431 -10 431 -10 344 -10 c 0,44,45
 232 -10 232 -10 155 77 c 0,46,47
 85 159 85 159 85 275 c 0,48,49
 85 400 85 400 179 509 c 0,50,51
 284 629 284 629 431 629 c 0,52,53
 549 629 549 629 623 564 c 0,54,55
 704 492 704 492 704 374 c 2,56,-1
 704 363 l 2,57,58
 704 357 704 357 704 351 c 256,59,60
 704 345 704 345 704 339 c 0,61,62
 703 334 703 334 703 329 c 0,63,64
 703 326 703 326 703 324 c 0,65,66
 702 321 702 321 702 319 c 0,67,68
 702 316 702 316 701 314 c 0,69,70
 701 312 701 312 701 310 c 0,71,72
 700 307 700 307 700 305 c 0,73,74
 699 303 699 303 699 301 c 2,0,-1
375 198 m 0,75,76
 355 165 355 165 355 122 c 0,77,78
 355 111 355 111 356 100 c 0,79,80
 358 90 358 90 360 81 c 0,81,82
 362 71 362 71 366 63 c 0,83,84
 369 55 369 55 374 48 c 1,85,86
 413 63 413 63 441 96 c 0,87,88
 470 131 470 131 470 172 c 0,89,90
 470 232 470 232 427 232 c 0,91,92
 398 232 398 232 375 198 c 0,75,76
EndSplineSet
EndChar

StartChar: tmvowelsignEE
Encoding: 3015 3015 93
Width: 608
GlyphClass: 2
Flags: W
LayerCount: 2
Fore
SplineSet
628 473 m 0,0,1
 628 426 628 426 601 393 c 0,2,3
 573 359 573 359 524 359 c 0,4,5
 501 359 501 359 482 366 c 0,6,7
 463 374 463 374 449 389 c 0,8,9
 435 403 435 403 428 422 c 0,10,11
 421 440 421 440 421 462 c 0,12,13
 421 474 421 474 423 485 c 0,14,15
 425 497 425 497 429 507 c 0,16,17
 433 518 433 518 439 528 c 0,18,19
 445 537 445 537 453 546 c 0,20,21
 460 555 460 555 470 563 c 1,22,23
 432 577 432 577 390 577 c 0,24,25
 289 577 289 577 215 507 c 0,26,27
 135 433 135 433 135 314 c 0,28,29
 135 217 135 217 202 135 c 256,30,31
 269 53 269 53 357 53 c 0,32,33
 379 53 379 53 409 62 c 1,34,35
 375 108 375 108 375 169 c 0,36,37
 375 227 375 227 407 266 c 256,38,39
 439 305 439 305 492 305 c 0,40,41
 516 305 516 305 536 297 c 0,42,43
 556 288 556 288 573 272 c 0,44,45
 605 239 605 239 605 192 c 0,46,47
 605 111 605 111 534 54 c 256,48,49
 463 -3 463 -3 368 -3 c 0,50,51
 262 -3 262 -3 178 94 c 256,52,53
 94 191 94 191 94 308 c 0,54,55
 94 446 94 446 184 541 c 0,56,57
 274 637 274 637 414 637 c 0,58,59
 441 637 441 637 467 632 c 256,60,61
 493 627 493 627 516 617 c 0,62,63
 540 607 540 607 562 593 c 0,64,65
 595 570 595 570 611 540 c 0,66,67
 628 510 628 510 628 473 c 0,0,1
545 478 m 0,68,69
 545 513 545 513 509 542 c 1,70,71
 488 535 488 535 475 513 c 0,72,73
 469 501 469 501 465 490 c 0,74,75
 462 479 462 479 462 469 c 0,76,77
 462 417 462 417 498 417 c 0,78,79
 545 417 545 417 545 478 c 0,68,69
523 186 m 0,80,81
 523 246 523 246 477 246 c 0,82,83
 463 246 463 246 452 241 c 0,84,85
 441 235 441 235 433 224 c 0,86,87
 424 213 424 213 420 200 c 256,88,89
 416 187 416 187 416 171 c 0,90,91
 416 114 416 114 452 78 c 1,92,93
 523 122 523 122 523 186 c 0,80,81
EndSplineSet
EndChar

StartChar: tmvowelsignAI
Encoding: 3016 3016 94
Width: 802
GlyphClass: 2
Flags: W
LayerCount: 2
Fore
SplineSet
785 220 m 0,0,1
 785 98 785 98 668 2 c 1,2,-1
 664 -1 l 1,3,-1
 661 3 l 1,4,-1
 642 28 l 1,5,-1
 640 31 l 1,6,-1
 642 34 l 1,7,8
 703 113 703 113 703 210 c 0,9,10
 703 227 703 227 700 242 c 0,11,12
 697 258 697 258 691 272 c 256,13,14
 685 286 685 286 676 299 c 0,15,16
 666 313 666 313 654 322 c 0,17,18
 641 331 641 331 627 335 c 0,19,20
 613 340 613 340 597 340 c 0,21,22
 589 340 589 340 580 339 c 0,23,24
 572 337 572 337 563 335 c 0,25,26
 554 332 554 332 545 328 c 0,27,28
 536 325 536 325 527 320 c 1,29,30
 560 285 560 285 577 245 c 0,31,32
 593 204 593 204 593 158 c 0,33,34
 593 94 593 94 567 49 c 0,35,36
 537 -3 537 -3 476 -3 c 0,37,38
 429 -3 429 -3 399 38 c 0,39,40
 374 74 374 74 374 131 c 0,41,42
 374 226 374 226 434 303 c 1,43,44
 425 309 425 309 416 314 c 256,45,46
 407 319 407 319 398 323 c 0,47,48
 388 327 388 327 378 331 c 0,49,50
 369 334 369 334 359 337 c 0,51,52
 348 339 348 339 338 341 c 0,53,54
 327 342 327 342 316 343 c 256,55,56
 305 344 305 344 294 344 c 0,57,58
 282 344 282 344 271 343 c 0,59,60
 259 342 259 342 248 340 c 256,61,62
 237 338 237 338 226 335 c 256,63,64
 215 332 215 332 205 328 c 0,65,66
 194 324 194 324 184 319 c 256,67,68
 174 314 174 314 164 308 c 256,69,70
 154 302 154 302 144 295 c 0,71,72
 111 271 111 271 95 241 c 0,73,74
 78 211 78 211 78 174 c 0,75,76
 78 105 78 105 123 77 c 1,77,78
 116 96 116 96 116 118 c 0,79,80
 116 169 116 169 145 206 c 0,81,82
 175 244 175 244 221 244 c 0,83,84
 263 244 263 244 290 215 c 256,85,86
 317 186 317 186 317 140 c 0,87,88
 317 111 317 111 308 86 c 0,89,90
 300 61 300 61 282 40 c 0,91,92
 265 19 265 19 243 8 c 0,93,94
 220 -3 220 -3 193 -3 c 0,95,96
 159 -3 159 -3 130 9 c 0,97,98
 102 20 102 20 81 43 c 0,99,100
 38 89 38 89 38 169 c 0,101,102
 38 268 38 268 111 329 c 0,103,104
 151 362 151 362 205 378 c 0,105,106
 260 394 260 394 329 394 c 0,107,108
 375 394 375 394 414 383 c 0,109,110
 454 372 454 372 485 351 c 1,111,112
 506 366 506 366 528 376 c 0,113,114
 549 386 549 386 571 391 c 256,115,116
 593 396 593 396 616 396 c 0,117,118
 652 396 652 396 682 383 c 256,119,120
 712 370 712 370 737 345 c 0,121,122
 761 320 761 320 773 288 c 0,123,124
 785 257 785 257 785 220 c 0,0,1
425 83 m 0,125,126
 440 63 440 63 462 63 c 0,127,128
 512 63 512 63 512 145 c 0,129,130
 512 182 512 182 501 214 c 0,131,132
 491 243 491 243 470 270 c 1,133,134
 414 199 414 199 414 126 c 0,135,136
 414 101 414 101 425 83 c 0,125,126
240 142 m 0,137,138
 240 181 240 181 203 181 c 0,139,140
 194 181 194 181 186 176 c 0,141,142
 179 171 179 171 172 161 c 0,143,144
 166 150 166 150 162 139 c 0,145,146
 159 127 159 127 159 114 c 0,147,148
 159 84 159 84 170 64 c 1,149,-1
 174 63 l 1,150,151
 199 63 199 63 219 89 c 0,152,153
 229 102 229 102 234 115 c 0,154,155
 240 128 240 128 240 142 c 0,137,138
EndSplineSet
EndChar

StartChar: tmvowelsignO
Encoding: 3018 3018 95
Width: 1600
GlyphClass: 2
Flags: W
LayerCount: 2
Fore
SplineSet
480 67 m 0,0,1
 461 29 461 29 421 9 c 0,2,3
 408 2 408 2 394.5 -2 c 128,-1,4
 381 -6 381 -6 367 -8 c 128,-1,5
 353 -10 353 -10 338 -10 c 0,6,7
 263 -10 263 -10 203 18.5 c 128,-1,8
 143 47 143 47 103 96 c 0,9,10
 83 121 83 121 68 149 c 128,-1,11
 53 177 53 177 42 210 c 0,12,13
 33 241 33 241 28 272 c 0,14,15
 25 288 25 288 23.5 304 c 128,-1,16
 22 320 22 320 22 337 c 0,17,18
 22 406 22 406 48 475 c 128,-1,19
 74 544 74 544 120 598 c 0,20,21
 143 625 143 625 170 646.5 c 128,-1,22
 197 668 197 668 228 684 c 0,23,24
 249 695 249 695 270.5 702 c 128,-1,25
 292 709 292 709 315 712.5 c 128,-1,26
 338 716 338 716 361 716 c 0,27,28
 382 716 382 716 405 712 c 128,-1,29
 428 708 428 708 451 700 c 0,30,31
 498 683 498 683 543 647 c 0,32,33
 567 628 567 628 583 607 c 128,-1,34
 599 586 599 586 613 557 c 0,35,36
 627 530 627 530 634 498.5 c 128,-1,37
 641 467 641 467 641 431 c 2,38,-1
 641 6 l 1,39,-1
 641 1 l 1,40,-1
 636 1 l 1,41,-1
 555 1 l 1,42,-1
 550 1 l 1,43,-1
 550 6 l 1,44,-1
 550 440 l 2,45,46
 550 480 550 480 537 512 c 128,-1,47
 524 544 524 544 497 573 c 128,-1,48
 470 602 470 602 435 618 c 0,49,50
 417 626 417 626 398.5 630 c 128,-1,51
 380 634 380 634 361 634 c 0,52,53
 307 634 307 634 260 607 c 0,54,55
 212 579 212 579 180 533 c 0,56,57
 169 517 169 517 159.5 500.5 c 128,-1,58
 150 484 150 484 142 467.5 c 128,-1,59
 134 451 134 451 128 433 c 0,60,61
 110 381 110 381 110 338 c 0,62,63
 110 239 110 239 149 180 c 0,64,65
 182 131 182 131 218 103 c 1,66,67
 208 129 208 129 208 162 c 0,68,69
 208 221 208 221 251.5 263 c 128,-1,70
 295 305 295 305 356 305 c 0,71,72
 370 305 370 305 384 302 c 128,-1,73
 398 299 398 299 411 294 c 0,74,75
 439 282 439 282 459 260 c 0,76,77
 464 256 464 256 468 250.5 c 128,-1,78
 472 245 472 245 476 239.5 c 128,-1,79
 480 234 480 234 483.5 227.5 c 128,-1,80
 487 221 487 221 490 214 c 0,81,82
 492 207 492 207 494.5 200.5 c 128,-1,83
 497 194 497 194 498 187 c 0,84,85
 502 173 502 173 502 157 c 0,86,87
 502 103 502 103 480 67 c 0,0,1
398 95 m 0,88,89
 414 121 414 121 414 152 c 0,90,91
 414 167 414 167 409.5 180 c 128,-1,92
 405 193 405 193 396 203.5 c 128,-1,93
 387 214 387 214 376.5 219 c 128,-1,94
 366 224 366 224 354 224 c 0,95,96
 345 224 345 224 336.5 221.5 c 128,-1,97
 328 219 328 219 321 214.5 c 128,-1,98
 314 210 314 210 308 203 c 0,99,100
 298 192 298 192 293.5 179.5 c 128,-1,101
 289 167 289 167 289 152 c 0,102,103
 289 134 289 134 293.5 119.5 c 128,-1,104
 298 105 298 105 306 94 c 0,105,106
 312 87 312 87 319 82 c 128,-1,107
 326 77 326 77 333.5 74.5 c 128,-1,108
 341 72 341 72 350 72 c 0,109,110
 382 72 382 72 398 95 c 0,88,89
1574 341 m 1,111,-1
 1492 341 l 1,112,-1
 1492 0 l 1,113,-1
 1492 -5 l 1,114,-1
 1487 -5 l 1,115,-1
 1410 -5 l 1,116,-1
 1405 -5 l 1,117,-1
 1405 0 l 1,118,-1
 1405 341 l 1,119,-1
 1315 341 l 1,120,-1
 1315 0 l 1,121,-1
 1315 -5 l 1,122,-1
 1310 -5 l 1,123,-1
 1233 -5 l 1,124,-1
 1228 -5 l 1,125,-1
 1228 0 l 1,126,-1
 1228 422 l 1,127,-1
 1228 427 l 1,128,-1
 1233 427 l 1,129,-1
 1574 427 l 1,130,-1
 1579 427 l 1,131,-1
 1579 422 l 1,132,-1
 1579 346 l 1,133,-1
 1579 341 l 1,134,-1
 1574 341 l 1,111,-1
EndSplineSet
EndChar

StartChar: tmvowelsignOO
Encoding: 3019 3019 96
Width: 1707
GlyphClass: 2
Flags: W
LayerCount: 2
Fore
SplineSet
352 62 m 2,0,-1
 384 63 l 1,1,2
 348 99 348 99 348 156 c 0,3,4
 348 188 348 188 363.5 216 c 128,-1,5
 379 244 379 244 406 261 c 1,6,-1
 407 261 l 1,7,8
 421 269 421 269 437 273 c 128,-1,9
 453 277 453 277 471 277 c 0,10,11
 498 277 498 277 520 268 c 1,12,-1
 520 267 l 1,13,14
 527 264 527 264 533.5 259.5 c 128,-1,15
 540 255 540 255 546 250 c 128,-1,16
 552 245 552 245 557 239 c 0,17,18
 573 221 573 221 583 197 c 1,19,-1
 583 196 l 2,20,21
 586 184 586 184 588 171.5 c 128,-1,22
 590 159 590 159 590 147 c 0,23,24
 590 92 590 92 555 57 c 0,25,26
 519 23 519 23 465 5 c 1,27,-1
 464 5 l 1,28,-1
 411 -6 l 2,29,30
 385 -10 385 -10 354 -10 c 0,31,32
 280 -10 280 -10 215 34 c 0,33,34
 149 79 149 79 109 154 c 0,35,36
 99 173 99 173 91.5 192.5 c 128,-1,37
 84 212 84 212 79 231.5 c 128,-1,38
 74 251 74 251 71.5 271 c 128,-1,39
 69 291 69 291 69 311 c 0,40,41
 69 324 69 324 70 336.5 c 128,-1,42
 71 349 71 349 72.5 361 c 128,-1,43
 74 373 74 373 77 385.5 c 128,-1,44
 80 398 80 398 83.5 410 c 128,-1,45
 87 422 87 422 92 434 c 0,46,47
 115 494 115 494 155 540 c 0,48,49
 176 564 176 564 200 582.5 c 128,-1,50
 224 601 224 601 253 615 c 0,51,52
 310 642 310 642 372 642 c 0,53,54
 401 642 401 642 428.5 637.5 c 128,-1,55
 456 633 456 633 481 624 c 0,56,57
 497 618 497 618 511.5 610 c 128,-1,58
 526 602 526 602 538.5 592 c 128,-1,59
 551 582 551 582 561 570 c 0,60,61
 591 534 591 534 591 485 c 0,62,63
 591 427 591 427 555 393.5 c 128,-1,64
 519 360 519 360 469 360 c 0,65,66
 463 360 463 360 456.5 360.5 c 128,-1,67
 450 361 450 361 444 362.5 c 128,-1,68
 438 364 438 364 432 365.5 c 128,-1,69
 426 367 426 367 420.5 369.5 c 128,-1,70
 415 372 415 372 410 375 c 0,71,72
 403 379 403 379 397 383.5 c 128,-1,73
 391 388 391 388 385.5 393.5 c 128,-1,74
 380 399 380 399 375 405 c 128,-1,75
 370 411 370 411 366 417 c 0,76,77
 350 443 350 443 348 476 c 1,78,-1
 348 476 l 1,79,80
 348 528 348 528 381 566 c 1,81,-1
 369 566 l 2,82,83
 357 566 357 566 342 563 c 128,-1,84
 327 560 327 560 310 553 c 1,85,-1
 309 553 l 1,86,87
 273 543 273 543 237 511 c 1,88,-1
 237 511 l 1,89,90
 220 498 220 498 204.5 478.5 c 128,-1,91
 189 459 189 459 176.5 433 c 128,-1,92
 164 407 164 407 157.5 376.5 c 128,-1,93
 151 346 151 346 151 311 c 0,94,95
 151 250 151 250 179 193 c 128,-1,96
 207 136 207 136 254 99 c 0,97,98
 300 62 300 62 352 62 c 2,0,-1
469 536 m 0,99,100
 452 536 452 536 440 520 c 0,101,102
 427 503 427 503 427 483 c 0,103,104
 427 465 427 465 440 450 c 256,105,106
 453 435 453 435 470 435 c 0,107,108
 489 435 489 435 500 450 c 0,109,110
 511 467 511 467 511 488 c 0,111,112
 511 508 511 508 498 520 c 1,113,-1
 498 521 l 1,114,115
 487 535 487 535 469 536 c 0,99,100
514 148 m 0,116,117
 514 170 514 170 502 188 c 0,118,119
 490 205 490 205 470 205 c 0,120,121
 453 205 453 205 438.5 189.5 c 128,-1,122
 424 174 424 174 424 149 c 0,123,124
 424 145 424 145 424.5 142 c 128,-1,125
 425 139 425 139 425.5 135.5 c 128,-1,126
 426 132 426 132 427.5 129 c 128,-1,127
 429 126 429 126 430.5 123.5 c 128,-1,128
 432 121 432 121 434.5 118 c 128,-1,129
 437 115 437 115 439 112 c 0,130,131
 447 105 447 105 454.5 101 c 128,-1,132
 462 97 462 97 470 97 c 0,133,134
 490 97 490 97 502 113 c 256,135,136
 514 129 514 129 514 148 c 0,116,117
1693 423 m 1,137,-1
 1592 423 l 1,138,-1
 1592 5 l 1,139,-1
 1592 0 l 1,140,-1
 1587 0 l 1,141,-1
 1493 0 l 1,142,-1
 1488 0 l 1,143,-1
 1488 5 l 1,144,-1
 1488 423 l 1,145,-1
 1376 423 l 1,146,-1
 1376 5 l 1,147,-1
 1376 0 l 1,148,-1
 1371 0 l 1,149,-1
 1278 0 l 1,150,-1
 1273 0 l 1,151,-1
 1273 5 l 1,152,-1
 1273 521 l 1,153,-1
 1273 526 l 1,154,-1
 1278 526 l 1,155,-1
 1693 526 l 1,156,-1
 1698 526 l 1,157,-1
 1698 521 l 1,158,-1
 1698 428 l 1,159,-1
 1698 423 l 1,160,-1
 1693 423 l 1,137,-1
EndSplineSet
EndChar

StartChar: tmvowelsignAU
Encoding: 3020 3020 97
Width: 1668
GlyphClass: 2
Flags: W
LayerCount: 2
Fore
SplineSet
480 67 m 0,0,1
 461 29 461 29 421 9 c 0,2,3
 408 2 408 2 394.5 -2 c 128,-1,4
 381 -6 381 -6 367 -8 c 128,-1,5
 353 -10 353 -10 338 -10 c 0,6,7
 263 -10 263 -10 203 18.5 c 128,-1,8
 143 47 143 47 103 96 c 0,9,10
 83 121 83 121 68 149 c 128,-1,11
 53 177 53 177 42 210 c 0,12,13
 33 241 33 241 28 272 c 0,14,15
 25 288 25 288 23.5 304 c 128,-1,16
 22 320 22 320 22 337 c 0,17,18
 22 406 22 406 48 475 c 128,-1,19
 74 544 74 544 120 598 c 0,20,21
 143 625 143 625 170 646.5 c 128,-1,22
 197 668 197 668 228 684 c 0,23,24
 249 695 249 695 270.5 702 c 128,-1,25
 292 709 292 709 315 712.5 c 128,-1,26
 338 716 338 716 361 716 c 0,27,28
 382 716 382 716 405 712 c 128,-1,29
 428 708 428 708 451 700 c 0,30,31
 498 683 498 683 543 647 c 0,32,33
 567 628 567 628 583 607 c 128,-1,34
 599 586 599 586 613 557 c 0,35,36
 627 530 627 530 634 498.5 c 128,-1,37
 641 467 641 467 641 431 c 2,38,-1
 641 6 l 1,39,-1
 641 1 l 1,40,-1
 636 1 l 1,41,-1
 555 1 l 1,42,-1
 550 1 l 1,43,-1
 550 6 l 1,44,-1
 550 440 l 2,45,46
 550 480 550 480 537 512 c 128,-1,47
 524 544 524 544 497 573 c 128,-1,48
 470 602 470 602 435 618 c 0,49,50
 417 626 417 626 398.5 630 c 128,-1,51
 380 634 380 634 361 634 c 0,52,53
 307 634 307 634 260 607 c 0,54,55
 212 579 212 579 180 533 c 0,56,57
 169 517 169 517 159.5 500.5 c 128,-1,58
 150 484 150 484 142 467.5 c 128,-1,59
 134 451 134 451 128 433 c 0,60,61
 110 381 110 381 110 338 c 0,62,63
 110 239 110 239 149 180 c 0,64,65
 182 131 182 131 218 103 c 1,66,67
 208 129 208 129 208 162 c 0,68,69
 208 221 208 221 251.5 263 c 128,-1,70
 295 305 295 305 356 305 c 0,71,72
 370 305 370 305 384 302 c 128,-1,73
 398 299 398 299 411 294 c 0,74,75
 439 282 439 282 459 260 c 0,76,77
 464 256 464 256 468 250.5 c 128,-1,78
 472 245 472 245 476 239.5 c 128,-1,79
 480 234 480 234 483.5 227.5 c 128,-1,80
 487 221 487 221 490 214 c 0,81,82
 492 207 492 207 494.5 200.5 c 128,-1,83
 497 194 497 194 498 187 c 0,84,85
 502 173 502 173 502 157 c 0,86,87
 502 103 502 103 480 67 c 0,0,1
398 95 m 0,88,89
 414 121 414 121 414 152 c 0,90,91
 414 167 414 167 409.5 180 c 128,-1,92
 405 193 405 193 396 203.5 c 128,-1,93
 387 214 387 214 376.5 219 c 128,-1,94
 366 224 366 224 354 224 c 0,95,96
 345 224 345 224 336.5 221.5 c 128,-1,97
 328 219 328 219 321 214.5 c 128,-1,98
 314 210 314 210 308 203 c 0,99,100
 298 192 298 192 293.5 179.5 c 128,-1,101
 289 167 289 167 289 152 c 0,102,103
 289 134 289 134 293.5 119.5 c 128,-1,104
 298 105 298 105 306 94 c 0,105,106
 312 87 312 87 319 82 c 128,-1,107
 326 77 326 77 333.5 74.5 c 128,-1,108
 341 72 341 72 350 72 c 0,109,110
 382 72 382 72 398 95 c 0,88,89
1228 277 m 0,111,112
 1239 289 1239 289 1250 296 c 0,113,114
 1262 303 1262 303 1277 311 c 1,115,-1
 1277 311 l 1,116,117
 1305 321 1305 321 1335 321 c 0,118,119
 1362 321 1362 321 1381 315 c 256,120,121
 1400 309 1400 309 1415 300 c 0,122,123
 1422 297 1422 297 1425 295 c 128,-1,124
 1428 293 1428 293 1430 292 c 0,125,126
 1430 291 1430 291 1431 290 c 1,127,-1
 1431 316 l 1,128,-1
 1431 321 l 1,129,-1
 1436 321 l 1,130,-1
 1674 321 l 1,131,-1
 1679 321 l 1,132,-1
 1679 316 l 1,133,-1
 1679 263 l 1,134,-1
 1679 258 l 1,135,-1
 1674 258 l 1,136,-1
 1616 258 l 1,137,-1
 1616 21 l 1,138,-1
 1616 16 l 1,139,-1
 1611 16 l 1,140,-1
 1557 16 l 1,141,-1
 1552 16 l 1,142,-1
 1552 21 l 1,143,-1
 1552 258 l 1,144,-1
 1494 258 l 1,145,-1
 1494 21 l 1,146,-1
 1494 16 l 1,147,-1
 1489 16 l 1,148,-1
 1436 16 l 1,149,-1
 1431 16 l 1,150,-1
 1431 21 l 1,151,-1
 1431 206 l 1,152,-1
 1417 224 l 2,153,154
 1409 231 1409 231 1403 236 c 0,155,156
 1400 238 1400 238 1395.5 241.5 c 128,-1,157
 1391 245 1391 245 1385 249 c 0,158,159
 1365 261 1365 261 1334 261 c 0,160,161
 1308 261 1308 261 1287 246 c 0,162,163
 1266 230 1266 230 1255 206 c 0,164,165
 1244 181 1244 181 1243 159 c 0,166,167
 1243 145 1243 145 1245 134 c 1,168,169
 1248 145 1248 145 1253 154.5 c 128,-1,170
 1258 164 1258 164 1266 174 c 0,171,172
 1290 201 1290 201 1325 201 c 0,173,174
 1364 201 1364 201 1387 173 c 0,175,176
 1409 145 1409 145 1409 102 c 0,177,178
 1409 95 1409 95 1407.5 87.5 c 128,-1,179
 1406 80 1406 80 1403.5 72.5 c 128,-1,180
 1401 65 1401 65 1397 58 c 0,181,182
 1386 36 1386 36 1366 25 c 0,183,184
 1346 13 1346 13 1323 13 c 0,185,186
 1321 13 1321 13 1319 13 c 0,187,188
 1300 13 1300 13 1282.5 18 c 128,-1,189
 1265 23 1265 23 1249 33 c 1,190,-1
 1249 33 l 1,191,192
 1234 43 1234 43 1222 57 c 128,-1,193
 1210 71 1210 71 1201 88 c 0,194,195
 1183 122 1183 122 1183 160 c 256,196,197
 1183 198 1183 198 1194.5 226.5 c 128,-1,198
 1206 255 1206 255 1228 277 c 0,111,112
1348 108 m 0,199,200
 1348 125 1348 125 1341 135 c 0,201,202
 1338 140 1338 140 1334 142 c 128,-1,203
 1330 144 1330 144 1324 144 c 0,204,205
 1314 144 1314 144 1306 134 c 0,206,207
 1299 121 1299 121 1299 108 c 0,208,209
 1299 102 1299 102 1299.5 97 c 128,-1,210
 1300 92 1300 92 1301.5 87.5 c 128,-1,211
 1303 83 1303 83 1305 80 c 0,212,213
 1308 75 1308 75 1312 73 c 128,-1,214
 1316 71 1316 71 1322 71 c 0,215,216
 1327 71 1327 71 1330.5 72 c 128,-1,217
 1334 73 1334 73 1336.5 75 c 128,-1,218
 1339 77 1339 77 1341 80 c 2,219,-1
 1341 81 l 2,220,221
 1344 85 1344 85 1346 91.5 c 128,-1,222
 1348 98 1348 98 1348 108 c 0,199,200
EndSplineSet
EndChar

StartChar: tmsignVIRAMA
Encoding: 3021 3021 98
Width: 0
GlyphClass: 2
Flags: W
LayerCount: 2
Fore
SplineSet
-243 694 m 0,0,1
 -243 661 -243 661 -264 639 c 0,2,3
 -286 617 -286 617 -323 617 c 0,4,5
 -358 617 -358 617 -379 639 c 1,6,-1
 -379 639 l 1,7,8
 -388 650 -388 650 -392 664 c 0,9,10
 -397 679 -397 679 -397 697 c 0,11,12
 -397 732 -397 732 -374 752 c 0,13,14
 -352 771 -352 771 -320 771 c 0,15,16
 -285 771 -285 771 -262 745 c 0,17,18
 -243 723 -243 723 -243 694 c 0,0,1
EndSplineSet
EndChar

StartChar: tmAUlengthmark
Encoding: 3031 3031 99
Width: 759
GlyphClass: 2
Flags: W
LayerCount: 2
Fore
SplineSet
826 371 m 1,0,-1
 820 336 l 1,1,-1
 819 332 l 1,2,-1
 815 332 l 1,3,-1
 717 331 l 1,4,-1
 648 1 l 1,5,-1
 647 -3 l 1,6,-1
 643 -3 l 1,7,-1
 576 -3 l 1,8,-1
 570 -3 l 1,9,-1
 571 3 l 1,10,-1
 637 331 l 1,11,-1
 526 331 l 1,12,-1
 458 1 l 1,13,-1
 457 -3 l 1,14,-1
 453 -3 l 1,15,-1
 389 -3 l 1,16,-1
 383 -3 l 1,17,-1
 384 3 l 1,18,-1
 407 129 l 2,19,20
 412 153 412 153 414 176 c 0,21,22
 416 200 416 200 416 224 c 0,23,24
 416 269 416 269 378 303 c 0,25,26
 339 337 339 337 291 337 c 0,27,28
 273 337 273 337 256 334 c 256,29,30
 239 331 239 331 223 325 c 0,31,32
 207 318 207 318 192 309 c 0,33,34
 176 300 176 300 162 287 c 0,35,36
 106 238 106 238 106 169 c 256,37,38
 106 100 106 100 144 67 c 1,39,40
 141 77 141 77 139 87 c 0,41,42
 138 97 138 97 138 108 c 0,43,44
 138 127 138 127 141 143 c 0,45,46
 144 160 144 160 151 174 c 0,47,48
 157 188 157 188 167 199 c 0,49,50
 197 234 197 234 237 234 c 0,51,52
 334 234 334 234 334 136 c 0,53,54
 334 117 334 117 330 99 c 0,55,56
 327 81 327 81 320 65 c 0,57,58
 312 49 312 49 301 34 c 0,59,60
 285 13 285 13 262 2 c 0,61,62
 240 -9 240 -9 211 -9 c 0,63,64
 147 -9 147 -9 104 40 c 0,65,66
 62 88 62 88 62 158 c 0,67,68
 62 249 62 249 133 320 c 0,69,70
 200 384 200 384 283 384 c 0,71,72
 321 384 321 384 353 374 c 0,73,74
 384 363 384 363 410 343 c 0,75,76
 452 310 452 310 469 258 c 1,77,-1
 493 373 l 1,78,-1
 494 377 l 1,79,-1
 498 377 l 1,80,-1
 821 377 l 1,81,-1
 827 377 l 1,82,-1
 826 371 l 1,0,-1
253 133 m 0,83,84
 253 179 253 179 223 179 c 0,85,86
 212 179 212 179 205 174 c 0,87,88
 197 169 197 169 191 159 c 0,89,90
 186 148 186 148 183 137 c 0,91,92
 180 125 180 125 180 112 c 0,93,94
 180 75 180 75 192 54 c 1,95,96
 218 58 218 58 235 82 c 0,97,98
 244 96 244 96 249 108 c 0,99,100
 253 121 253 121 253 133 c 0,83,84
EndSplineSet
EndChar

StartChar: tmdigitONE
Encoding: 3047 3047 100
Width: 568
GlyphClass: 2
Flags: W
LayerCount: 2
Fore
SplineSet
364 47 m 0,0,1
 369 74 369 74 393 74 c 0,2,3
 394 74 394 74 395 74 c 2,4,-1
 396 74 l 1,5,-1
 397 74 l 1,6,7
 418 67 418 67 432 67 c 0,8,9
 472 67 472 67 472 140 c 0,10,11
 472 207 472 207 430 207 c 0,12,13
 424 207 424 207 419 206 c 2,14,-1
 418 206 l 1,15,-1
 373 206 l 1,16,-1
 373 157 l 2,17,18
 373 99 373 99 359 66 c 0,19,20
 326 -10 326 -10 227 -10 c 0,21,22
 160 -10 160 -10 120 33 c 0,23,24
 79 76 79 76 79 157 c 0,25,26
 79 231 79 231 122 265 c 0,27,28
 138 277 138 277 160 282 c 1,29,-1
 160 488 l 1,30,-1
 160 493 l 1,31,-1
 165 493 l 1,32,-1
 468 493 l 1,33,-1
 469 493 l 1,34,35
 492 487 492 487 492 453 c 0,36,37
 492 437 492 437 486.5 427 c 128,-1,38
 481 417 481 417 469 414 c 2,39,-1
 468 414 l 1,40,-1
 373 414 l 1,41,-1
 373 286 l 1,42,-1
 419 286 l 2,43,44
 448 286 448 286 470 277 c 128,-1,45
 492 268 492 268 506 251 c 0,46,47
 534 216 534 216 534 142 c 0,48,49
 534 126 534 126 532.5 111.5 c 128,-1,50
 531 97 531 97 528 84 c 128,-1,51
 525 71 525 71 520 59.5 c 128,-1,52
 515 48 515 48 509 38 c 128,-1,53
 503 28 503 28 495 20 c 0,54,55
 488 14 488 14 481 9 c 128,-1,56
 474 4 474 4 467 0.5 c 128,-1,57
 460 -3 460 -3 452.5 -5 c 128,-1,58
 445 -7 445 -7 437 -7 c 0,59,60
 404 -7 404 -7 381 2 c 1,61,-1
 381 3 l 1,62,-1
 380 3 l 1,63,64
 363 15 363 15 363 38 c 0,65,66
 363 43 363 43 364 47 c 0,0,1
307 286 m 1,67,-1
 307 414 l 1,68,-1
 226 414 l 1,69,-1
 226 286 l 1,70,-1
 307 286 l 1,67,-1
307 158 m 2,71,-1
 307 206 l 1,72,-1
 188 206 l 2,73,74
 172 206 172 206 161.5 200.5 c 128,-1,75
 151 195 151 195 145.5 182.5 c 128,-1,76
 140 170 140 170 140 150 c 0,77,78
 140 104 140 104 167 78 c 0,79,80
 191 55 191 55 228 55 c 0,81,82
 247 55 247 55 261 60.5 c 128,-1,83
 275 66 275 66 285 77.5 c 128,-1,84
 295 89 295 89 300 106 c 0,85,86
 307 125 307 125 307 151 c 0,87,88
 307 155 307 155 307 158 c 2,71,-1
EndSplineSet
EndChar

StartChar: tmdigitTWO
Encoding: 3048 3048 101
Width: 875
GlyphClass: 2
Flags: W
LayerCount: 2
Fore
SplineSet
856 30 m 0,0,1
 856 -5 856 -5 827 -5 c 2,2,-1
 187 -5 l 2,3,4
 79 -5 79 -5 79 85 c 0,5,6
 79 124 79 124 101 147 c 0,7,8
 116 163 116 163 134 168 c 1,9,10
 110 183 110 183 95 214 c 0,11,12
 76 253 76 253 76 305 c 0,13,14
 76 397 76 397 144 451 c 0,15,16
 204 498 204 498 292 499 c 0,17,18
 336 499 336 499 373.5 488 c 128,-1,19
 411 477 411 477 441 454 c 0,20,21
 512 402 512 402 513 305 c 0,22,23
 513 203 513 203 456 152 c 0,24,25
 405 105 405 105 314 105 c 2,26,-1
 200 105 l 1,27,-1
 200 105 l 1,28,29
 196 105 196 105 192 105 c 0,30,31
 157 105 157 105 157 83 c 0,32,33
 157 77 157 77 159 73 c 128,-1,34
 161 69 161 69 165.5 66 c 128,-1,35
 170 63 170 63 177.5 62.5 c 128,-1,36
 185 62 185 62 195 63 c 2,37,-1
 196 63 l 1,38,-1
 827 63 l 2,39,40
 841 64 841 64 848.5 55 c 128,-1,41
 856 46 856 46 856 30 c 0,0,1
437 304 m 0,42,43
 437 384 437 384 372 413 c 0,44,45
 337 429 337 429 285 429 c 0,46,47
 215 429 215 429 180 382 c 0,48,49
 154 346 154 346 153 304 c 0,50,51
 153 262 153 262 171 230 c 0,52,53
 184 208 184 208 205 193.5 c 128,-1,54
 226 179 226 179 255 172 c 1,55,-1
 312 172 l 2,56,57
 367 172 367 172 401 205 c 0,58,59
 437 240 437 240 437 304 c 0,42,43
EndSplineSet
EndChar

StartChar: tmdigitTHREE
Encoding: 3049 3049 102
Width: 750
GlyphClass: 2
Flags: W
LayerCount: 2
Fore
SplineSet
343 218 m 1,0,-1
 343 157 l 1,1,-1
 343 157 l 1,2,3
 341 128 341 128 305 128 c 0,4,5
 294 128 294 128 286 131 c 128,-1,6
 278 134 278 134 273 140.5 c 128,-1,7
 268 147 268 147 266 156 c 2,8,-1
 266 157 l 1,9,-1
 266 418 l 1,10,-1
 163 418 l 1,11,-1
 163 24 l 1,12,-1
 163 23 l 1,13,14
 158 -5 158 -5 124 -5 c 0,15,16
 91 -5 91 -5 85 23 c 1,17,-1
 85 24 l 1,18,-1
 85 494 l 1,19,-1
 85 499 l 1,20,-1
 90 499 l 1,21,-1
 480 499 l 1,22,-1
 480 499 l 1,23,24
 509 497 509 497 510 458 c 0,25,26
 510 440 510 440 502.5 429.5 c 128,-1,27
 495 419 495 419 480 418 c 1,28,-1
 480 418 l 1,29,-1
 343 418 l 1,30,-1
 343 322 l 1,31,32
 352 330 352 330 364 335 c 128,-1,33
 376 340 376 340 390 342.5 c 128,-1,34
 404 345 404 345 422 345 c 0,35,36
 483 345 483 345 522 306 c 0,37,38
 563 264 563 264 563 192 c 0,39,40
 563 105 563 105 525 75 c 1,41,-1
 709 75 l 1,42,-1
 709 75 l 1,43,44
 724 74 724 74 732 63.5 c 128,-1,45
 740 53 740 53 740 36 c 0,46,47
 740 17 740 17 737 10 c 0,48,49
 730 -5 730 -5 709 -5 c 2,50,-1
 295 -5 l 1,51,-1
 294 -5 l 1,52,53
 267 0 267 0 267 36 c 0,54,55
 267 69 267 69 294 75 c 1,56,-1
 295 75 l 1,57,-1
 400 75 l 1,58,59
 488 93 488 93 488 184 c 0,60,61
 488 224 488 224 472 247 c 0,62,63
 453 274 453 274 416 274 c 0,64,65
 348 274 348 274 343 218 c 1,0,-1
EndSplineSet
EndChar

StartChar: tmdigitFOUR
Encoding: 3050 3050 103
Width: 790
GlyphClass: 2
Flags: W
LayerCount: 2
Fore
SplineSet
750 212 m 1,0,-1
 422 212 l 1,1,-1
 422 161 l 2,2,3
 422 101 422 101 405 68 c 0,4,5
 367 -10 367 -10 252 -10 c 0,6,7
 173 -10 173 -10 128 33 c 0,8,9
 103 56 103 56 91 88 c 128,-1,10
 79 120 79 120 79 161 c 0,11,12
 79 238 79 238 129 272 c 0,13,14
 139 279 139 279 151 283.5 c 128,-1,15
 163 288 163 288 175 290 c 1,16,-1
 175 501 l 1,17,-1
 175 506 l 1,18,-1
 180 506 l 1,19,-1
 535 506 l 1,20,-1
 536 506 l 1,21,22
 563 500 563 500 563 466 c 0,23,24
 563 449 563 449 556 438.5 c 128,-1,25
 549 428 549 428 536 425 c 2,26,-1
 535 425 l 1,27,-1
 422 425 l 1,28,-1
 422 294 l 1,29,-1
 681 294 l 1,30,-1
 681 479 l 1,31,-1
 681 480 l 1,32,33
 686 508 686 508 716 508 c 0,34,35
 717 508 717 508 718 508 c 0,36,37
 754 508 754 508 755 479 c 2,38,-1
 755 217 l 1,39,-1
 755 212 l 1,40,-1
 750 212 l 1,0,-1
347 294 m 1,41,-1
 347 425 l 1,42,-1
 250 425 l 1,43,-1
 250 294 l 1,44,-1
 347 294 l 1,41,-1
347 163 m 2,45,-1
 347 212 l 1,46,-1
 206 212 l 2,47,48
 205 212 205 212 204 212 c 0,49,50
 176 212 176 212 163 198.5 c 128,-1,51
 150 185 150 185 150 156 c 0,52,53
 150 155 150 155 150 154 c 0,54,55
 150 106 150 106 181 81 c 0,56,57
 209 57 209 57 253 57 c 0,58,59
 319 57 319 57 339 109 c 0,60,61
 344 120 344 120 345.5 133.5 c 128,-1,62
 347 147 347 147 347 163 c 2,45,-1
EndSplineSet
EndChar

StartChar: tmdigitFIVE
Encoding: 3051 3051 104
Width: 831
GlyphClass: 2
Flags: W
LayerCount: 2
Fore
SplineSet
791 115 m 0,0,1
 791 -59 791 -59 711 -166 c 0,2,3
 622 -287 622 -287 453 -287 c 0,4,5
 287 -287 287 -287 181 -166 c 0,6,7
 77 -48 77 -48 77 135 c 0,8,9
 77 257 77 257 119 355 c 0,10,11
 158 444 158 444 219 488 c 1,12,-1
 220 488 l 1,13,-1
 220 489 l 1,14,15
 226 491 226 491 231 492 c 128,-1,16
 236 493 236 493 241 493 c 0,17,18
 261 493 261 493 270 478 c 0,19,20
 274 472 274 472 276 466 c 128,-1,21
 278 460 278 460 277 454 c 0,22,23
 271 435 271 435 268 431 c 1,24,-1
 267 431 l 1,25,26
 207 390 207 390 177 303 c 0,27,28
 150 227 150 227 150 131 c 0,29,30
 150 57 150 57 170 -5 c 128,-1,31
 190 -67 190 -67 231 -117 c 0,32,33
 315 -220 315 -220 450 -220 c 0,34,35
 597 -220 597 -220 668 -109 c 0,36,37
 725 -22 725 -22 725 117 c 0,38,39
 725 148 725 148 720 174.5 c 128,-1,40
 715 201 715 201 705 223 c 0,41,42
 701 233 701 233 695.5 241.5 c 128,-1,43
 690 250 690 250 684 256 c 128,-1,44
 678 262 678 262 671 266 c 128,-1,45
 664 270 664 270 656.5 272 c 128,-1,46
 649 274 649 274 641 274 c 0,47,48
 605 274 605 274 586 245 c 0,49,50
 572 224 572 224 572 197 c 2,51,-1
 572 29 l 2,52,53
 572 1 572 1 539 1 c 0,54,55
 502 1 502 1 500 29 c 1,56,-1
 500 29 l 1,57,-1
 500 413 l 1,58,-1
 390 413 l 1,59,-1
 390 29 l 2,60,61
 389 1 389 1 355 1 c 0,62,63
 320 1 320 1 318 29 c 1,64,-1
 318 29 l 1,65,-1
 318 487 l 1,66,-1
 318 492 l 1,67,-1
 323 492 l 1,68,-1
 676 492 l 1,69,-1
 677 492 l 1,70,-1
 678 492 l 1,71,72
 702 480 702 480 703 454 c 0,73,74
 703 437 703 437 696.5 426.5 c 128,-1,75
 690 416 690 416 677 413 c 2,76,-1
 676 413 l 1,77,-1
 572 413 l 1,78,-1
 572 316 l 1,79,80
 584 329 584 329 601 335.5 c 128,-1,81
 618 342 618 342 641 342 c 0,82,83
 716 342 716 342 756 268 c 0,84,85
 791 206 791 206 791 115 c 0,0,1
EndSplineSet
EndChar

StartChar: tmdigitSIX
Encoding: 3052 3052 105
Width: 840
GlyphClass: 2
Flags: W
LayerCount: 2
Fore
SplineSet
780 235 m 0,0,1
 780 200 780 200 758 196 c 1,2,-1
 757 196 l 1,3,-1
 698 196 l 1,4,-1
 698 13 l 1,5,-1
 698 12 l 2,6,7
 696 -1 696 -1 688.5 -8 c 128,-1,8
 681 -15 681 -15 668 -15 c 0,9,10
 638 -15 638 -15 638 13 c 2,11,-1
 638 196 l 1,12,-1
 586 196 l 1,13,-1
 586 13 l 2,14,15
 585 -15 585 -15 555 -15 c 0,16,17
 530 -15 530 -15 525 12 c 1,18,-1
 525 13 l 1,19,-1
 525 196 l 1,20,-1
 347 196 l 1,21,-1
 347 149 l 2,22,23
 347 93 347 93 334 61 c 0,24,25
 305 -11 305 -11 216 -11 c 0,26,27
 215 -11 215 -11 214 -11 c 0,28,29
 184 -11 184 -11 159 -1 c 128,-1,30
 134 9 134 9 116 30 c 0,31,32
 79 72 79 72 79 149 c 0,33,34
 79 173 79 173 83 192 c 128,-1,35
 87 211 87 211 96 226.5 c 128,-1,36
 105 242 105 242 118 253 c 0,37,38
 132 265 132 265 153 270 c 1,39,-1
 153 468 l 1,40,-1
 153 473 l 1,41,-1
 158 473 l 1,42,-1
 433 473 l 1,43,-1
 434 473 l 1,44,45
 455 467 455 467 455 438 c 0,46,47
 455 436 455 436 455 435 c 0,48,49
 455 419 455 419 450 409 c 128,-1,50
 445 399 445 399 434 396 c 2,51,-1
 433 396 l 1,52,-1
 347 396 l 1,53,-1
 347 274 l 1,54,-1
 758 274 l 2,55,56
 780 274 780 274 780 235 c 0,0,1
286 274 m 1,57,-1
 286 396 l 1,58,-1
 213 396 l 1,59,-1
 213 274 l 1,60,-1
 286 274 l 1,57,-1
286 150 m 2,61,-1
 286 196 l 1,62,-1
 178 196 l 2,63,64
 167 196 167 196 159.5 193 c 128,-1,65
 152 190 152 190 146.5 183.5 c 128,-1,66
 141 177 141 177 138.5 167 c 128,-1,67
 136 157 136 157 136 143 c 0,68,69
 136 98 136 98 160 74 c 0,70,71
 181 52 181 52 215 51 c 0,72,73
 264 51 264 51 280 101 c 0,74,75
 286 118 286 118 286 143 c 0,76,77
 286 146 286 146 286 150 c 2,61,-1
EndSplineSet
EndChar

StartChar: tmdigitSEVEN
Encoding: 3053 3053 106
Width: 629
GlyphClass: 2
Flags: W
LayerCount: 2
Fore
SplineSet
619 452 m 0,0,1
 619 418 619 418 597 413 c 1,2,-1
 596 413 l 1,3,-1
 507 413 l 1,4,-1
 507 12 l 2,5,6
 507 -16 507 -16 476 -16 c 0,7,8
 443 -16 443 -16 443 13 c 2,9,-1
 443 413 l 1,10,-1
 277 413 l 2,11,12
 257 413 257 413 239.5 407.5 c 128,-1,13
 222 402 222 402 206.5 391 c 128,-1,14
 191 380 191 380 178 363 c 0,15,16
 157 336 157 336 146 301.5 c 128,-1,17
 135 267 135 267 135 224 c 0,18,19
 135 134 135 134 167 93 c 1,20,21
 158 120 158 120 158 157 c 0,22,23
 158 209 158 209 184 252 c 0,24,25
 199 278 199 278 221 291 c 128,-1,26
 243 304 243 304 271 304 c 0,27,28
 328 304 328 304 359 251 c 0,29,30
 386 205 386 205 386 140 c 0,31,32
 386 71 386 71 357 26 c 0,33,34
 324 -24 324 -24 264 -24 c 0,35,36
 177 -24 177 -24 125 44 c 0,37,38
 74 112 74 112 74 227 c 0,39,40
 74 349 74 349 141 424 c 0,41,42
 203 493 203 493 288 493 c 2,43,-1
 596 493 l 1,44,-1
 597 493 l 1,45,-1
 599 492 l 2,46,47
 619 480 619 480 619 452 c 0,0,1
324 138 m 0,48,49
 324 177 324 177 312 204 c 0,50,51
 299 235 299 235 274 235 c 0,52,53
 273 235 273 235 272 235 c 0,54,55
 258 235 258 235 247.5 228 c 128,-1,56
 237 221 237 221 230 207 c 0,57,58
 218 182 218 182 217 144 c 0,59,60
 217 104 217 104 230 77 c 0,61,62
 244 45 244 45 271 45 c 0,63,64
 324 45 324 45 324 138 c 0,48,49
EndSplineSet
EndChar

StartChar: tmdigitEIGHT
Encoding: 3054 3054 107
Width: 1147
GlyphClass: 2
Flags: W
LayerCount: 2
Fore
SplineSet
1078 -253 m 2,0,1
 1078 -283 1078 -283 1040 -283 c 0,2,3
 1003 -283 1003 -283 1001 -253 c 1,4,-1
 1001 -253 l 1,5,-1
 1001 -23 l 1,6,-1
 869 -23 l 1,7,8
 848 -107 848 -107 751 -174 c 0,9,10
 631 -257 631 -257 456 -257 c 0,11,12
 289 -257 289 -257 186 -206 c 0,13,14
 73 -150 73 -150 72 -42 c 0,15,16
 72 60 72 60 209 60 c 2,17,-1
 818 60 l 1,18,19
 826 97 826 97 827 156 c 0,20,21
 827 266 827 266 761 331 c 0,22,23
 736 358 736 358 707.5 371 c 128,-1,24
 679 384 679 384 648 385 c 1,25,26
 686 346 686 346 687 255 c 0,27,28
 687 186 687 186 654 141 c 0,29,30
 617 88 617 88 549 88 c 128,-1,31
 481 88 481 88 442 141 c 0,32,33
 406 189 406 189 406 264 c 0,34,35
 406 283 406 283 409 300.5 c 128,-1,36
 412 318 412 318 417.5 334 c 128,-1,37
 423 350 423 350 432 365 c 128,-1,38
 441 380 441 380 452 393 c 0,39,40
 505 453 505 453 593 458 c 1,41,-1
 593 458 l 1,42,-1
 613 458 l 2,43,44
 743 458 743 458 822 375 c 0,45,46
 900 294 900 294 900 159 c 0,47,48
 900 158 900 158 900 156 c 0,49,50
 900 124 900 124 894 60 c 1,51,-1
 1001 60 l 1,52,-1
 1001 417 l 1,53,-1
 1001 418 l 1,54,55
 1005 447 1005 447 1040 447 c 0,56,57
 1077 447 1077 447 1078 417 c 2,58,-1
 1078 -253 l 2,0,1
608 264 m 0,59,60
 608 309 608 309 595 337 c 0,61,62
 578 368 578 368 547 369 c 0,63,64
 514 369 514 369 496 331 c 0,65,66
 481 301 481 301 481 264 c 0,67,68
 481 254 481 254 482 244.5 c 128,-1,69
 483 235 483 235 484.5 227 c 128,-1,70
 486 219 486 219 489 211 c 128,-1,71
 492 203 492 203 495 196 c 0,72,73
 514 161 514 161 548 161 c 0,74,75
 579 161 579 161 596 193 c 0,76,77
 608 220 608 220 608 264 c 0,59,60
789 -23 m 1,78,-1
 208 -23 l 2,79,80
 149 -23 149 -23 149 -46 c 0,81,82
 149 -97 149 -97 206 -133 c 0,83,84
 286 -183 286 -183 457 -183 c 0,85,86
 494 -183 494 -183 528 -179 c 128,-1,87
 562 -175 562 -175 592.5 -167 c 128,-1,88
 623 -159 623 -159 650 -147 c 0,89,90
 715 -120 715 -120 756 -76 c 0,91,92
 783 -46 783 -46 789 -23 c 1,78,-1
EndSplineSet
EndChar

StartChar: tmdigitNINE
Encoding: 3055 3055 108
Width: 951
GlyphClass: 2
Flags: W
LayerCount: 2
Fore
SplineSet
917 12 m 1,0,1
 913 -6 913 -6 891 -7 c 0,2,3
 869 -7 869 -7 865 12 c 1,4,-1
 865 13 l 1,5,-1
 865 224 l 2,6,7
 865 286 865 286 831 325 c 0,8,9
 798 364 798 364 746 364 c 0,10,11
 728 364 728 364 712.5 360.5 c 128,-1,12
 697 357 697 357 684 350 c 128,-1,13
 671 343 671 343 659.5 332.5 c 128,-1,14
 648 322 648 322 639 307 c 0,15,16
 609 261 609 261 609 193 c 0,17,18
 609 135 609 135 621 104 c 0,19,20
 631 76 631 76 652 60 c 1,21,22
 645 77 645 77 645 99 c 0,23,24
 645 134 645 134 665 159 c 0,25,26
 690 189 690 189 733 189 c 0,27,28
 755 189 755 189 772 181 c 128,-1,29
 789 173 789 173 801 157 c 0,30,31
 811 143 811 143 816 126 c 128,-1,32
 821 109 821 109 821 89 c 0,33,34
 820 46 820 46 797 19 c 0,35,36
 784 3 784 3 766.5 -4.5 c 128,-1,37
 749 -12 749 -12 727 -12 c 0,38,39
 559 -12 559 -12 559 194 c 2,40,-1
 559 212 l 1,41,-1
 451 212 l 1,42,-1
 451 162 l 2,43,44
 451 102 451 102 432 68 c 0,45,46
 391 -10 391 -10 267 -10 c 0,47,48
 182 -10 182 -10 132 33 c 0,49,50
 79 79 79 79 79 162 c 0,51,52
 79 239 79 239 133 273 c 0,53,54
 144 280 144 280 157 284.5 c 128,-1,55
 170 289 170 289 183 291 c 1,56,-1
 183 503 l 1,57,-1
 183 508 l 1,58,-1
 188 508 l 1,59,-1
 573 508 l 1,60,-1
 574 508 l 1,61,62
 602 502 602 502 603 467 c 0,63,64
 603 450 603 450 595.5 439.5 c 128,-1,65
 588 429 588 429 574 427 c 2,66,-1
 573 427 l 1,67,-1
 451 427 l 1,68,-1
 451 294 l 1,69,-1
 575 294 l 1,70,71
 586 323 586 323 602 344.5 c 128,-1,72
 618 366 618 366 640 382 c 0,73,74
 663 399 663 399 689.5 407 c 128,-1,75
 716 415 716 415 746 415 c 0,76,77
 768 415 768 415 788.5 410 c 128,-1,78
 809 405 809 405 827 394.5 c 128,-1,79
 845 384 845 384 861 369 c 0,80,81
 889 341 889 341 903 303.5 c 128,-1,82
 917 266 917 266 917 218 c 2,83,-1
 917 13 l 1,84,-1
 917 12 l 1,0,1
701 51 m 0,85,86
 707 42 707 42 714.5 37.5 c 128,-1,87
 722 33 722 33 732 33 c 0,88,89
 771 33 771 33 771 87 c 0,90,91
 771 110 771 110 763 127 c 0,92,93
 752 145 752 145 733 145 c 0,94,95
 693 145 693 145 693 91 c 0,96,97
 693 68 693 68 701 51 c 0,85,86
370 294 m 1,98,-1
 370 427 l 1,99,-1
 263 427 l 1,100,-1
 263 294 l 1,101,-1
 370 294 l 1,98,-1
370 163 m 2,102,-1
 370 212 l 1,103,-1
 217 212 l 2,104,105
 216 212 216 212 215 212 c 0,106,107
 155 212 155 212 154 154 c 0,108,109
 154 138 154 138 158 124.5 c 128,-1,110
 162 111 162 111 169.5 100.5 c 128,-1,111
 177 90 177 90 189 81 c 0,112,113
 204 69 204 69 224 63 c 128,-1,114
 244 57 244 57 268 57 c 0,115,116
 340 57 340 57 361 109 c 0,117,118
 370 129 370 129 370 157 c 0,119,120
 370 160 370 160 370 163 c 2,102,-1
EndSplineSet
EndChar

StartChar: tmdigitTEN
Encoding: 3056 3056 109
Width: 583
GlyphClass: 2
Flags: W
LayerCount: 2
Fore
SplineSet
350 579 m 0,0,1
 312 584 312 584 311 622 c 0,2,3
 311 643 311 643 320.5 654 c 128,-1,4
 330 665 330 665 348 665 c 0,5,6
 351 665 351 665 355 664.5 c 128,-1,7
 359 664 359 664 362 663 c 0,8,9
 395 655 395 655 402 652 c 0,10,11
 423 644 423 644 437 636 c 1,12,-1
 438 636 l 1,13,14
 501 593 501 593 525 493 c 0,15,16
 544 417 544 417 544 274 c 0,17,18
 544 -11 544 -11 391 -11 c 0,19,20
 326 -11 326 -11 299 45 c 1,21,22
 292 28 292 28 277 14 c 1,23,-1
 277 14 l 1,24,25
 274 12 274 12 271 9.5 c 128,-1,26
 268 7 268 7 264.5 5 c 128,-1,27
 261 3 261 3 257 1.5 c 128,-1,28
 253 0 253 0 249.5 -1.5 c 128,-1,29
 246 -3 246 -3 241.5 -4.5 c 128,-1,30
 237 -6 237 -6 233 -6.5 c 128,-1,31
 229 -7 229 -7 224.5 -7.5 c 128,-1,32
 220 -8 220 -8 215.5 -8.5 c 128,-1,33
 211 -9 211 -9 206 -9 c 0,34,35
 148 -9 148 -9 118 39 c 0,36,37
 105 61 105 61 98.5 88 c 128,-1,38
 92 115 92 115 92 149 c 2,39,-1
 92 476 l 1,40,-1
 92 477 l 2,41,42
 95 505 95 505 126 505 c 0,43,44
 127 505 127 505 128 505 c 0,45,46
 162 505 162 505 162 476 c 2,47,-1
 162 165 l 2,48,49
 162 70 162 70 213 70 c 0,50,51
 263 70 263 70 263 159 c 2,52,-1
 263 476 l 2,53,54
 263 505 263 505 295 505 c 0,55,56
 296 505 296 505 297 505 c 0,57,58
 305 505 305 505 311.5 503 c 128,-1,59
 318 501 318 501 323 497.5 c 128,-1,60
 328 494 328 494 330 488.5 c 128,-1,61
 332 483 332 483 332 476 c 2,62,-1
 332 158 l 2,63,64
 332 153 332 153 332.5 148.5 c 128,-1,65
 333 144 333 144 333.5 139.5 c 128,-1,66
 334 135 334 135 334.5 131 c 128,-1,67
 335 127 335 127 336 123 c 128,-1,68
 337 119 337 119 338.5 115.5 c 128,-1,69
 340 112 340 112 341.5 108.5 c 128,-1,70
 343 105 343 105 344.5 101.5 c 128,-1,71
 346 98 346 98 348 95 c 0,72,73
 357 80 357 80 367.5 73.5 c 128,-1,74
 378 67 378 67 391 67 c 0,75,76
 440 67 440 67 457 131 c 0,77,78
 469 175 469 175 469 272 c 0,79,80
 469 376 469 376 462 429 c 0,81,82
 451 512 451 512 420 546 c 0,83,84
 398 569 398 569 350 579 c 0,0,1
EndSplineSet
EndChar

StartChar: tmnumber1HUNDRED
Encoding: 3057 3057 110
Width: 649
GlyphClass: 2
Flags: W
LayerCount: 2
Fore
SplineSet
281 454 m 1,0,-1
 281 497 l 1,1,-1
 281 502 l 1,2,-1
 286 502 l 1,3,-1
 581 501 l 1,4,-1
 581 501 l 1,5,6
 609 499 609 499 609 462 c 0,7,8
 609 424 609 424 582 419 c 1,9,-1
 581 419 l 1,10,-1
 527 418 l 1,11,-1
 527 22 l 2,12,13
 526 -7 526 -7 490 -7 c 0,14,15
 457 -7 457 -7 453 21 c 1,16,-1
 453 22 l 1,17,-1
 453 420 l 1,18,-1
 352 420 l 1,19,-1
 352 22 l 2,20,21
 351 -7 351 -7 315 -7 c 0,22,23
 282 -7 282 -7 278 21 c 1,24,-1
 278 22 l 1,25,-1
 278 320 l 2,26,27
 278 328 278 328 277.5 336 c 128,-1,28
 277 344 277 344 275.5 351.5 c 128,-1,29
 274 359 274 359 272.5 366 c 128,-1,30
 271 373 271 373 268.5 379.5 c 128,-1,31
 266 386 266 386 263 392 c 0,32,33
 254 413 254 413 238 423 c 128,-1,34
 222 433 222 433 200 433 c 0,35,36
 196 433 196 433 192.5 432.5 c 128,-1,37
 189 432 189 432 185.5 431 c 128,-1,38
 182 430 182 430 179 428.5 c 128,-1,39
 176 427 176 427 173 425 c 128,-1,40
 170 423 170 423 167.5 420 c 128,-1,41
 165 417 165 417 162 414 c 0,42,43
 155 404 155 404 151 390.5 c 128,-1,44
 147 377 147 377 147 359 c 2,45,-1
 147 22 l 1,46,-1
 147 21 l 1,47,48
 143 -7 143 -7 109 -7 c 0,49,50
 91 -7 91 -7 82 0.5 c 128,-1,51
 73 8 73 8 74 22 c 2,52,-1
 74 362 l 2,53,54
 74 425 74 425 105 464 c 0,55,56
 137 504 137 504 190 504 c 0,57,58
 234 504 234 504 264 474 c 0,59,60
 270 469 270 469 274 464 c 128,-1,61
 278 459 278 459 281 454 c 1,0,-1
EndSplineSet
EndChar

StartChar: tmnumber1THOUSAND
Encoding: 3058 3058 111
Width: 685
GlyphClass: 2
Flags: W
LayerCount: 2
Fore
SplineSet
639 -7 m 0,0,1
 639 -86 639 -86 604 -125 c 0,2,3
 576 -156 576 -156 536 -156 c 2,4,-1
 443 -156 l 1,5,-1
 442 -156 l 2,6,7
 440 -156 440 -156 439 -156 c 0,8,9
 418 -156 418 -156 416 -180 c 0,10,11
 414 -201 414 -201 425 -208 c 1,12,-1
 427 -208 l 1,13,-1
 427 -209 l 1,14,15
 432 -216 432 -216 432 -226 c 0,16,17
 432 -231 432 -231 430.5 -235.5 c 128,-1,18
 429 -240 429 -240 426 -243.5 c 128,-1,19
 423 -247 423 -247 419 -249 c 128,-1,20
 415 -251 415 -251 411 -251 c 0,21,22
 402 -251 402 -251 392 -240 c 0,23,24
 373 -219 373 -219 373 -181 c 0,25,26
 373 -178 373 -178 373 -174 c 0,27,28
 377 -102 377 -102 436 -102 c 2,29,-1
 537 -102 l 2,30,31
 598 -102 598 -102 598 -6 c 0,32,33
 598 25 598 25 587 42 c 256,34,35
 576 59 576 59 559 59 c 2,36,-1
 550 59 l 1,37,-1
 550 31 l 2,38,39
 550 -76 550 -76 464 -76 c 0,40,41
 445 -76 445 -76 429 -69 c 128,-1,42
 413 -62 413 -62 401 -48 c 0,43,44
 389 -35 389 -35 383 -15 c 128,-1,45
 377 5 377 5 377 31 c 0,46,47
 377 68 377 68 390.5 89 c 128,-1,48
 404 110 404 110 430 113 c 2,49,-1
 431 113 l 1,50,-1
 508 113 l 1,51,-1
 508 163 l 1,52,-1
 353 163 l 1,53,-1
 353 110 l 2,54,55
 353 48 353 48 339 14 c 0,56,57
 306 -67 306 -67 211 -67 c 0,58,59
 146 -67 146 -67 107 -22 c 0,60,61
 87 1 87 1 77 34 c 128,-1,62
 67 67 67 67 67 110 c 0,63,64
 67 126 67 126 68.5 140 c 128,-1,65
 70 154 70 154 73.5 166 c 128,-1,66
 77 178 77 178 81.5 189 c 128,-1,67
 86 200 86 200 93 209 c 128,-1,68
 100 218 100 218 108 225 c 0,69,70
 124 238 124 238 146 244 c 1,71,-1
 146 463 l 1,72,-1
 146 468 l 1,73,-1
 151 468 l 1,74,-1
 445 468 l 1,75,-1
 446 468 l 1,76,77
 469 462 469 462 469 426 c 128,-1,78
 469 390 469 390 446 384 c 1,79,-1
 445 384 l 1,80,-1
 353 384 l 1,81,-1
 353 247 l 1,82,-1
 545 246 l 1,83,-1
 550 246 l 1,84,-1
 550 241 l 1,85,-1
 550 113 l 1,86,-1
 556 113 l 2,87,88
 600 113 600 113 621 75 c 0,89,90
 639 43 639 43 639 -7 c 0,0,1
289 247 m 1,91,-1
 289 384 l 1,92,-1
 210 384 l 1,93,-1
 210 247 l 1,94,-1
 289 247 l 1,91,-1
441 59 m 2,95,96
 417 57 417 57 417 28 c 0,97,98
 417 27 417 27 417 26 c 0,99,100
 417 -3 417 -3 432 -17 c 0,101,102
 445 -31 445 -31 465 -31 c 0,103,104
 508 -31 508 -31 508 28 c 0,105,106
 508 30 508 30 508 31 c 2,107,-1
 508 59 l 1,108,-1
 441 59 l 2,95,96
289 112 m 2,109,-1
 289 163 l 1,110,-1
 173 163 l 2,111,112
 172 163 172 163 172 163 c 2,113,114
 149 163 149 163 138 149 c 256,115,116
 127 135 127 135 127 103 c 0,117,118
 127 53 127 53 153 25 c 0,119,120
 174 2 174 2 209 2 c 0,121,122
 211 2 211 2 212 2 c 0,123,124
 263 2 263 2 281 56 c 0,125,126
 289 79 289 79 289 112 c 2,109,-1
EndSplineSet
EndChar

StartChar: zeronojoin
Encoding: 8204 8204 112
Width: 158
GlyphClass: 2
Flags: W
LayerCount: 2
Fore
SplineSet
134 -397 m 1,0,-1
 24 -397 l 1,1,-1
 19 -397 l 1,2,-1
 19 -392 l 1,3,-1
 19 1159 l 1,4,-1
 19 1164 l 1,5,-1
 24 1164 l 1,6,-1
 134 1164 l 1,7,-1
 139 1164 l 1,8,-1
 139 1159 l 1,9,-1
 139 -392 l 1,10,-1
 139 -397 l 1,11,-1
 134 -397 l 1,0,-1
EndSplineSet
EndChar

StartChar: zerojoin
Encoding: 8205 8205 113
Width: 488
GlyphClass: 2
Flags: W
LayerCount: 2
Fore
SplineSet
433 476 m 1,0,-1
 376 441 l 1,1,-1
 373 439 l 1,2,-1
 370 441 l 1,3,-1
 282 499 l 1,4,-1
 282 -405 l 1,5,-1
 282 -410 l 1,6,-1
 277 -410 l 1,7,-1
 206 -410 l 1,8,-1
 201 -410 l 1,9,-1
 201 -405 l 1,10,-1
 201 505 l 1,11,-1
 103 441 l 1,12,-1
 100 439 l 1,13,-1
 97 441 l 1,14,-1
 40 476 l 1,15,-1
 34 480 l 1,16,-1
 40 484 l 1,17,-1
 171 572 l 1,18,-1
 40 660 l 1,19,-1
 34 664 l 1,20,-1
 40 668 l 1,21,-1
 95 704 l 1,22,-1
 98 706 l 1,23,-1
 101 704 l 1,24,-1
 237 614 l 1,25,-1
 372 704 l 1,26,-1
 375 706 l 1,27,-1
 378 704 l 1,28,-1
 433 668 l 1,29,-1
 439 664 l 1,30,-1
 433 660 l 1,31,-1
 302 572 l 1,32,-1
 433 484 l 1,33,-1
 439 480 l 1,34,-1
 433 476 l 1,0,-1
EndSplineSet
EndChar

StartChar: endash
Encoding: 8211 8211 114
Width: 1272
GlyphClass: 2
Flags: W
LayerCount: 2
Fore
SplineSet
1198 441 m 1,0,-1
 75 441 l 1,1,-1
 70 441 l 1,2,-1
 70 446 l 1,3,-1
 70 539 l 1,4,-1
 70 544 l 1,5,-1
 75 544 l 1,6,-1
 1198 544 l 1,7,-1
 1203 544 l 1,8,-1
 1203 539 l 1,9,-1
 1203 446 l 1,10,-1
 1203 441 l 1,11,-1
 1198 441 l 1,0,-1
EndSplineSet
EndChar

StartChar: emdash
Encoding: 8212 8212 115
Width: 1516
GlyphClass: 2
Flags: W
LayerCount: 2
Fore
SplineSet
1442 441 m 1,0,-1
 75 441 l 1,1,-1
 70 441 l 1,2,-1
 70 446 l 1,3,-1
 70 530 l 1,4,-1
 70 535 l 1,5,-1
 75 535 l 1,6,-1
 1442 535 l 1,7,-1
 1447 535 l 1,8,-1
 1447 530 l 1,9,-1
 1447 446 l 1,10,-1
 1447 441 l 1,11,-1
 1442 441 l 1,0,-1
EndSplineSet
EndChar

StartChar: quoteleft
Encoding: 8216 8216 116
Width: 222
GlyphClass: 2
Flags: W
LayerCount: 2
Fore
SplineSet
162 596 m 1,0,-1
 162 494 l 1,1,-1
 162 489 l 1,2,-1
 157 489 l 1,3,-1
 63 489 l 1,4,-1
 58 489 l 1,5,-1
 58 494 l 1,6,-1
 58 574 l 2,7,8
 58 592 58 592 59 606 c 256,9,10
 60 620 60 620 61 631 c 0,11,12
 64 653 64 653 74 671 c 1,13,-1
 74 672 l 1,14,15
 95 708 95 708 141 732 c 1,16,-1
 145 735 l 1,17,-1
 147 731 l 1,18,-1
 169 697 l 1,19,-1
 173 691 l 1,20,-1
 167 689 l 2,21,22
 154 685 154 685 145 677 c 256,23,24
 136 669 136 669 129 657 c 0,25,26
 117 635 117 635 116 601 c 1,27,-1
 157 601 l 1,28,-1
 162 601 l 1,29,-1
 162 596 l 1,0,-1
EndSplineSet
EndChar

StartChar: quoteright
Encoding: 8217 8217 117
Width: 222
GlyphClass: 2
Flags: W
LayerCount: 2
Fore
SplineSet
56 621 m 1,0,-1
 56 723 l 1,1,-1
 56 728 l 1,2,-1
 61 728 l 1,3,-1
 155 728 l 1,4,-1
 160 728 l 1,5,-1
 160 723 l 1,6,-1
 160 643 l 2,7,8
 160 580 160 580 145 546 c 1,9,-1
 144 546 l 1,10,11
 125 508 125 508 76 485 c 2,12,-1
 72 483 l 1,13,-1
 70 486 l 1,14,-1
 49 520 l 1,15,-1
 46 525 l 1,16,-1
 51 528 l 1,17,18
 73 536 73 536 87 559 c 0,19,20
 93 570 93 570 97 584 c 0,21,22
 100 599 100 599 101 616 c 1,23,-1
 61 616 l 1,24,-1
 56 616 l 1,25,-1
 56 621 l 1,0,-1
EndSplineSet
EndChar

StartChar: quotedblleft
Encoding: 8220 8220 118
Width: 333
GlyphClass: 2
Flags: W
LayerCount: 2
Fore
SplineSet
140 596 m 1,0,-1
 140 494 l 1,1,-1
 140 489 l 1,2,-1
 135 489 l 1,3,-1
 41 489 l 1,4,-1
 36 489 l 1,5,-1
 36 494 l 1,6,-1
 36 574 l 2,7,8
 36 592 36 592 37 606 c 256,9,10
 38 620 38 620 39 631 c 0,11,12
 42 653 42 653 52 671 c 1,13,-1
 52 672 l 1,14,15
 73 708 73 708 119 732 c 1,16,-1
 123 735 l 1,17,-1
 125 731 l 1,18,-1
 147 697 l 1,19,-1
 151 691 l 1,20,-1
 145 689 l 2,21,22
 120 681 120 681 107 657 c 0,23,24
 103 650 103 650 100 641 c 0,25,26
 98 632 98 632 96 622 c 256,27,28
 94 612 94 612 94 601 c 1,29,-1
 135 601 l 1,30,-1
 140 601 l 1,31,-1
 140 596 l 1,0,-1
291 596 m 1,32,-1
 291 494 l 1,33,-1
 291 489 l 1,34,-1
 286 489 l 1,35,-1
 192 489 l 1,36,-1
 187 489 l 1,37,-1
 187 494 l 1,38,-1
 187 574 l 2,39,40
 187 586 187 586 187 596 c 0,41,42
 188 607 188 607 189 616 c 0,43,44
 190 626 190 626 191 634 c 0,45,46
 193 643 193 643 195 650 c 0,47,48
 197 658 197 658 199 664 c 0,49,50
 202 671 202 671 205 676 c 0,51,52
 223 708 223 708 270 732 c 1,53,-1
 274 735 l 1,54,-1
 276 731 l 1,55,-1
 298 697 l 1,56,-1
 302 691 l 1,57,-1
 296 689 l 2,58,59
 271 681 271 681 258 657 c 0,60,61
 252 646 252 646 249 632 c 0,62,63
 246 617 246 617 245 601 c 1,64,-1
 286 601 l 1,65,-1
 291 601 l 1,66,-1
 291 596 l 1,32,-1
EndSplineSet
EndChar

StartChar: quotedblright
Encoding: 8221 8221 119
Width: 333
GlyphClass: 2
Flags: W
LayerCount: 2
Fore
SplineSet
37 621 m 1,0,-1
 37 723 l 1,1,-1
 37 728 l 1,2,-1
 42 728 l 1,3,-1
 137 728 l 1,4,-1
 142 728 l 1,5,-1
 142 723 l 1,6,-1
 142 643 l 2,7,8
 142 580 142 580 127 546 c 1,9,-1
 126 546 l 1,10,11
 107 508 107 508 58 485 c 2,12,-1
 54 483 l 1,13,-1
 52 486 l 1,14,-1
 31 520 l 1,15,-1
 28 525 l 1,16,-1
 33 528 l 1,17,18
 55 536 55 536 69 559 c 0,19,20
 75 570 75 570 79 584 c 0,21,22
 82 599 82 599 83 616 c 1,23,-1
 42 616 l 1,24,-1
 37 616 l 1,25,-1
 37 621 l 1,0,-1
189 621 m 1,26,-1
 189 723 l 1,27,-1
 189 728 l 1,28,-1
 194 728 l 1,29,-1
 288 728 l 1,30,-1
 293 728 l 1,31,-1
 293 723 l 1,32,-1
 293 643 l 2,33,34
 293 622 293 622 291 604 c 0,35,36
 290 587 290 587 286 572 c 0,37,38
 283 557 283 557 278 546 c 1,39,-1
 277 546 l 1,40,41
 266 526 266 526 250 511 c 0,42,43
 233 496 233 496 210 485 c 2,44,-1
 206 483 l 1,45,-1
 204 486 l 1,46,-1
 182 520 l 1,47,-1
 178 526 l 1,48,-1
 184 528 l 2,49,50
 208 536 208 536 221 560 c 0,51,52
 234 583 234 583 235 616 c 1,53,-1
 194 616 l 1,54,-1
 189 616 l 1,55,-1
 189 621 l 1,26,-1
EndSplineSet
EndChar

StartChar: bullet
Encoding: 8226 8226 120
Width: 404
GlyphClass: 2
Flags: W
LayerCount: 2
Fore
SplineSet
68 439 m 0,0,1
 75 450 75 450 84 460 c 256,2,3
 93 470 93 470 103 478 c 0,4,5
 114 486 114 486 126 492 c 0,6,7
 163 510 163 510 202 510 c 0,8,9
 211 510 211 510 221 509 c 0,10,11
 230 508 230 508 239 506 c 256,12,13
 248 504 248 504 257 500 c 0,14,15
 266 497 266 497 274 493 c 256,16,17
 282 489 282 489 291 483 c 0,18,19
 325 461 325 461 343 425 c 0,20,21
 353 407 353 407 357 388 c 0,22,23
 362 369 362 369 362 349 c 0,24,25
 362 301 362 301 336 261 c 0,26,27
 290 190 290 190 200 190 c 0,28,29
 152 190 152 190 115 214 c 0,30,31
 79 238 79 238 60 274 c 0,32,33
 51 292 51 292 46 311 c 256,34,35
 41 330 41 330 41 350 c 0,36,37
 41 397 41 397 68 439 c 0,0,1
EndSplineSet
EndChar

StartChar: onedotlead
Encoding: 8228 8228 121
Width: 511
GlyphClass: 2
Flags: W
LayerCount: 2
Fore
SplineSet
395 737 m 0,0,1
 395 678 395 678 354.5 638.5 c 128,-1,2
 314 599 314 599 255 599 c 0,3,4
 227 599 227 599 202.5 609 c 128,-1,5
 178 619 178 619 157 639 c 0,6,7
 147 650 147 650 139.5 661 c 128,-1,8
 132 672 132 672 127 684 c 128,-1,9
 122 696 122 696 119.5 709.5 c 128,-1,10
 117 723 117 723 117 737 c 0,11,12
 117 795 117 795 157 836 c 128,-1,13
 197 877 197 877 255 877 c 0,14,15
 315 877 315 877 355 837 c 128,-1,16
 395 797 395 797 395 737 c 0,0,1
EndSplineSet
EndChar

StartChar: ellipsis
Encoding: 8230 8230 122
Width: 785
GlyphClass: 2
Flags: W
LayerCount: 2
Fore
SplineSet
715 133 m 128,-1,1
 715 92 715 92 695 65 c 0,2,3
 674 36 674 36 641 36 c 0,4,5
 624 36 624 36 610.5 43 c 128,-1,6
 597 50 597 50 586.5 64 c 128,-1,7
 576 78 576 78 571 95.5 c 128,-1,8
 566 113 566 113 566 133 c 0,9,10
 566 174 566 174 586 202 c 0,11,12
 607 231 607 231 641 231 c 0,13,14
 657 231 657 231 670.5 223.5 c 128,-1,15
 684 216 684 216 695 202 c 0,16,0
 715 174 715 174 715 133 c 128,-1,1
474 133 m 128,-1,18
 474 92 474 92 454 65 c 0,19,20
 434 36 434 36 400 36 c 0,21,22
 367 36 367 36 346 65 c 0,23,24
 326 92 326 92 326 133 c 128,-1,25
 326 174 326 174 346 202 c 0,26,27
 367 231 367 231 400 231 c 0,28,29
 417 231 417 231 430.5 223.5 c 128,-1,30
 444 216 444 216 454 202 c 0,31,17
 474 174 474 174 474 133 c 128,-1,18
238 133 m 0,32,33
 238 92 238 92 218 65 c 0,34,35
 197 36 197 36 164 36 c 256,36,37
 131 36 131 36 109 64 c 0,38,39
 88 92 88 92 88 133 c 128,-1,40
 88 174 88 174 109 202 c 0,41,42
 130 231 130 231 164 231 c 0,43,44
 180 231 180 231 193.5 223.5 c 128,-1,45
 207 216 207 216 217.5 202 c 128,-1,46
 228 188 228 188 233 170.5 c 128,-1,47
 238 153 238 153 238 133 c 0,32,33
EndSplineSet
EndChar

StartChar: circledash
Encoding: 9676 9676 123
Width: 644
GlyphClass: 4
Flags: W
LayerCount: 2
Fore
SplineSet
570 297 m 1,0,-1
 527 286 l 1,1,-1
 522 285 l 1,2,-1
 521 290 l 2,3,4
 508 374 508 374 445 425 c 2,5,-1
 441 428 l 1,6,-1
 444 432 l 1,7,-1
 472 469 l 1,8,-1
 475 473 l 1,9,-1
 479 470 l 2,10,11
 558 412 558 412 574 303 c 1,12,-1
 575 298 l 1,13,-1
 570 297 l 1,0,-1
422 500 m 1,14,-1
 408 455 l 1,15,-1
 406 449 l 1,16,-1
 401 451 l 2,17,18
 362 466 362 466 327 466 c 0,19,20
 291 466 291 466 251 451 c 1,21,-1
 246 450 l 1,22,-1
 244 454 l 1,23,-1
 227 497 l 1,24,-1
 226 502 l 1,25,-1
 230 504 l 2,26,27
 277 524 277 524 328 524 c 0,28,29
 376 524 376 524 419 506 c 2,30,-1
 423 504 l 1,31,-1
 422 500 l 1,14,-1
572 226 m 1,32,33
 568 179 568 179 542.5 134 c 128,-1,34
 517 89 517 89 479 59 c 2,35,-1
 475 56 l 1,36,-1
 472 60 l 1,37,-1
 442 95 l 1,38,-1
 439 99 l 1,39,-1
 443 102 l 2,40,41
 449 106 449 106 454.5 111 c 128,-1,42
 460 116 460 116 465.5 121.5 c 128,-1,43
 471 127 471 127 476 133.5 c 128,-1,44
 481 140 481 140 486 147 c 128,-1,45
 491 154 491 154 495 162 c 0,46,47
 501 172 501 172 505.5 181.5 c 128,-1,48
 510 191 510 191 513 200.5 c 128,-1,49
 516 210 516 210 517.5 219 c 128,-1,50
 519 228 519 228 519 237 c 2,51,-1
 519 243 l 1,52,-1
 525 242 l 1,53,-1
 568 231 l 1,54,-1
 572 230 l 1,55,-1
 572 226 l 1,32,33
207 423 m 2,56,57
 148 376 148 376 134 290 c 2,58,-1
 133 285 l 1,59,-1
 128 286 l 1,60,-1
 84 294 l 1,61,-1
 80 295 l 1,62,-1
 80 299 l 2,63,64
 83 339 83 339 108 386 c 0,65,66
 134 437 134 437 172 468 c 2,67,-1
 176 471 l 1,68,-1
 179 467 l 1,69,-1
 208 430 l 1,70,-1
 211 426 l 1,71,-1
 207 423 l 2,56,57
418 23 m 1,72,73
 372 5 372 5 324 5 c 0,74,75
 273 5 273 5 230 25 c 1,76,-1
 226 28 l 1,77,-1
 227 32 l 1,78,-1
 245 75 l 1,79,-1
 248 80 l 1,80,-1
 252 77 l 1,81,82
 282 61 282 61 326 61 c 0,83,84
 366 61 366 61 399 76 c 2,85,-1
 404 78 l 1,86,-1
 406 73 l 1,87,-1
 421 30 l 1,88,-1
 422 25 l 1,89,-1
 418 23 l 1,72,73
208 98 m 1,90,-1
 179 62 l 1,91,-1
 176 58 l 1,92,-1
 172 61 l 1,93,94
 96 123 96 123 80 226 c 1,95,-1
 79 231 l 1,96,-1
 84 232 l 1,97,-1
 128 241 l 1,98,-1
 133 242 l 1,99,-1
 134 237 l 1,100,101
 146 153 146 153 207 105 c 2,102,-1
 211 102 l 1,103,-1
 208 98 l 1,90,-1
EndSplineSet
EndChar

StartChar: tmletterKA_tmvowelsignI.psts
Encoding: 65539 -1 124
Width: 705
GlyphClass: 3
Flags: W
LayerCount: 2
Fore
SplineSet
678 319 m 6,0,1
 678 345 678 345 673.5 369 c 132,-1,2
 669 393 669 393 660.5 415 c 132,-1,3
 652 437 652 437 638.5 456.5 c 132,-1,4
 625 476 625 476 607 494 c 4,5,6
 537 565 537 565 425 565 c 4,7,8
 397 565 397 565 371.5 560.5 c 132,-1,9
 346 556 346 556 323.5 547 c 132,-1,10
 301 538 301 538 281.5 524.5 c 132,-1,11
 262 511 262 511 245 494 c 4,12,13
 215 463 215 463 200.5 430 c 132,-1,14
 186 397 186 397 186 361 c 4,15,16
 186 306 186 306 211 273 c 5,17,-1
 239 384 l 5,18,-1
 240 388 l 5,19,-1
 244 388 l 5,20,-1
 587 388 l 5,21,-1
 593 388 l 5,22,-1
 592 382 l 5,23,-1
 584 346 l 5,24,-1
 583 342 l 5,25,-1
 579 342 l 5,26,-1
 454 341 l 5,27,-1
 429 220 l 5,28,-1
 488 219 l 6,29,30
 532 219 532 219 559 189 c 260,31,32
 586 159 586 159 586 123 c 4,33,34
 586 71 586 71 545 33 c 5,35,-1
 545 33 l 5,36,37
 535 25 535 25 524.5 18.5 c 132,-1,38
 514 12 514 12 501 6 c 4,39,40
 477 -4 477 -4 451 -4 c 6,41,-1
 447 -4 l 5,42,-1
 446 -1 l 5,43,-1
 435 30 l 5,44,-1
 434 35 l 5,45,-1
 438 37 l 5,46,47
 503 62 503 62 503 123 c 4,48,49
 503 174 503 174 451 174 c 6,50,-1
 420 173 l 5,51,-1
 403 101 l 6,52,53
 376 -11 376 -11 252 -11 c 4,54,55
 187 -11 187 -11 136 25 c 4,56,57
 109 45 109 45 95 70.5 c 132,-1,58
 81 96 81 96 81 127 c 4,59,60
 81 161 81 161 106 189 c 5,61,-1
 106 190 l 5,62,63
 136 219 136 219 187 219 c 5,64,-1
 190 220 l 5,65,66
 180 231 180 231 171.5 246 c 132,-1,67
 163 261 163 261 154 280 c 5,68,-1
 154 280 l 5,69,70
 150 292 150 292 147 303 c 132,-1,71
 144 314 144 314 142 323 c 4,72,73
 138 343 138 343 138 367 c 4,74,75
 138 409 138 409 152.5 449.5 c 132,-1,76
 167 490 167 490 196 528 c 4,77,78
 278 634 278 634 445 634 c 4,79,80
 592 634 592 634 669 544 c 4,81,82
 730 471 730 471 730 368 c 4,83,84
 730 349 730 349 727.5 327 c 132,-1,85
 725 305 725 305 721 281 c 6,86,-1
 667 14 l 5,87,-1
 666 10 l 5,88,-1
 662 10 l 5,89,-1
 627 10 l 5,90,-1
 621 10 l 5,91,-1
 622 16 l 5,92,-1
 674 263 l 5,93,-1
 678 319 l 6,0,1
369 341 m 5,94,-1
 273 341 l 5,95,-1
 247 220 l 5,96,-1
 344 220 l 5,97,-1
 369 341 l 5,94,-1
334 173 m 5,98,-1
 187 174 l 6,99,100
 160 174 160 174 141 160 c 4,101,102
 123 146 123 146 123 122 c 4,103,104
 123 93 123 93 156 67 c 4,105,106
 190 41 190 41 230 41 c 4,107,108
 239 41 239 41 248 42.5 c 132,-1,109
 257 44 257 44 265.5 47.5 c 132,-1,110
 274 51 274 51 282 55 c 4,111,112
 313 73 313 73 321 111 c 6,113,-1
 334 173 l 5,98,-1
EndSplineSet
LCarets2: 1 0
Ligature2: "'psts' Post Base Substitutions in Tamil lookup 2 subtable" tmletterKA tmvowelsignI
EndChar

